<svg width="144" height="143" viewBox="0 0 144 143" fill="none" xmlns="http://www.w3.org/2000/svg">
<g filter="url(#filter0_d_284_484)">
<path d="M72.0108 134.674C109.2 134.674 139.348 104.526 139.348 67.3369C139.348 30.1478 109.2 0 72.0108 0C34.8216 0 4.67383 30.1478 4.67383 67.3369C4.67383 104.526 34.8216 134.674 72.0108 134.674Z" fill="#8886C1"/>
<path d="M36.4508 59.2029H32.2075V46.9861H36.8463C39.1229 46.9861 40.4162 47.264 41.3995 47.9053C42.447 48.6214 43.0028 49.733 43.0028 51.1439C43.0028 52.8006 42.4256 53.7412 40.9186 54.5L44.3388 59.2029H39.807L37.1883 54.9917H36.4508V59.2029ZM37.3593 52.5334C38.4068 52.5334 38.7061 52.1913 38.7061 51.0477C38.7061 49.9895 38.3854 49.6475 37.3593 49.6475H36.4401V52.5441H37.3593V52.5334Z" fill="white"/>
<path d="M48.3361 55.7185C48.5392 56.6591 49.1697 57.0652 50.4203 57.0652C51.5533 57.0652 52.3656 56.8728 53.7551 56.2957L54.9736 58.5937C53.7123 59.1922 52.2694 59.4701 50.3562 59.4701C46.4228 59.4701 44.2852 57.8669 44.2852 54.8634C44.2852 51.86 46.2732 50.3315 49.8645 50.3315C51.6922 50.3315 53.0176 50.6949 53.9903 51.4218C54.9522 52.1593 55.4973 53.3243 55.4973 54.6176C55.4973 54.9062 55.4759 55.0986 55.4439 55.7078H48.3467L48.3361 55.7185ZM51.5533 53.6877C51.4036 52.8006 50.9761 52.4692 49.9928 52.4692C49.0094 52.4692 48.5178 52.8433 48.4216 53.6877H51.5533Z" fill="white"/>
<path d="M63.7167 58.4226C62.9258 59.0425 62.1242 59.2777 60.8629 59.2777C58.0733 59.2777 56.4272 57.621 56.4272 54.7992C56.4272 51.9775 58.0519 50.3208 60.8629 50.3208C62.1455 50.3208 62.9365 50.5453 63.6633 51.1224L63.8984 50.5773H67.5966V58.0164C67.5966 59.8762 67.2867 60.9771 66.5492 61.7681C65.4589 62.9652 63.7808 63.5103 61.2477 63.5103C59.6444 63.5103 58.2015 63.3713 57.1113 63.1041L57.7633 60.6458C58.7573 60.9664 59.6444 61.1054 60.8736 61.1054C62.9471 61.1054 63.7274 60.4855 63.7167 58.8822V58.4333V58.4226ZM60.7026 54.7992C60.7026 56.1139 61.1088 56.7659 61.9638 56.7659C62.9258 56.7659 63.4388 56.0818 63.4388 54.8206C63.4388 53.5594 62.9472 52.8219 61.9638 52.8219C61.1088 52.8219 60.7026 53.4739 60.7026 54.8099V54.7992Z" fill="white"/>
<path d="M74.1059 47.9802C74.1059 49.0704 73.2509 49.7758 71.9362 49.7758C70.6215 49.7758 69.7344 49.0704 69.7344 47.9481C69.7344 46.8258 70.6108 46.1738 71.9255 46.1738C73.2402 46.1738 74.1166 46.8793 74.1166 47.9909L74.1059 47.9802ZM69.8413 50.5668H73.999V59.203H69.8413V50.5668Z" fill="white"/>
<path d="M76.3507 56.6056C77.2272 56.9477 78.264 57.1401 79.3328 57.1401C80.4017 57.1401 80.8933 56.9477 80.8933 56.5415C80.8933 56.2315 80.6368 56.0605 80.0062 55.943C76.8531 55.3765 75.6774 54.5962 75.6774 53.0357C75.6774 51.3256 77.2379 50.3315 79.8993 50.3315C81.4705 50.3315 82.9134 50.5881 84.196 51.1225L83.1699 53.3243C82.1973 52.8647 81.1712 52.6189 80.2627 52.6189C79.7817 52.6189 79.4718 52.8113 79.4718 53.0998C79.4718 53.3884 79.6642 53.4739 80.8078 53.6984C83.7685 54.2969 84.7732 55.0344 84.7732 56.6056C84.7732 58.5082 83.1165 59.4488 79.7603 59.4488C78.1571 59.4488 76.479 59.2564 75.4102 58.9571L76.3507 56.6163V56.6056Z" fill="white"/>
<path d="M85.1045 53.2068V50.5667H86.665L86.975 48.1084L90.5876 47.7664V50.5667H93.0353V53.2068H90.5876V55.3765C90.5876 56.456 90.78 56.7126 91.5603 56.7126C91.9023 56.7126 92.1909 56.6591 92.7039 56.4881L93.1315 59.1388C91.9878 59.3419 91.1969 59.4167 90.2028 59.4167C88.3858 59.4167 87.4132 59.0212 86.9001 58.1127C86.5902 57.5356 86.5047 56.9156 86.5047 55.1307V53.1961H85.1045V53.2068Z" fill="white"/>
<path d="M97.9625 55.7185C98.1656 56.6591 98.7962 57.0652 100.047 57.0652C101.18 57.0652 101.992 56.8728 103.382 56.2957L104.6 58.5937C103.339 59.1922 101.896 59.4701 99.9827 59.4701C96.0493 59.4701 93.9116 57.8669 93.9116 54.8634C93.9116 51.86 95.8997 50.3315 99.491 50.3315C101.319 50.3315 102.644 50.6949 103.617 51.4218C104.579 52.1593 105.124 53.3243 105.124 54.6176C105.124 54.9062 105.102 55.0986 105.07 55.7078H97.9732L97.9625 55.7185ZM101.18 53.6877C101.03 52.8006 100.603 52.4692 99.6192 52.4692C98.6359 52.4692 98.1442 52.8433 98.048 53.6877H101.18Z" fill="white"/>
<path d="M106.673 50.5668H110.372L110.596 51.1119C111.344 50.5668 112.199 50.3103 113.3 50.3103C113.664 50.3103 113.952 50.3424 114.465 50.4172L113.931 53.2603C113.279 53.0358 112.851 52.9717 112.253 52.9717C111.12 52.9717 110.831 53.3458 110.831 54.8529V59.2137H106.673V50.5775V50.5668Z" fill="white"/>
<path d="M36.8999 74.7439V72.1038H38.4604L38.7704 69.6455L42.3831 69.3035V72.1038H44.8307V74.7439H42.3831V76.9136C42.3831 77.9931 42.5755 78.2497 43.3557 78.2497C43.6977 78.2497 43.9863 78.1962 44.4994 78.0252L44.9269 80.6759C43.7832 80.879 42.9923 80.9538 41.9983 80.9538C40.1813 80.9538 39.2086 80.5584 38.6955 79.6498C38.3856 79.0727 38.3001 78.4527 38.3001 76.6678V74.7332H36.8999V74.7439Z" fill="white"/>
<path d="M57.304 76.4433C57.304 79.3719 55.2305 81.0072 51.543 81.0072C47.8555 81.0072 45.7285 79.3826 45.7285 76.3685C45.7285 73.3543 47.8555 71.8687 51.5323 71.8687C55.2091 71.8687 57.3147 73.4933 57.3147 76.4326L57.304 76.4433ZM50.0039 76.4112C50.0039 77.8435 50.4955 78.5168 51.5216 78.5168C52.5477 78.5168 53.0394 77.8328 53.0394 76.4433C53.0394 75.0538 52.5477 74.3697 51.5216 74.3697C50.4955 74.3697 50.0039 75.0538 50.0039 76.4005V76.4112Z" fill="white"/>
<path d="M62.3379 68.5339H66.9446L69.1678 76.283L71.391 68.5339H75.9977L70.8672 80.8149H67.479L62.3486 68.5339H62.3379Z" fill="white"/>
<path d="M87.2313 76.4433C87.2313 79.3719 85.1578 81.0072 81.4703 81.0072C77.7828 81.0072 75.6558 79.3826 75.6558 76.3685C75.6558 73.3543 77.7827 71.8687 81.4596 71.8687C85.1364 71.8687 87.242 73.4933 87.242 76.4326L87.2313 76.4433ZM79.9311 76.4112C79.9311 77.8435 80.4228 78.5168 81.4489 78.5168C82.4749 78.5168 82.9666 77.8328 82.9666 76.4433C82.9666 75.0538 82.4749 74.3697 81.4489 74.3697C80.4228 74.3697 79.9311 75.0538 79.9311 76.4005V76.4112Z" fill="white"/>
<path d="M87.9478 74.7439V72.1038H89.5083L89.8182 69.6455L93.4309 69.3035V72.1038H95.8785V74.7439H93.4309V76.9136C93.4309 77.9931 93.6233 78.2497 94.4036 78.2497C94.7456 78.2497 95.0341 78.1962 95.5472 78.0252L95.9748 80.6759C94.8311 80.879 94.0401 80.9538 93.0461 80.9538C91.2291 80.9538 90.2564 80.5584 89.7434 79.6498C89.4334 79.0727 89.3479 78.4527 89.3479 76.6678V74.7332H87.9478V74.7439Z" fill="white"/>
<path d="M100.806 77.2664C101.009 78.2069 101.64 78.6131 102.89 78.6131C104.023 78.6131 104.835 78.4207 106.225 77.8435L107.443 80.1415C106.182 80.7401 104.739 81.018 102.826 81.018C98.8926 81.018 96.7549 79.4147 96.7549 76.4113C96.7549 73.4078 98.7429 71.8794 102.334 71.8794C104.162 71.8794 105.487 72.2428 106.46 72.9696C107.422 73.7071 107.967 74.8721 107.967 76.1654C107.967 76.454 107.946 76.6464 107.914 77.2557H100.816L100.806 77.2664ZM104.023 75.2356C103.873 74.3484 103.446 74.0171 102.462 74.0171C101.479 74.0171 100.987 74.3912 100.891 75.2356H104.023Z" fill="white"/>
<path d="M54.7384 96.1955C54.7384 100.332 52.1197 102.555 47.2244 102.555C42.3292 102.555 39.625 100.364 39.625 96.11C39.625 94.3464 40.1915 92.7752 41.1641 91.8026C42.4681 90.4986 44.4989 89.8359 47.171 89.8359C52.1304 89.8359 54.7384 92.0271 54.7384 96.1955ZM44.1355 96.1421C44.1355 98.5577 45.183 99.8082 47.2031 99.8082C49.2232 99.8082 50.2493 98.5577 50.2493 96.1955C50.2493 93.8334 49.1911 92.6042 47.2031 92.6042C45.215 92.6042 44.1355 93.8548 44.1355 96.1421Z" fill="white"/>
<path d="M56.4595 93.6623H60.1576L60.3821 94.2074C61.2051 93.6409 62.0923 93.4058 63.4069 93.4058C65.0529 93.4058 66.1432 93.8974 66.7096 94.8594C67.0303 95.4579 67.1906 96.3664 67.1906 97.788V102.309H63.0328V97.8735C63.0328 96.5054 62.7549 96.0565 61.9533 96.0565C60.9272 96.0565 60.6172 96.484 60.6172 97.9376V102.299H56.4595V93.6623Z" fill="white"/>
<path d="M69.3711 89.1946H73.5289V102.299H69.3711V89.1946Z" fill="white"/>
<path d="M80.0488 91.0756C80.0488 92.1658 79.1937 92.8713 77.8791 92.8713C76.5644 92.8713 75.6772 92.1658 75.6772 91.0436C75.6772 89.9213 76.5537 89.2693 77.8684 89.2693C79.1831 89.2693 80.0595 89.9747 80.0595 91.0863L80.0488 91.0756ZM75.7841 93.6622H79.9419V102.298H75.7841V93.6622Z" fill="white"/>
<path d="M82.1758 93.6623H85.874L86.0984 94.2074C86.9214 93.6409 87.8086 93.4058 89.1232 93.4058C90.7693 93.4058 91.8595 93.8974 92.426 94.8594C92.7466 95.4579 92.9069 96.3664 92.9069 97.788V102.309H88.7491V97.8735C88.7491 96.5054 88.4712 96.0565 87.6696 96.0565C86.6435 96.0565 86.3336 96.484 86.3336 97.9376V102.299H82.1758V93.6623Z" fill="white"/>
<path d="M98.5182 98.8142C98.7212 99.7548 99.3519 100.161 100.602 100.161C101.735 100.161 102.548 99.9685 103.937 99.3914L105.156 101.689C103.894 102.288 102.452 102.566 100.538 102.566C96.605 102.566 94.4673 100.963 94.4673 97.9591C94.4673 94.9557 96.4553 93.4272 100.047 93.4272C101.874 93.4272 103.2 93.7906 104.172 94.5175C105.134 95.255 105.679 96.42 105.679 97.7133C105.679 98.0019 105.658 98.1943 105.626 98.8035H98.5289L98.5182 98.8142ZM101.735 96.7834C101.586 95.8963 101.158 95.5649 100.175 95.5649C99.1916 95.5649 98.6999 95.939 98.6037 96.7834H101.735Z" fill="white"/>
<path d="M71.3377 32.6317L68.3236 34.2136C67.2654 34.7694 66.0256 33.8715 66.2287 32.6958L66.8058 29.3397C66.8913 28.8694 66.731 28.3884 66.389 28.0571L63.952 25.6842C63.0969 24.8505 63.5672 23.3969 64.7536 23.2259L68.1205 22.7342C68.5908 22.6701 68.997 22.3708 69.2107 21.9433L70.7178 18.8971C71.2522 17.8282 72.7806 17.8282 73.3044 18.8971L74.8115 21.9433C75.0252 22.3708 75.4314 22.6701 75.9017 22.7342L79.2685 23.2259C80.4549 23.3969 80.9252 24.8505 80.0702 25.6842L77.6332 28.0571C77.2912 28.3884 77.1415 28.8694 77.2163 29.3397L77.7935 32.6958C77.9966 33.8715 76.7568 34.7801 75.6986 34.2136L72.6845 32.6317C72.2676 32.4072 71.7653 32.4072 71.3377 32.6317Z" fill="#272660"/>
</g>
<defs>
<filter id="filter0_d_284_484" x="0.673828" y="0" width="142.674" height="142.674" filterUnits="userSpaceOnUse" color-interpolation-filters="sRGB">
<feFlood flood-opacity="0" result="BackgroundImageFix"/>
<feColorMatrix in="SourceAlpha" type="matrix" values="0 0 0 0 0 0 0 0 0 0 0 0 0 0 0 0 0 0 127 0" result="hardAlpha"/>
<feOffset dy="4"/>
<feGaussianBlur stdDeviation="2"/>
<feComposite in2="hardAlpha" operator="out"/>
<feColorMatrix type="matrix" values="0 0 0 0 0 0 0 0 0 0 0 0 0 0 0 0 0 0 0.25 0"/>
<feBlend mode="normal" in2="BackgroundImageFix" result="effect1_dropShadow_284_484"/>
<feBlend mode="normal" in="SourceGraphic" in2="effect1_dropShadow_284_484" result="shape"/>
</filter>
</defs>
</svg>
