<svg width="143" height="143" viewBox="0 0 143 143" fill="none" xmlns="http://www.w3.org/2000/svg">
<g filter="url(#filter0_d_284_542)">
<path d="M71.3584 134.674C108.548 134.674 138.695 104.526 138.695 67.3369C138.695 30.1478 108.548 0 71.3584 0C34.1693 0 4.02148 30.1478 4.02148 67.3369C4.02148 104.526 34.1693 134.674 71.3584 134.674Z" fill="#8886C1"/>
<path d="M30.4433 57.3648H26.8413V46.9863H30.7747C32.7093 46.9863 33.8102 47.2215 34.6439 47.7666C35.531 48.3758 36.012 49.3164 36.012 50.5135C36.012 51.9244 35.5203 52.726 34.2377 53.3566L37.1449 57.3541H33.2971L31.0739 53.7842H30.454V57.3541L30.4433 57.3648ZM31.2129 51.6999C32.1 51.6999 32.3566 51.4113 32.3566 50.4387C32.3566 49.5409 32.0787 49.2416 31.2129 49.2416H30.4327V51.6999H31.2129Z" fill="white"/>
<path d="M40.5441 54.3934C40.7151 55.1951 41.2603 55.5371 42.3184 55.5371C43.2804 55.5371 43.9751 55.3768 45.1508 54.8851L46.1769 56.8304C45.0974 57.3434 43.8789 57.5679 42.2543 57.5679C38.9088 57.5679 37.0918 56.1998 37.0918 53.6559C37.0918 51.1121 38.7806 49.8081 41.8267 49.8081C43.3766 49.8081 44.4989 50.1181 45.3326 50.738C46.1449 51.3579 46.6151 52.3519 46.6151 53.4529C46.6151 53.6987 46.6045 53.859 46.5724 54.3827H40.5441V54.3934ZM43.2804 52.6619C43.1521 51.903 42.7887 51.6358 41.955 51.6358C41.1213 51.6358 40.7045 51.9565 40.619 52.6619H43.2804Z" fill="white"/>
<path d="M53.6159 56.6914C52.9425 57.2152 52.2691 57.4183 51.1896 57.4183C48.8168 57.4183 47.4272 56.0074 47.4272 53.6132C47.4272 51.219 48.8061 49.8081 51.1896 49.8081C52.2798 49.8081 52.9425 50.0005 53.5731 50.4922L53.7762 50.0219H56.9185V56.3387C56.9185 57.9206 56.662 58.8505 56.0314 59.5239C55.1015 60.5393 53.68 61.0096 51.5316 61.0096C50.1635 61.0096 48.945 60.892 48.0151 60.6568L48.5709 58.5619C49.4153 58.8398 50.1742 58.9574 51.211 58.9574C52.9639 58.9574 53.6372 58.4336 53.6265 57.0655V56.6914H53.6159ZM51.0613 53.6132C51.0613 54.7355 51.4141 55.2806 52.1409 55.2806C52.9532 55.2806 53.3914 54.7034 53.3914 53.6239C53.3914 52.5443 52.9746 51.9244 52.1409 51.9244C51.4141 51.9244 51.0613 52.4802 51.0613 53.6132Z" fill="white"/>
<path d="M62.4554 47.8307C62.4554 48.7606 61.7286 49.3591 60.6063 49.3591C59.484 49.3591 58.7358 48.7606 58.7358 47.8093C58.7358 46.858 59.4733 46.3022 60.5956 46.3022C61.7179 46.3022 62.4554 46.9008 62.4554 47.8414V47.8307ZM58.8321 50.0218H62.3592V57.3647H58.8321V50.0218Z" fill="white"/>
<path d="M64.3578 55.1523C65.0953 55.4409 65.9825 55.6012 66.891 55.6012C67.7995 55.6012 68.2163 55.4409 68.2163 55.0882C68.2163 54.8317 68.0025 54.682 67.4574 54.5751C64.7853 54.0942 63.7806 53.4315 63.7806 52.1061C63.7806 50.6525 65.106 49.8081 67.372 49.8081C68.708 49.8081 69.9265 50.0219 71.0167 50.4815L70.1402 52.3519C69.3065 51.9565 68.4408 51.7534 67.6712 51.7534C67.265 51.7534 67.0085 51.9137 67.0085 52.1596C67.0085 52.4054 67.1689 52.4802 68.1415 52.6726C70.6533 53.1856 71.5084 53.8056 71.5084 55.1416C71.5084 56.7556 70.0975 57.5572 67.2543 57.5572C65.8862 57.5572 64.4647 57.3969 63.5669 57.1404L64.3685 55.1523H64.3578Z" fill="white"/>
<path d="M71.8076 52.2663V50.0324H73.133L73.3895 47.9375L76.4571 47.6489V50.0324H78.5307V52.2663H76.4571V54.1154C76.4571 55.0346 76.6174 55.2484 77.2801 55.2484C77.5687 55.2484 77.8145 55.2056 78.2528 55.056L78.6161 57.3112C77.6435 57.4823 76.9702 57.5464 76.1258 57.5464C74.5866 57.5464 73.753 57.215 73.3254 56.4455C73.0689 55.9538 72.9941 55.4301 72.9941 53.9123V52.2663H71.8076Z" fill="white"/>
<path d="M82.7312 54.3934C82.9022 55.1951 83.4473 55.5371 84.5055 55.5371C85.4674 55.5371 86.1622 55.3768 87.3379 54.8851L88.364 56.8304C87.2844 57.3434 86.066 57.5679 84.4413 57.5679C81.0959 57.5679 79.2788 56.1998 79.2788 53.6559C79.2788 51.1121 80.9676 49.8081 84.0138 49.8081C85.5636 49.8081 86.6859 50.1181 87.5196 50.738C88.3319 51.3579 88.8022 52.3519 88.8022 53.4529C88.8022 53.6987 88.7915 53.859 88.7595 54.3827H82.7312V54.3934ZM85.4674 52.6619C85.3392 51.903 84.9758 51.6358 84.1421 51.6358C83.3084 51.6358 82.8915 51.9565 82.806 52.6619H85.4674Z" fill="white"/>
<path d="M90.1382 50.0219H93.2806L93.473 50.4922C94.1143 50.0219 94.8411 49.8081 95.771 49.8081C96.081 49.8081 96.3268 49.8402 96.7543 49.8936L96.3054 52.3092C95.7496 52.1168 95.3862 52.0634 94.8838 52.0634C93.9219 52.0634 93.676 52.384 93.676 53.6666V57.3755H90.1489V50.0326L90.1382 50.0219Z" fill="white"/>
<path d="M100.356 52.2663V50.0324H101.682L101.938 47.9375L105.006 47.6489V50.0324H107.079V52.2663H105.006V54.1154C105.006 55.0346 105.166 55.2484 105.829 55.2484C106.117 55.2484 106.363 55.2056 106.802 55.056L107.165 57.3112C106.192 57.4823 105.519 57.5464 104.675 57.5464C103.135 57.5464 102.302 57.215 101.874 56.4455C101.618 55.9538 101.543 55.4301 101.543 53.9123V52.2663H100.356Z" fill="white"/>
<path d="M117.693 53.6985C117.693 56.1889 115.94 57.5784 112.798 57.5784C109.656 57.5784 107.86 56.1996 107.86 53.6451C107.86 51.0905 109.666 49.8186 112.787 49.8186C115.908 49.8186 117.693 51.1974 117.693 53.6985ZM111.494 53.6664C111.494 54.8849 111.911 55.4514 112.787 55.4514C113.664 55.4514 114.08 54.8742 114.08 53.6878C114.08 52.5014 113.664 51.9242 112.787 51.9242C111.911 51.9242 111.494 52.5014 111.494 53.6557V53.6664Z" fill="white"/>
<path d="M13.7056 68.3096H17.6175L19.5094 74.8936L21.4012 68.3096H25.3132L20.9523 78.7414H18.0772L13.7163 68.3096H13.7056Z" fill="white"/>
<path d="M34.8577 75.022C34.8577 77.5124 33.1048 78.9019 29.9625 78.9019C26.8201 78.9019 25.0244 77.5231 25.0244 74.9685C25.0244 72.414 26.8307 71.1421 29.9518 71.1421C33.0728 71.1421 34.8577 72.5209 34.8577 75.022ZM28.6584 74.9899C28.6584 76.2084 29.0753 76.7749 29.9518 76.7749C30.8282 76.7749 31.245 76.1977 31.245 75.0113C31.245 73.8249 30.8282 73.2477 29.9518 73.2477C29.0753 73.2477 28.6584 73.8249 28.6584 74.9792V74.9899Z" fill="white"/>
<path d="M35.4673 73.5791V71.3452H36.7926L37.0492 69.2503L40.1168 68.9617V71.3452H42.1903V73.5791H40.1168V75.4282C40.1168 76.3474 40.2771 76.5611 40.9397 76.5611C41.2283 76.5611 41.4742 76.5184 41.9124 76.3687L42.2758 78.624C41.3031 78.795 40.6298 78.8591 39.7854 78.8591C38.2463 78.8591 37.4126 78.5278 36.9851 77.7582C36.7286 77.2666 36.6537 76.7428 36.6537 75.2251V73.5791H35.4673Z" fill="white"/>
<path d="M46.4011 75.7167C46.5721 76.5183 47.1172 76.8603 48.1754 76.8603C49.1373 76.8603 49.8321 76.7 51.0078 76.2083L52.0339 78.1536C50.9543 78.6667 49.7359 78.8911 48.1112 78.8911C44.7658 78.8911 42.9487 77.523 42.9487 74.9792C42.9487 72.4353 44.6375 71.1313 47.6837 71.1313C49.2335 71.1313 50.3558 71.4413 51.1895 72.0612C52.0018 72.6812 52.4721 73.6752 52.4721 74.7761C52.4721 75.0219 52.4614 75.1823 52.4293 75.706H46.4011V75.7167ZM49.1374 73.9852C49.0091 73.2263 48.6456 72.9591 47.8119 72.9591C46.9782 72.9591 46.5614 73.2797 46.4759 73.9852H49.1374Z" fill="white"/>
<path d="M57.4315 67.5508H60.9588V71.6658C61.5252 71.3024 62.22 71.1421 63.2354 71.1421C65.6937 71.1421 67.1046 72.553 67.1046 75.022C67.1046 77.491 65.683 78.9019 63.1819 78.9019C62.081 78.9019 61.2901 78.6667 60.6701 78.143L60.3602 78.6774H57.4209V67.5508H57.4315ZM60.9588 75.0006C60.9588 76.1656 61.4291 76.7749 62.3055 76.7749C63.0858 76.7749 63.4705 76.1977 63.4705 75.0113C63.4705 73.8249 63.0964 73.2477 62.3055 73.2477C61.4291 73.2477 60.9588 73.8569 60.9588 74.9899V75.0006Z" fill="white"/>
<path d="M67.0409 71.3452H70.7177L71.9576 75.8023L73.3684 71.3452H76.9704L73.4005 78.934C72.7378 80.3769 72.4599 80.8472 72.0538 81.2747C71.359 82.0015 70.3543 82.3329 68.9007 82.3329C68.0777 82.3329 67.3615 82.2474 66.7202 82.0443L67.276 80.0242C67.6394 80.1845 68.1204 80.2807 68.5694 80.2807C69.0931 80.2807 69.4992 80.0242 69.8626 79.4577C69.9802 79.2546 69.9909 79.2226 70.226 78.7309L70.2688 78.6561L67.0623 71.3452H67.0409Z" fill="white"/>
<path d="M85.0508 78.688H81.4595V68.3096H85.2217C87.167 68.3096 88.3428 68.5554 89.2299 69.1326C90.117 69.7311 90.6408 70.7572 90.6408 71.9223C90.6408 73.2049 90.0423 74.2737 89.0162 74.8723C88.2466 75.3105 87.1671 75.5242 85.7883 75.5242H85.0508V78.6773V78.688ZM85.66 73.2797C86.6754 73.2797 86.9961 72.959 86.9961 71.9436C86.9961 70.9282 86.6754 70.5648 85.66 70.5648H85.0508V73.2797H85.66Z" fill="white"/>
<path d="M97.3529 78.1429C96.7329 78.6667 95.9847 78.9018 94.9266 78.9018C92.5003 78.9018 91.1001 77.4909 91.1001 75.0219C91.1001 72.5529 92.479 71.1313 94.8304 71.1313C95.9206 71.1313 96.5726 71.3237 97.2566 71.8154L97.3315 71.3451H100.581V78.688H97.6415L97.3315 78.1536L97.3529 78.1429ZM94.7342 75.0219C94.7342 76.1976 95.0869 76.7855 95.8137 76.7855C96.626 76.7855 97.0642 76.1763 97.0642 75.0433C97.0642 73.9103 96.6474 73.2583 95.8137 73.2583C95.0869 73.2583 94.7342 73.8355 94.7342 75.0326V75.0219Z" fill="white"/>
<path d="M106.043 82.1725H102.516V71.3451H105.658L105.85 71.8154C106.524 71.3237 107.229 71.1313 108.341 71.1313C110.799 71.1313 112.21 72.5529 112.21 75.0219C112.21 77.4909 110.788 78.9018 108.33 78.9018C107.304 78.9018 106.673 78.7094 106.064 78.2178V82.1725H106.043ZM106.043 74.9899C106.043 76.1656 106.513 76.7748 107.39 76.7748C108.17 76.7748 108.555 76.1976 108.555 75.0112C108.555 73.8248 108.18 73.237 107.39 73.237C106.513 73.237 106.043 73.8462 106.043 74.9792V74.9899Z" fill="white"/>
<path d="M116.485 75.7167C116.656 76.5183 117.201 76.8603 118.259 76.8603C119.221 76.8603 119.916 76.7 121.092 76.2083L122.118 78.1536C121.038 78.6667 119.82 78.8911 118.195 78.8911C114.85 78.8911 113.033 77.523 113.033 74.9792C113.033 72.4353 114.721 71.1313 117.768 71.1313C119.317 71.1313 120.44 71.4413 121.273 72.0612C122.086 72.6812 122.556 73.6752 122.556 74.7761C122.556 75.0219 122.545 75.1823 122.513 75.706H116.485V75.7167ZM119.221 73.9852C119.093 73.2263 118.73 72.9591 117.896 72.9591C117.062 72.9591 116.645 73.2797 116.56 73.9852H119.221Z" fill="white"/>
<path d="M123.882 71.3451H127.024L127.217 71.8154C127.858 71.3451 128.585 71.1313 129.515 71.1313C129.825 71.1313 130.07 71.1634 130.498 71.2168L130.049 73.6324C129.493 73.44 129.13 73.3866 128.627 73.3866C127.666 73.3866 127.42 73.7073 127.42 74.9899V78.6987H123.893V71.3558L123.882 71.3451Z" fill="white"/>
<path d="M34.7082 103.656C33.8532 102.652 33.4577 102.128 33.0087 101.38C32.0254 99.7123 31.5444 97.9914 31.5444 96.0568C31.5444 94.1222 32.0254 92.4228 33.0087 90.7554C33.4577 89.9965 33.8532 89.4728 34.7082 88.4788L36.8779 89.5583C35.7343 91.4288 35.1785 93.5451 35.1785 96.0675C35.1785 98.59 35.7343 100.717 36.8779 102.577L34.7082 103.667V103.656Z" fill="white"/>
<path d="M39.1333 89.6331H47.3848V91.9738H42.7247V93.5129H46.7541V95.8537H42.7247V97.6707H47.6413V100.011H39.144V89.6331H39.1333Z" fill="white"/>
<path d="M49.4262 97.799C50.1637 98.0876 51.0508 98.2479 51.9593 98.2479C52.8678 98.2479 53.2848 98.0876 53.2848 97.7349C53.2848 97.4784 53.071 97.3287 52.5259 97.2219C49.8537 96.7409 48.849 96.0782 48.849 94.7528C48.849 93.2992 50.1744 92.4548 52.4403 92.4548C53.7764 92.4548 54.9949 92.6686 56.0851 93.1282L55.2087 94.9987C54.375 94.6032 53.5092 94.4001 52.7396 94.4001C52.3335 94.4001 52.077 94.5604 52.077 94.8063C52.077 95.0521 52.2373 95.1269 53.2099 95.3193C55.7217 95.8324 56.5767 96.4523 56.5767 97.7883C56.5767 99.4023 55.1659 100.204 52.3228 100.204C50.9547 100.204 49.5331 100.044 48.6353 99.7871L49.4369 97.799H49.4262Z" fill="white"/>
<path d="M61.2689 103.496H57.7417V92.6686H60.8841L61.0765 93.1389C61.7498 92.6472 62.4553 92.4548 63.5669 92.4548C66.0252 92.4548 67.4361 93.8764 67.4361 96.3454C67.4361 98.8144 66.0145 100.225 63.5562 100.225C62.5301 100.225 61.8995 100.033 61.2903 99.5412V103.496H61.2689ZM61.2689 96.3133C61.2689 97.4891 61.7392 98.0983 62.6156 98.0983C63.3959 98.0983 63.7806 97.5211 63.7806 96.3347C63.7806 95.1483 63.4066 94.5605 62.6156 94.5605C61.7392 94.5605 61.2689 95.1697 61.2689 96.3027V96.3133Z" fill="white"/>
<path d="M74.512 99.4664C73.8921 99.9902 73.1439 100.225 72.0857 100.225C69.6595 100.225 68.2593 98.8144 68.2593 96.3454C68.2593 93.8764 69.6381 92.4548 71.9896 92.4548C73.0798 92.4548 73.7318 92.6472 74.4158 93.1389L74.4906 92.6686H77.7399V100.012H74.8006L74.4906 99.4771L74.512 99.4664ZM71.8934 96.3454C71.8934 97.5211 72.2461 98.109 72.9729 98.109C73.7852 98.109 74.2234 97.4998 74.2234 96.3668C74.2234 95.2338 73.8066 94.5818 72.9729 94.5818C72.2461 94.5818 71.8934 95.159 71.8934 96.3561V96.3454Z" fill="white"/>
<path d="M79.6743 92.6685H82.8166L83.0091 93.1388C83.7038 92.6578 84.4627 92.4547 85.585 92.4547C86.9745 92.4547 87.9044 92.8716 88.3853 93.6946C88.6632 94.2076 88.7915 94.9772 88.7915 96.1743V100.011H85.2643V96.2491C85.2643 95.0841 85.0292 94.71 84.3451 94.71C83.4687 94.71 83.2122 95.0734 83.2122 96.3132V100.022H79.685V92.6792L79.6743 92.6685ZM80.3156 91.7279C80.4011 90.6804 80.4438 90.4667 80.6255 90.1033C80.9462 89.4192 81.4592 89.1306 82.3143 89.1306C82.9663 89.1306 83.6076 89.2803 84.5375 89.6437C85.1361 89.8788 85.3819 89.9536 85.6277 89.9536C86.0018 89.9536 86.1515 89.7933 86.2477 89.2589H88.1074C88.0754 90.0178 88.0326 90.3812 87.8936 90.7232C87.6157 91.45 86.9638 91.8562 86.0446 91.8562C85.4246 91.8562 84.8261 91.7065 83.8214 91.3217C83.2656 91.108 83.0412 91.0438 82.806 91.0438C82.4319 91.0438 82.293 91.1935 82.1861 91.7386H80.3263L80.3156 91.7279Z" fill="white"/>
<path d="M99.9505 96.3455C99.9505 98.8359 98.1976 100.225 95.0552 100.225C91.9128 100.225 90.1172 98.8465 90.1172 96.292C90.1172 93.7375 91.9235 92.4656 95.0445 92.4656C98.1655 92.4656 99.9505 93.8444 99.9505 96.3455ZM93.7513 96.3134C93.7513 97.5319 94.1681 98.0984 95.0445 98.0984C95.921 98.0984 96.3378 97.5212 96.3378 96.3348C96.3378 95.1484 95.921 94.5712 95.0445 94.5712C94.1681 94.5712 93.7513 95.1484 93.7513 96.3027V96.3134Z" fill="white"/>
<path d="M101.34 88.874H104.867V100.001H101.34V88.874Z" fill="white"/>
<path d="M106.93 102.566C108.073 100.706 108.629 98.5792 108.629 96.0568C108.629 93.5343 108.073 91.418 106.93 89.5475L109.099 88.468C109.954 89.4727 110.35 89.9965 110.799 90.7447C111.782 92.412 112.263 94.1329 112.263 96.0461C112.263 97.9593 111.782 99.6908 110.799 101.369C110.35 102.106 109.954 102.652 109.099 103.646L106.93 102.555V102.566Z" fill="white"/>
<path d="M70.6848 32.6317L67.6707 34.2136C66.6126 34.7694 65.3727 33.8715 65.5758 32.6958L66.153 29.3397C66.2385 28.8694 66.0781 28.3884 65.7361 28.0571L63.2992 25.6842C62.4441 24.8505 62.9144 23.3969 64.1008 23.2259L67.4676 22.7342C67.9379 22.6701 68.3441 22.3708 68.5579 21.9433L70.0649 18.8971C70.5993 17.8282 72.1278 17.8282 72.6515 18.8971L74.1586 21.9433C74.3723 22.3708 74.7785 22.6701 75.2488 22.7342L78.6156 23.2259C79.802 23.3969 80.2723 24.8505 79.4173 25.6842L76.9803 28.0571C76.6383 28.3884 76.4886 28.8694 76.5635 29.3397L77.1406 32.6958C77.3437 33.8715 76.1039 34.7801 75.0457 34.2136L72.0316 32.6317C71.6147 32.4072 71.1124 32.4072 70.6848 32.6317Z" fill="#272660"/>
</g>
<defs>
<filter id="filter0_d_284_542" x="0.0214844" y="0" width="142.674" height="142.674" filterUnits="userSpaceOnUse" color-interpolation-filters="sRGB">
<feFlood flood-opacity="0" result="BackgroundImageFix"/>
<feColorMatrix in="SourceAlpha" type="matrix" values="0 0 0 0 0 0 0 0 0 0 0 0 0 0 0 0 0 0 127 0" result="hardAlpha"/>
<feOffset dy="4"/>
<feGaussianBlur stdDeviation="2"/>
<feComposite in2="hardAlpha" operator="out"/>
<feColorMatrix type="matrix" values="0 0 0 0 0 0 0 0 0 0 0 0 0 0 0 0 0 0 0.25 0"/>
<feBlend mode="normal" in2="BackgroundImageFix" result="effect1_dropShadow_284_542"/>
<feBlend mode="normal" in="SourceGraphic" in2="effect1_dropShadow_284_542" result="shape"/>
</filter>
</defs>
</svg>
