<svg width="14" height="17" viewBox="0 0 14 17" fill="none" xmlns="http://www.w3.org/2000/svg">
<path fill-rule="evenodd" clip-rule="evenodd" d="M7.969 1.81787C7.969 1.56094 7.86693 1.31454 7.68526 1.13286C7.50358 0.951185 7.25718 0.849121 7.00025 0.849121C6.74332 0.849121 6.49691 0.951185 6.31524 1.13286C6.13356 1.31454 6.0315 1.56094 6.0315 1.81787V13.0418L1.87362 8.882C1.69172 8.70009 1.445 8.5979 1.18775 8.5979C0.930495 8.5979 0.683778 8.70009 0.501873 8.882C0.319968 9.0639 0.217773 9.31062 0.217773 9.56787C0.217773 9.82512 0.319968 10.0718 0.501873 10.2537L6.31437 16.0662C6.40436 16.1565 6.51126 16.228 6.62896 16.2769C6.74665 16.3257 6.87282 16.3509 7.00025 16.3509C7.12767 16.3509 7.25384 16.3257 7.37154 16.2769C7.48923 16.228 7.59613 16.1565 7.68612 16.0662L13.4986 10.2537C13.6805 10.0718 13.7827 9.82512 13.7827 9.56787C13.7827 9.31062 13.6805 9.0639 13.4986 8.882C13.3167 8.70009 13.07 8.5979 12.8127 8.5979C12.5555 8.5979 12.3088 8.70009 12.1269 8.882L7.969 13.0418V1.81787Z" fill="white"/>
</svg>
