<svg xmlns="http://www.w3.org/2000/svg" viewBox="0 0 206.74 45.13"><defs><style>.cls-1{fill:#fff;}</style></defs><g id="Layer_2" data-name="Layer 2"><g id="Layer_1-2" data-name="Layer 1"><path class="cls-1" d="M8.74,32.71a9.05,9.05,0,0,0,5.44-1.86,23.14,23.14,0,0,0,4.51-4.63A59.35,59.35,0,0,0,22.75,20c1.3-2.25,2.66-4.44,4.06-6.57a42.9,42.9,0,0,1,4.52-5.74A15.18,15.18,0,0,1,36.72,4a19.9,19.9,0,0,0-5.31-.05,22.17,22.17,0,0,0-5.52,1.33,13.5,13.5,0,0,0-4.41,2.68,6.07,6.07,0,0,0-2,4,1.83,1.83,0,0,0,.33,1.27,1.92,1.92,0,0,0,1.3.68,3.48,3.48,0,0,0,1.65-.27,6.54,6.54,0,0,0,2.46-2.11,4.77,4.77,0,0,1-.38,3.19,10,10,0,0,1-2.25,3.11,12.1,12.1,0,0,1-3.46,2.33,9.51,9.51,0,0,1-4,.89,9.15,9.15,0,0,1-3.81-.24,7.53,7.53,0,0,1-2.87-1.54,5.86,5.86,0,0,1-1.68-2.47,6,6,0,0,1-.24-3A10.9,10.9,0,0,1,9.55,8,22,22,0,0,1,15.72,3.6,33.63,33.63,0,0,1,23.84.81,36.45,36.45,0,0,1,32.71,0a35.1,35.1,0,0,1,7.85,1.17,18,18,0,0,1,5.33,2.35,7.94,7.94,0,0,1,2.84,3.22,5.86,5.86,0,0,1,.38,3.76,7.77,7.77,0,0,1-2.68,4.09,13.8,13.8,0,0,1-5.65,2.84A17.06,17.06,0,0,1,43.51,20a16.58,16.58,0,0,1,2.06,3.06,13.47,13.47,0,0,1,1.21,3.35A9.86,9.86,0,0,1,47,29.84a6.83,6.83,0,0,1-.65,2.76,17.9,17.9,0,0,1-2.84,4.93,19.24,19.24,0,0,1-4.25,3.84A21.87,21.87,0,0,1,33.77,44a24.28,24.28,0,0,1-6.31,1.14,10.53,10.53,0,0,1-4.95-.84,11.3,11.3,0,0,1-3.82-2.63,15.65,15.65,0,0,1-5.52,2.79,15.21,15.21,0,0,1-6.82.14,7.45,7.45,0,0,1-4.51-2.36A7.41,7.41,0,0,1,.05,38.1a10.21,10.21,0,0,1,.7-4.76,11.42,11.42,0,0,1,3-4.36,5.27,5.27,0,0,0,1.92,3.08A5.48,5.48,0,0,0,8.74,32.71ZM32.33,18.43l-3.6,8.36a59.39,59.39,0,0,1-4.08,7.82,9,9,0,0,0,4.44-.49A12.93,12.93,0,0,0,33,31.85a12.49,12.49,0,0,0,2.76-3.36,8.44,8.44,0,0,0,1.13-3.79,6.07,6.07,0,0,0-1-3.57A7.29,7.29,0,0,0,32.33,18.43ZM39.91,5a24.92,24.92,0,0,0-3,4.2c-.94,1.6-1.84,3.33-2.71,5.17a9.32,9.32,0,0,0,3-.44,8.87,8.87,0,0,0,2.16-1,7.39,7.39,0,0,0,1.44-1.27,8.36,8.36,0,0,0,.81-1.14,3.9,3.9,0,0,0,.35-3.25A4.75,4.75,0,0,0,39.91,5Z"/><path class="cls-1" d="M91.22,22.86c0-1.56.07-3,.72-3.74a3.92,3.92,0,0,0-3.51,3.8c0,3.31,3.44,3.67,3.68,3.7-.76-.72-.89-2.25-.89-3.76Z"/><path class="cls-1" d="M75,20.07c-2.84-1.15-4.5-2.27-4.5-4.55a3.45,3.45,0,0,1,1.1-2.66,5.41,5.41,0,0,0-3.25,5.21c0,3,2,4.14,4.69,5.26,2.46,1,4.67,2.19,4.67,5a4,4,0,0,1-1.18,2.94,6,6,0,0,0,3.17-5.69c0-3.23-2-4.38-4.7-5.54Z"/><path class="cls-1" d="M85.52,18.88,82,19a2.5,2.5,0,0,1,.45,1.62v9.68a1.44,1.44,0,0,1-.28.95h3.63a1.52,1.52,0,0,1-.25-.95V18.88Z"/><path class="cls-1" d="M104.54,18.92l-3.51.14a1.83,1.83,0,0,1,.44,1.38v9.88a1.51,1.51,0,0,1-.26.95h3.61a1.58,1.58,0,0,1-.25-.95l0-11.4Z"/><path class="cls-1" d="M117.38,27.85A3,3,0,0,1,118.61,25a7.81,7.81,0,0,0-3.17.93,3,3,0,0,0-1.33,2.46,2.87,2.87,0,0,0,3.09,3,3.47,3.47,0,0,0,2.43-.95,1.64,1.64,0,0,1-.38,0c-.44,0-1.87-.19-1.87-2.7Z"/><path class="cls-1" d="M131,12.51l-3.5.14a1.85,1.85,0,0,1,.4,1.35V30.32a1.45,1.45,0,0,1-.26.95h3.63a1.45,1.45,0,0,1-.27-.95V12.51Z"/><path class="cls-1" d="M158.7,22.22c0-2.13-.85-3.17-2.61-3.17a4,4,0,0,0-2.63,1.06,1.64,1.64,0,0,1,.38,0c.53,0,1.76.21,1.76,2.18v8.07a1.66,1.66,0,0,1-.25.95H159a1.51,1.51,0,0,1-.26-.95v-8.1Z"/><path class="cls-1" d="M151.5,12.51l-3.5.14a1.85,1.85,0,0,1,.4,1.35V30.32a1.58,1.58,0,0,1-.25.95h3.61a1.58,1.58,0,0,1-.26-.95V12.51Z"/><path class="cls-1" d="M167.11,19.08l.07.08c1,1.1.93,3.89.79,5.46v.08h3.12a6.22,6.22,0,0,0-1.49-4.36,4.23,4.23,0,0,0-2.49-1.26Z"/><path class="cls-1" d="M176.07,25.22c0-3.21.19-5.26,1.06-6.12-2.68.55-4.35,2.84-4.35,6.14s1.69,5.67,4.49,6.15c-1-.87-1.2-3-1.2-6.17Z"/><path class="cls-1" d="M179.35,19.06c1,.87,1.2,3,1.2,6.16s-.2,5.28-1.09,6.15c2.7-.53,4.39-2.84,4.39-6.18s-1.7-5.66-4.5-6.13Z"/><path class="cls-1" d="M189.32,18.92l-3.5.14a1.78,1.78,0,0,1,.43,1.35v9.91a1.52,1.52,0,0,1-.25.95h3.68a1.35,1.35,0,0,1-.33-1l0-11.34Z"/><path class="cls-1" d="M199.75,19.22l.1-.14h-4.3a4.15,4.15,0,0,1,1,1.68h0l4.69,11.53,1.42-3.93-2.84-7.62a1.8,1.8,0,0,1-.06-1.52Z"/><path class="cls-1" d="M97.84,15.78a1.64,1.64,0,1,0,1.64,1.64,1.63,1.63,0,0,0-1.64-1.64Z"/><polygon class="cls-1" points="203.22 19.08 204.75 23.98 206.74 19.1 203.22 19.08 203.22 19.08"/><path class="cls-1" d="M83.86,16.13a1.64,1.64,0,1,0-1.64-1.64,1.64,1.64,0,0,0,1.64,1.64Z"/><path class="cls-1" d="M192.36,19.17A1.64,1.64,0,1,0,194,20.81a1.64,1.64,0,0,0-1.64-1.64Z"/><path class="cls-1" d="M198,33.34A1.64,1.64,0,1,0,199.6,35,1.64,1.64,0,0,0,198,33.34Z"/><path class="cls-1" d="M143.89,12.86h-3.44V30.21a1.66,1.66,0,0,1-.28,1.06h4a1.72,1.72,0,0,1-.29-1.06V12.86Z"/><path class="cls-1" d="M95.06,22.88c0,1.57-.08,3-.73,3.74a3.92,3.92,0,0,0,3.52-3.79c0-3.32-3.44-3.68-3.69-3.71.77.72.9,2.26.9,3.76Z"/><path class="cls-1" d="M94.58,28.82H92.07c-3.14,0-2.31-1.85-2.31-1.85A2.27,2.27,0,0,0,88.27,29c0,2.1,2.13,2.18,2.47,2.18h3.12c.75,0,3.06,0,3.06,2.12A2.79,2.79,0,0,1,96.39,35a3.8,3.8,0,0,0,2-3.21c0-2-1.26-3-3.86-3Z"/><path class="cls-1" d="M116.53,22.62A1.64,1.64,0,1,0,114.89,21a1.63,1.63,0,0,0,1.64,1.63Z"/><path class="cls-1" d="M124.67,30.78a1.87,1.87,0,0,1-.56-1.6V23c0-2.66-1.19-3.83-4.06-3.94.68.43,1,1.32,1,2.69v7.5a2.16,2.16,0,0,0,2.45,2.19,2.89,2.89,0,0,0,1.65-.45,1,1,0,0,1-.5-.18Z"/><path class="cls-1" d="M164,25.22s0-5,1.12-6.13c-2.65.54-4.36,2.94-4.36,6.32,0,7.1,6.5,6.28,7.54,5.7-.14,0-4.3.73-4.3-5.89Z"/><path class="cls-1" d="M111.71,22.22c0-2.84-1.47-3.17-2.58-3.17a4,4,0,0,0-2.64,1.07c.14,0,2.13-.49,2.13,2.13v8.07a1.58,1.58,0,0,1-.26.95H112a1.51,1.51,0,0,1-.26-.95v-8.1Z"/><polygon class="cls-1" points="74.73 12.86 78.65 12.86 78.65 16.82 74.73 12.86 74.73 12.86"/><polygon class="cls-1" points="138.8 12.86 134.88 12.86 134.88 16.77 138.8 12.86 138.8 12.86"/><polygon class="cls-1" points="73.18 31.27 68.54 31.27 68.54 26.62 73.18 31.27 73.18 31.27"/><polygon class="cls-1" points="91.54 34.98 88.43 34.98 88.43 31.86 91.54 34.98 91.54 34.98"/><path class="cls-1" d="M57.63,22.48a2.12,2.12,0,0,1,.62,1.66V27H56.9v-.62a1.6,1.6,0,0,1-1.51.69,2.33,2.33,0,0,1-1-.19,1.57,1.57,0,0,1-.65-.53,1.48,1.48,0,0,1-.22-.78,1.32,1.32,0,0,1,.52-1.09,2.71,2.71,0,0,1,1.61-.39h1.15a.93.93,0,0,0-.29-.73,1.26,1.26,0,0,0-.86-.25,2.64,2.64,0,0,0-.78.12,2.35,2.35,0,0,0-.65.34l-.51-1a3,3,0,0,1,1-.45,4.58,4.58,0,0,1,1.17-.15A2.6,2.6,0,0,1,57.63,22.48ZM56.4,25.91a1,1,0,0,0,.41-.51v-.5h-1c-.59,0-.88.19-.88.58a.5.5,0,0,0,.21.43,1,1,0,0,0,.6.17A1.29,1.29,0,0,0,56.4,25.91Z"/><path class="cls-1" d="M62.75,26.73a1.66,1.66,0,0,1-.52.24,2.81,2.81,0,0,1-.65.07,1.92,1.92,0,0,1-1.37-.45,1.69,1.69,0,0,1-.49-1.32v-2H59V22.12h.76V20.91h1.44v1.21H62.4v1.11H61.16v2a.65.65,0,0,0,.16.48.62.62,0,0,0,.46.17,1,1,0,0,0,.58-.18Z"/></g></g></svg>