<svg xmlns="http://www.w3.org/2000/svg" xmlns:xlink="http://www.w3.org/1999/xlink" viewBox="0 0 265.06 219.82"><defs><style>.cls-1{fill:none;}.cls-2{fill:#282561;}.cls-3{clip-path:url(#clip-path);}.cls-4{fill:#f59e37;}.cls-5{fill:#f59d37;}.cls-6{fill:#f59c39;}.cls-7{fill:#f59b39;}.cls-8{fill:#f59b3a;}.cls-9{fill:#f59a3a;}.cls-10{fill:#f5993a;}.cls-11{fill:#f4993b;}.cls-12{fill:#f4983c;}.cls-13{fill:#f4973c;}.cls-14{fill:#f4963d;}.cls-15{fill:#f4953d;}.cls-16{fill:#f4943d;}.cls-17{fill:#f3933d;}.cls-18{fill:#f3923d;}.cls-19{fill:#f3913f;}.cls-20{fill:#f3903f;}.cls-21{clip-path:url(#clip-path-2);}.cls-22{fill:#f69f37;}.cls-23{fill:#f69e36;}.cls-24{fill:#f38f40;}.cls-25{fill:#f38e40;}.cls-26{fill:#f38d40;}.cls-27{fill:#f28d40;}.cls-28{fill:#f28c40;}.cls-29{fill:#f28a40;}.cls-30{fill:#f2893f;}.cls-31{fill:#f2883f;}.cls-32{fill:#f28740;}.cls-33{fill:#f18640;}.cls-34{fill:#f08540;}.cls-35{fill:#f0853f;}.cls-36{fill:#f0843f;}.cls-37{fill:#f0833f;}.cls-38{fill:#f0823f;}.cls-39{fill:#f0813f;}.cls-40{fill:#ef813e;}.cls-41{fill:#ef7f3e;}.cls-42{fill:#ef7e3e;}.cls-43{fill:#ef7d3d;}.cls-44{fill:#ef7c3d;}.cls-45{fill:#ef7b3d;}.cls-46{fill:#ee7a3c;}.cls-47{fill:#ee793c;}.cls-48{fill:#ee783c;}.cls-49{fill:#ee773b;}.cls-50{fill:#ee763b;}.cls-51{fill:#ef753b;}.cls-52{fill:#ef743c;}.cls-53{fill:#ef733c;}.cls-54{fill:#ee733c;}.cls-55{fill:#ee723c;}.cls-56{fill:#ee713c;}.cls-57{fill:#ee703c;}.cls-58{fill:#ee6f3c;}.cls-59{fill:#ee6e3c;}.cls-60{fill:#ee6d3c;}.cls-61{fill:#ed6c3c;}.cls-62{fill:#ed6a3c;}.cls-63{fill:#ed693b;}.cls-64{fill:#ed673c;}.cls-65{fill:#ec663c;}.cls-66{fill:#ec653b;}.cls-67{fill:#ec643b;}.cls-68{fill:#ec633a;}.cls-69{fill:#ec623a;}.cls-70{fill:#ec613b;}.cls-71{fill:#ec603b;}.cls-72{fill:#ec5f3b;}.cls-73{fill:#ec5e3b;}.cls-74{fill:#ed5d3a;}.cls-75{fill:#ed5c3a;}.cls-76{fill:#ee5b3a;}.cls-77{fill:#ee5a3a;}.cls-78{fill:#ee593a;}.cls-79{fill:#ee5839;}.cls-80{fill:#ee5739;}.cls-81{fill:#ed5739;}.cls-82{fill:#ed563a;}.cls-83{fill:#ed553a;}.cls-84{fill:#ed543a;}.cls-85{fill:#ee533a;}.cls-86{fill:#ee5239;}.cls-87{fill:#ee5139;}.cls-88{fill:#ef5039;}.cls-89{fill:#ef4e39;}.cls-90{fill:#ef4d39;}.cls-91{fill:#ef4c39;}.cls-92{fill:#ef4b38;}.cls-93{fill:#ef4a38;}.cls-94{fill:#ef4937;}.cls-95{fill:#ef4837;}.cls-96{fill:#ef4737;}.cls-97{fill:#ef4637;}.cls-98{fill:#ef4437;}.cls-99{fill:#ef4336;}.cls-100{fill:#ef4337;}.cls-101{fill:#ef4137;}.cls-102{fill:#fff;}.cls-103{clip-path:url(#clip-path-3);}.cls-104{fill:#fdc853;}.cls-105{fill:#fdc852;}.cls-106{fill:#fdc850;}.cls-107{fill:#fdc84f;}.cls-108{fill:#fdc84d;}.cls-109{fill:#fdc84b;}.cls-110{fill:#fdc84a;}.cls-111{fill:#fdc849;}.cls-112{fill:#fdc848;}.cls-113{fill:#fdc846;}.cls-114{fill:#fdc845;}.cls-115{fill:#fdc844;}.cls-116{fill:#fec842;}.cls-117{fill:#fec841;}.cls-118{fill:#fec840;}.cls-119{fill:#fec83f;}.cls-120{fill:#fec83e;}.cls-121{fill:#fec83d;}.cls-122{fill:#fdc83d;}.cls-123{fill:#fec83c;}.cls-124{fill:#fec83a;}.cls-125{fill:#fec839;}.cls-126{fill:#fec837;}.cls-127{fill:#fec836;}.cls-128{fill:#fec835;}.cls-129{fill:#fec834;}.cls-130{fill:#fec832;}.cls-131{fill:#fec831;}.cls-132{fill:#fec830;}.cls-133{fill:#fec82f;}.cls-134{fill:#fec82c;}.cls-135{fill:#fec82b;}.cls-136{fill:#fec829;}.cls-137{fill:#fec828;}.cls-138{fill:#fec827;}.cls-139{fill:#fec826;}.cls-140{fill:#fec824;}.cls-141{fill:#fec822;}.cls-142{fill:#fec81f;}.cls-143{fill:#fec81d;}.cls-144{fill:#fec81c;}.cls-145{fill:#fdc81a;}.cls-146{fill:#fdc818;}.cls-147{fill:#fdc817;}.cls-148{fill:#fdc816;}.cls-149{fill:#fdc815;}.cls-150{fill:#fdc814;}.cls-151{fill:#fdc813;}.cls-152{fill:#fdc812;}.cls-153{fill:#fdc714;}.cls-154{fill:#fdc615;}.cls-155{fill:#fcc416;}.cls-156{fill:#fcc317;}.cls-157{fill:#fac218;}.cls-158{fill:#fac219;}.cls-159{fill:#fac01a;}.cls-160{fill:#fabf1b;}.cls-161{fill:#fabe1b;}.cls-162{fill:#fabe1c;}.cls-163{fill:#fabd1c;}.cls-164{fill:#f9bc1b;}.cls-165{fill:#f9bb1b;}.cls-166{fill:#f9bb1c;}.cls-167{fill:#f9ba1d;}.cls-168{fill:#f9b91f;}.cls-169{fill:#f9b820;}.cls-170{fill:#f9b821;}.cls-171{fill:#f8b720;}.cls-172{fill:#f9b620;}.cls-173{fill:#f9b520;}.cls-174{fill:#f9b521;}.cls-175{fill:#f9b421;}.cls-176{fill:#f9b321;}.cls-177{fill:#f8b223;}.cls-178{fill:#f8b324;}.cls-179{fill:#f8b226;}.cls-180{fill:#f8b127;}.cls-181{fill:#f8b028;}.cls-182{fill:#f8af28;}.cls-183{fill:#f7ae29;}.cls-184{fill:#f7ae2b;}.cls-185{fill:#f7ac2c;}.cls-186{fill:#f7ac2d;}.cls-187{fill:#f7ab2e;}.cls-188{fill:#f7aa2f;}.cls-189{fill:#f6a92e;}.cls-190{fill:#f7a82f;}.cls-191{fill:#f7a730;}.cls-192{fill:#f7a631;}.cls-193{fill:#f7a633;}.cls-194{fill:#f7a533;}.cls-195{fill:#f8a435;}.cls-196{fill:#f6a335;}.cls-197{fill:#f6a336;}.cls-198{fill:#f6a236;}.cls-199{fill:#f6a137;}.cls-200{fill:#f6a036;}.cls-201{fill:#f6a037;}.cls-202{clip-path:url(#clip-path-4);}.cls-203{fill:#fcc966;}.cls-204{fill:#fcc965;}.cls-205{fill:#fec964;}.cls-206{fill:#fec963;}.cls-207{fill:#fec962;}.cls-208{fill:#fec961;}.cls-209{fill:#fdc960;}.cls-210{fill:#fdc85f;}.cls-211{fill:#fdc85d;}.cls-212{fill:#fdc85c;}.cls-213{fill:#fdc85b;}.cls-214{fill:#fdc859;}.cls-215{fill:#fdc858;}.cls-216{fill:#fdc857;}.cls-217{fill:#fdc856;}.cls-218{fill:#fdc855;}.cls-219{fill:#fdc854;}.cls-220{fill:#fbb042;}.cls-221{fill:#231f20;}.cls-222{clip-path:url(#clip-path-5);}.cls-223{fill:#f6a8be;}.cls-224{fill:#ef4239;}</style><clipPath id="clip-path" transform="translate(10.78 8.61)"><path class="cls-1" d="M117.29,48.56a11.61,11.61,0,0,1,3.28.83c.38.26-.32,1.87-.09,2.24s-1-.51-.87-.07a3.5,3.5,0,0,1,.07,1.13,2.9,2.9,0,0,1-.75,1.83c-.43.45-.88.86-1.34,1.26s.34,2.76,0,3.25-1.7-.75-1.61.09a2.35,2.35,0,0,1-1.41-.38,4.53,4.53,0,0,1-1.2-1.12,5.63,5.63,0,0,1-.83-1.62,4.49,4.49,0,0,1-.19-1.9,6,6,0,0,1,1.45-3.61A5.85,5.85,0,0,1,117.29,48.56Z"/></clipPath><clipPath id="clip-path-2" transform="translate(10.78 8.61)"><path class="cls-1" d="M9.67,65l6.72.16s4.31-2.25,5.88-9.9l-3.46.05S9,56.77,7.11,51.92c0,0-4.56-11,14.36-21.19,0,0,7.13-4.52,20.18-3L47.35,31l-1.9,10.41,1.2,3,4.28-.1s3.72-10.48,12.28-9.48c0,0,1.62-3.69,9.62-2.44,0,0,.27-13.21,5.09-15.7,0,0,2.08-2.09,10.42-.79L88,20.17,85.17,30.39s7-5.16,8.91-4.47l1.43,0s2.68-6.42,9.26-8.77a19.14,19.14,0,0,1,8.42.34l.69-.22S115,7.94,128.2,11l2.33.15s2.1-1,8.26-.12l2.66,6.7-5.08,8.48-10,4.77-2.17,1a3.58,3.58,0,0,1-2.68-.08l-9.33,4.86-4,2.27s-4.32.78-5.66-.24l-6.08,2.6L90,44.67l-5,.84-1.8,2.55s-.92,1.34-2.9.19l-5.77,3.67a2.33,2.33,0,0,1-2.68-.09l-6.92,4-2.22.7S58,58.19,55.4,56.3L42.45,67.87,32.55,69,21.78,78.2S4.56,80.44,9.67,65Z"/></clipPath><clipPath id="clip-path-3" transform="translate(10.78 8.61)"><path class="cls-1" d="M41.67,76.28l6.48,1.5-7.59,7.49,3.91,3s4.56-.73,8.05,1.47,2.08.75,2.08.75,8.31-17.45,20-10.65l1.81.54A74,74,0,0,1,76.76,73c.42-4.27,1-9.25,3.38-12.93a5.48,5.48,0,0,1,2.64-2.26,8.43,8.43,0,0,1,1.8-.35A20.15,20.15,0,0,1,95.11,59l-7,8s8.77.3,9.64,2c0,0,5.51-8.57,15.84-2.57l2.47,1s1.34-5.92-2.08-6.09c0,0,2.74-7.14,12.93-2.48,0,0,2.84-1.13-1-2.28,0,0,2.77-5.72,8.68-3.16l2,.55s2.88-6.77,9.67-4.16a22.47,22.47,0,0,1,4.26,1,5.13,5.13,0,0,1,4.22,3.87l4.6,1.26s6.66,7.72-5,17.06c0,0-3.1,1.73-5.08.66,0,0-6.84-.92-7.19-1.8l-4.76,3.64-.8,2.49s-2.61,0-2.79-.87L124.48,83a4.61,4.61,0,0,1-3.14-1.13L115.75,85l-8.33,3.91L102.53,90s-1.89,10.63-1.77,10.92-.91,8.65-.91,8.65-8.51-.31-9.49-6l-.27-7.83L86.3,98.16a4.25,4.25,0,0,1-4.25-2.52L66.54,105.85s-4.61-.32-5.71-1.72-.39.19-.39.19l-7.86,7.17-1.74,1s-7.49-.49-8.21-3.4l-2.41,8.4s-8.76.66-10.52-6.28c0,0-3.36-22.38,4.91-33C34.61,78.21,37.76,75.14,41.67,76.28Z"/></clipPath><clipPath id="clip-path-4" transform="translate(10.78 8.61)"><path class="cls-1" d="M42.67,157.81l6.9.17s4.69-1.67,6.28-11l-3.8.91s-10,1.53-12-3.45c0,0-4.68-11.25,14.73-21.72,0,0,7.31-4.64,20.69-3.06L81.31,123l-2.86,11.15,2.15,2.64,3.82.35s4.38-11.21,13.16-10.18c0,0,1.66-3.78,9.86-2.5,0,0,.29-13.55,5.22-16.1,0,0,2.11-2.24,10.66-.91l-1.4,4.39-1.82,10.56s7.19-5.3,9.14-4.59l1.46,0s2.76-6.58,9.5-9a19.68,19.68,0,0,1,8.64.35l.7-.23s1.18-9.54,14.69-6.39l2.28.71s2.68-1.75,9-.81l2.31,7-5.21,8.7L162.31,123l-2.23,1a3.62,3.62,0,0,1-2.75-.09l-9.56,5-4.14,2.32s-4.43.81-5.81-.24l-6.23,2.66L125,137l-5.14.87-.21,2.68s-2.58,1.3-4.62.13l-5.91,3.76a2.4,2.4,0,0,1-2.75-.09l-7.1,4.12L97,149.2s-4.69,2.41-8-.32L76.3,160.79,66.14,162l-11,9.4S37.44,173.68,42.67,157.81Z"/></clipPath><clipPath id="clip-path-5" transform="translate(10.78 8.61)"><rect class="cls-1" x="161.53" y="26.39" width="92.76" height="92.76" transform="translate(111.37 270.75) rotate(-83.3)"/></clipPath></defs><g id="Layer_2" data-name="Layer 2"><g id="Layer_1-2" data-name="Layer 1"><path class="cls-2" d="M158,42.18c5.48,1.26,9.73,10.11,11.05,17.13,1.48,7.89.17,11.55-3.18,19.71,3.12,2.32,6.1,6.21,4.41,12.17,0,0,5,1.87,5.5,2A18.66,18.66,0,0,1,182.41,97c5.72,5.5,4,15.4.37,21.6-4.14,7.18-11.68,10.46-19.2,13-.64.21-4.25.86-4.67,1.37-7.78,9.34-20.59,8.61-20.59,8.61-6.74,8.87-21.37,8.5-21.37,8.5-8.29,9.76-22.48,7.94-22.48,7.94-7.66,15.77-24,16.12-24,16.12C29.54,200.72,35,153.54,35,153.54c-10.37-14.51,1.31-25.42,1.31-25.42-25.49-11.21-15.9-40-15.9-40C-7.5,85.09,4.72,59.89,4.72,59.89-9.84,40.22,13.93,28.1,13.93,28.1c35.7-20.2,41.9.94,41.9.94,3.86-3.24,9.6-3.39,9.6-3.39l2-7.64C75.28.88,96.8,11.85,96.8,11.85c1.74-5.89,16.35-6.5,16.35-6.5a16.53,16.53,0,0,1,6.37-3.63c7.35-2.57,16.35-2.44,23.15,1.64,6,3.6,9.84,10,9.19,17.14-.35,3.86-1.17,7.54-4.09,11a8.06,8.06,0,0,1,5.6,1,9.06,9.06,0,0,1,3,3.71A18.41,18.41,0,0,1,157.62,40C157.69,40.26,157.72,42.12,158,42.18Z" transform="translate(10.78 8.61)"/><g class="cls-3"><polygon class="cls-4" points="134.17 65.69 134.51 65.26 134.61 65.51 134.17 65.69"/><polygon class="cls-5" points="132.8 66.23 134.2 64.48 134.51 65.26 134.17 65.69 132.8 66.23"/><polygon class="cls-6" points="131.43 66.78 133.89 63.7 134.2 64.48 132.8 66.23 131.43 66.78"/><polygon class="cls-7" points="130.05 67.32 133.58 62.92 133.89 63.7 131.43 66.78 130.05 67.32"/><polygon class="cls-8" points="128.68 67.87 133.27 62.14 133.58 62.92 130.05 67.32 128.68 67.87"/><polygon class="cls-9" points="127.31 68.41 132.96 61.36 133.27 62.14 128.68 67.87 127.31 68.41"/><polygon class="cls-10" points="125.94 68.96 132.65 60.58 132.96 61.36 127.31 68.41 125.94 68.96"/><polygon class="cls-11" points="125.54 69.12 125.14 68.79 132.34 59.8 132.65 60.58 125.94 68.96 125.54 69.12"/><polygon class="cls-12" points="125.14 68.79 124.83 68.55 124.69 68.18 132.03 59.02 132.34 59.8 125.14 68.79"/><polygon class="cls-13" points="124.38 67.4 131.72 58.24 132.03 59.02 124.69 68.18 124.38 67.4"/><polygon class="cls-14" points="124.07 66.62 131.41 57.46 131.72 58.24 124.38 67.4 124.07 66.62"/><polygon class="cls-14" points="123.76 65.84 131.1 56.68 131.41 57.46 124.07 66.62 123.76 65.84"/><polygon class="cls-15" points="123.45 65.06 130.75 55.95 130.83 56.02 131.1 56.68 123.76 65.84 123.45 65.06"/><polygon class="cls-16" points="123.14 64.28 129.69 56.1 130.53 55.77 130.75 55.95 123.45 65.06 123.14 64.28"/><polygon class="cls-16" points="122.83 63.5 128.32 56.65 129.69 56.1 123.14 64.28 122.83 63.5"/><polygon class="cls-17" points="122.52 62.72 126.94 57.2 128.32 56.65 122.83 63.5 122.52 62.72"/><polygon class="cls-18" points="122.21 61.94 125.57 57.74 126.94 57.2 122.52 62.72 122.21 61.94"/><polygon class="cls-18" points="121.89 61.16 124.2 58.29 125.57 57.74 122.21 61.94 121.89 61.16"/><polygon class="cls-19" points="121.58 60.38 122.83 58.83 124.2 58.29 121.89 61.16 121.58 60.38"/><polygon class="cls-20" points="121.28 59.6 121.45 59.38 122.83 58.83 121.58 60.38 121.28 59.6"/><polygon class="cls-20" points="121.45 59.38 121.28 59.6 121.22 59.47 121.45 59.38"/></g><g class="cls-21"><polygon class="cls-22" points="156.01 37.72 156.51 37.1 156.65 37.46 156.01 37.72"/><polygon class="cls-23" points="154.84 38.18 156.24 36.43 156.51 37.1 156.01 37.72 154.84 38.18"/><polygon class="cls-4" points="153.66 38.65 155.98 35.76 156.24 36.43 154.84 38.18 153.66 38.65"/><polygon class="cls-5" points="152.49 39.11 155.71 35.1 155.98 35.76 153.66 38.65 152.49 39.11"/><polygon class="cls-6" points="151.32 39.58 155.44 34.43 155.71 35.1 152.49 39.11 151.32 39.58"/><polygon class="cls-7" points="150.15 40.05 155.18 33.76 155.44 34.43 151.32 39.58 150.15 40.05"/><polygon class="cls-8" points="148.97 40.51 154.91 33.1 155.18 33.76 150.15 40.05 148.97 40.51"/><polygon class="cls-9" points="147.8 40.98 154.65 32.43 154.91 33.1 148.97 40.51 147.8 40.98"/><polygon class="cls-10" points="146.63 41.45 154.38 31.76 154.65 32.43 147.8 40.98 146.63 41.45"/><polygon class="cls-11" points="145.46 41.91 154.12 31.1 154.38 31.76 146.63 41.45 145.46 41.91"/><polygon class="cls-12" points="144.28 42.38 153.85 30.43 154.12 31.1 145.46 41.91 144.28 42.38"/><polygon class="cls-13" points="143.11 42.84 153.59 29.76 153.85 30.43 144.28 42.38 143.11 42.84"/><polygon class="cls-14" points="141.94 43.31 153.32 29.1 153.59 29.76 143.11 42.84 141.94 43.31"/><polygon class="cls-14" points="140.76 43.78 153.06 28.43 153.32 29.1 141.94 43.31 140.76 43.78"/><polygon class="cls-15" points="139.59 44.24 152.79 27.76 153.06 28.43 140.76 43.78 139.59 44.24"/><polygon class="cls-16" points="138.42 44.71 152.53 27.1 152.79 27.76 139.59 44.24 138.42 44.71"/><polygon class="cls-16" points="137.25 45.18 152.26 26.43 152.53 27.1 138.42 44.71 137.25 45.18"/><polygon class="cls-17" points="136.07 45.64 152 25.76 152.26 26.43 137.25 45.18 136.07 45.64"/><polygon class="cls-18" points="134.9 46.11 151.73 25.09 152 25.76 136.07 45.64 134.9 46.11"/><polygon class="cls-18" points="133.73 46.58 151.47 24.43 151.73 25.09 134.9 46.11 133.73 46.58"/><polygon class="cls-19" points="132.55 47.04 151.2 23.76 151.47 24.43 133.73 46.58 132.55 47.04"/><polygon class="cls-20" points="131.38 47.51 150.94 23.09 151.2 23.76 132.55 47.04 131.38 47.51"/><polygon class="cls-20" points="130.32 47.93 150.7 22.49 150.94 23.09 131.38 47.51 130.32 47.93"/><polygon class="cls-20" points="129.27 48.35 150.46 21.89 150.7 22.49 130.32 47.93 129.27 48.35"/><polygon class="cls-24" points="128.21 48.77 150.22 21.29 150.46 21.89 129.27 48.35 128.21 48.77"/><polygon class="cls-25" points="127.15 49.19 149.98 20.69 150.22 21.29 128.21 48.77 127.15 49.19"/><polygon class="cls-26" points="126.1 49.61 149.74 20.09 149.98 20.69 127.15 49.19 126.1 49.61"/><polygon class="cls-27" points="125.04 50.03 149.5 19.49 149.74 20.09 126.1 49.61 125.04 50.03"/><polygon class="cls-28" points="123.98 50.45 149.27 18.89 149.5 19.49 125.04 50.03 123.98 50.45"/><polygon class="cls-29" points="122.92 50.87 149.03 18.29 149.27 18.89 123.98 50.45 122.92 50.87"/><polygon class="cls-29" points="121.87 51.29 148.79 17.69 149.03 18.29 122.92 50.87 121.87 51.29"/><polygon class="cls-30" points="120.81 51.71 148.44 17.22 148.68 17.4 148.79 17.69 121.87 51.29 120.81 51.71"/><polygon class="cls-31" points="119.75 52.13 148 16.87 148.44 17.22 120.81 51.71 119.75 52.13"/><polygon class="cls-31" points="118.7 52.55 147.57 16.51 148 16.87 119.75 52.13 118.7 52.55"/><polygon class="cls-32" points="117.64 52.97 147.13 16.16 147.57 16.51 118.7 52.55 117.64 52.97"/><polygon class="cls-33" points="116.58 53.39 146.69 15.81 147.13 16.16 117.64 52.97 116.58 53.39"/><polygon class="cls-34" points="115.53 53.81 146.25 15.46 146.69 15.81 116.58 53.39 115.53 53.81"/><polygon class="cls-35" points="114.47 54.23 145.81 15.11 146.25 15.46 115.53 53.81 114.47 54.23"/><polygon class="cls-35" points="113.41 54.65 145.37 14.76 145.81 15.11 114.47 54.23 113.41 54.65"/><polygon class="cls-36" points="112.36 55.07 144.93 14.4 145.37 14.76 113.41 54.65 112.36 55.07"/><polygon class="cls-36" points="111.3 55.49 144.5 14.05 144.93 14.4 112.36 55.07 111.3 55.49"/><polygon class="cls-37" points="110.24 55.91 144.06 13.7 144.5 14.05 111.3 55.49 110.24 55.91"/><polygon class="cls-38" points="109.18 56.33 143.62 13.35 144.06 13.7 110.24 55.91 109.18 56.33"/><polygon class="cls-39" points="108.13 56.75 143.18 13 143.62 13.35 109.18 56.33 108.13 56.75"/><polygon class="cls-40" points="107.07 57.17 142.74 12.65 143.18 13 108.13 56.75 107.07 57.17"/><polygon class="cls-41" points="106.01 57.59 142.3 12.3 142.74 12.65 107.07 57.17 106.01 57.59"/><polygon class="cls-41" points="104.95 58.02 141.86 11.95 142.3 12.3 106.01 57.59 104.95 58.02"/><polygon class="cls-42" points="103.9 58.44 141.42 11.59 141.86 11.95 104.95 58.02 103.9 58.44"/><polygon class="cls-42" points="102.84 58.86 140.98 11.24 141.42 11.59 103.9 58.44 102.84 58.86"/><polygon class="cls-43" points="101.78 59.28 140.55 10.89 140.98 11.24 102.84 58.86 101.78 59.28"/><polygon class="cls-44" points="100.73 59.7 140.11 10.54 140.55 10.89 101.78 59.28 100.73 59.7"/><polygon class="cls-44" points="99.67 60.12 139.67 10.19 140.11 10.54 100.73 59.7 99.67 60.12"/><polygon class="cls-45" points="98.61 60.54 139.23 9.84 139.67 10.19 99.67 60.12 98.61 60.54"/><polygon class="cls-46" points="97.56 60.96 138.79 9.48 139.23 9.84 98.61 60.54 97.56 60.96"/><polygon class="cls-47" points="96.5 61.38 138.35 9.13 138.79 9.48 97.56 60.96 96.5 61.38"/><polygon class="cls-47" points="95.44 61.8 137.91 8.78 138.35 9.13 96.5 61.38 95.44 61.8"/><polygon class="cls-48" points="94.39 62.22 137.47 8.43 137.91 8.78 95.44 61.8 94.39 62.22"/><polygon class="cls-49" points="93.33 62.64 137.03 8.08 137.47 8.43 94.39 62.22 93.33 62.64"/><polygon class="cls-50" points="92.27 63.06 136.6 7.73 137.03 8.08 93.33 62.64 92.27 63.06"/><polygon class="cls-50" points="91.21 63.48 136.16 7.38 136.6 7.73 92.27 63.06 91.21 63.48"/><polygon class="cls-51" points="90.16 63.9 135.72 7.02 136.16 7.38 91.21 63.48 90.16 63.9"/><polygon class="cls-52" points="89.1 64.32 135.28 6.67 135.72 7.02 90.16 63.9 89.1 64.32"/><polygon class="cls-53" points="88.04 64.74 134.84 6.32 135.28 6.67 89.1 64.32 88.04 64.74"/><polygon class="cls-54" points="86.98 65.16 134.4 5.97 134.84 6.32 88.04 64.74 86.98 65.16"/><polygon class="cls-55" points="85.93 65.58 133.96 5.62 134.4 5.97 86.98 65.16 85.93 65.58"/><polygon class="cls-56" points="84.87 66 133.53 5.27 133.96 5.62 85.93 65.58 84.87 66"/><polygon class="cls-57" points="83.81 66.42 133.09 4.92 133.53 5.27 84.87 66 83.81 66.42"/><polygon class="cls-57" points="82.76 66.84 132.65 4.56 133.09 4.92 83.81 66.42 82.76 66.84"/><polygon class="cls-58" points="81.7 67.26 132.21 4.21 132.65 4.56 82.76 66.84 81.7 67.26"/><polygon class="cls-59" points="80.64 67.68 131.77 3.86 132.21 4.21 81.7 67.26 80.64 67.68"/><polygon class="cls-60" points="79.59 68.1 131.33 3.51 131.77 3.86 80.64 67.68 79.59 68.1"/><polygon class="cls-61" points="78.53 68.52 130.89 3.16 131.33 3.51 79.59 68.1 78.53 68.52"/><polygon class="cls-61" points="77.47 68.94 130.45 2.81 130.89 3.16 78.53 68.52 77.47 68.94"/><polygon class="cls-62" points="76.42 69.36 130.01 2.45 130.45 2.81 77.47 68.94 76.42 69.36"/><polygon class="cls-62" points="75.36 69.78 129.58 2.1 130.01 2.45 76.42 69.36 75.36 69.78"/><polygon class="cls-63" points="74.3 70.2 129.14 1.75 129.58 2.1 75.36 69.78 74.3 70.2"/><polygon class="cls-64" points="73.24 70.62 128.7 1.4 129.14 1.75 74.3 70.2 73.24 70.62"/><polygon class="cls-64" points="71.68 71.25 128.05 0.88 128.7 1.4 73.24 70.62 71.68 71.25"/><polygon class="cls-64" points="70.12 71.87 127.4 0.36 128.05 0.88 71.68 71.25 70.12 71.87"/><polygon class="cls-65" points="68.56 72.49 126.48 0.19 126.95 0 127.4 0.36 70.12 71.87 68.56 72.49"/><polygon class="cls-65" points="67 73.11 124.91 0.81 126.48 0.19 68.56 72.49 67 73.11"/><polygon class="cls-66" points="65.44 73.73 123.35 1.43 124.91 0.81 67 73.11 65.44 73.73"/><polygon class="cls-67" points="63.87 74.35 121.79 2.05 123.35 1.43 65.44 73.73 63.87 74.35"/><polygon class="cls-68" points="62.31 74.97 120.23 2.67 121.79 2.05 63.87 74.35 62.31 74.97"/><polygon class="cls-69" points="60.75 75.59 118.67 3.29 120.23 2.67 62.31 74.97 60.75 75.59"/><polygon class="cls-69" points="59.19 76.21 117.11 3.92 118.67 3.29 60.75 75.59 59.19 76.21"/><polygon class="cls-70" points="57.63 76.83 115.54 4.54 117.11 3.92 59.19 76.21 57.63 76.83"/><polygon class="cls-71" points="56.06 77.45 113.98 5.16 115.54 4.54 57.63 76.83 56.06 77.45"/><polygon class="cls-72" points="54.5 78.08 112.42 5.78 113.98 5.16 56.06 77.45 54.5 78.08"/><polygon class="cls-73" points="52.94 78.7 110.86 6.4 112.42 5.78 54.5 78.08 52.94 78.7"/><polygon class="cls-74" points="51.38 79.32 109.3 7.02 110.86 6.4 52.94 78.7 51.38 79.32"/><polygon class="cls-75" points="49.82 79.94 107.73 7.64 109.3 7.02 51.38 79.32 49.82 79.94"/><polygon class="cls-76" points="48.26 80.56 106.17 8.26 107.73 7.64 49.82 79.94 48.26 80.56"/><polygon class="cls-76" points="46.69 81.18 104.61 8.88 106.17 8.26 48.26 80.56 46.69 81.18"/><polygon class="cls-77" points="45.13 81.8 103.05 9.5 104.61 8.88 46.69 81.18 45.13 81.8"/><polygon class="cls-78" points="43.57 82.42 101.49 10.13 103.05 9.5 45.13 81.8 43.57 82.42"/><polygon class="cls-79" points="42.01 83.04 99.93 10.75 101.49 10.13 43.57 82.42 42.01 83.04"/><polygon class="cls-80" points="40.45 83.67 98.36 11.37 99.93 10.75 42.01 83.04 40.45 83.67"/><polygon class="cls-81" points="38.88 84.29 96.8 11.99 98.36 11.37 40.45 83.67 38.88 84.29"/><polygon class="cls-82" points="37.32 84.91 95.24 12.61 96.8 11.99 38.88 84.29 37.32 84.91"/><polygon class="cls-83" points="35.76 85.53 93.68 13.23 95.24 12.61 37.32 84.91 35.76 85.53"/><polygon class="cls-84" points="34.2 86.15 92.12 13.85 93.68 13.23 35.76 85.53 34.2 86.15"/><polygon class="cls-85" points="32.64 86.77 90.56 14.47 92.12 13.85 34.2 86.15 32.64 86.77"/><polygon class="cls-86" points="31.07 87.39 88.99 15.09 90.56 14.47 32.64 86.77 31.07 87.39"/><polygon class="cls-87" points="29.51 88.01 87.43 15.71 88.99 15.09 31.07 87.39 29.51 88.01"/><polygon class="cls-88" points="27.95 88.63 85.87 16.34 87.43 15.71 29.51 88.01 27.95 88.63"/><polygon class="cls-89" points="26.39 89.25 84.31 16.96 85.87 16.34 27.95 88.63 26.39 89.25"/><polygon class="cls-90" points="24.83 89.88 82.75 17.58 84.31 16.96 26.39 89.25 24.83 89.88"/><polygon class="cls-91" points="23.27 90.5 81.18 18.2 82.75 17.58 24.83 89.88 23.27 90.5"/><polygon class="cls-92" points="21.7 91.12 79.62 18.82 81.18 18.2 23.27 90.5 21.7 91.12"/><polygon class="cls-93" points="20.14 91.74 78.06 19.44 79.62 18.82 21.7 91.12 20.14 91.74"/><polygon class="cls-94" points="18.58 92.36 76.5 20.06 78.06 19.44 20.14 91.74 18.58 92.36"/><polygon class="cls-95" points="17.89 92.63 17.53 92.34 74.94 20.68 76.5 20.06 18.58 92.36 17.89 92.63"/><polygon class="cls-96" points="17.53 92.34 16.88 91.82 73.38 21.3 74.94 20.68 17.53 92.34"/><polygon class="cls-97" points="16.88 91.82 16.23 91.3 71.81 21.92 73.38 21.3 16.88 91.82"/><polygon class="cls-98" points="16.23 91.3 16.23 91.3 15.88 90.42 70.25 22.54 71.81 21.92 16.23 91.3"/><polygon class="cls-99" points="15.53 89.53 68.69 23.16 70.25 22.54 15.88 90.42 15.53 89.53"/><polygon class="cls-100" points="15.17 88.64 67.13 23.79 68.69 23.16 15.53 89.53 15.17 88.64"/><polygon class="cls-101" points="14.82 87.75 65.57 24.41 67.13 23.79 15.17 88.64 14.82 87.75"/><polygon class="cls-101" points="65.57 24.41 14.82 87.75 0 50.48 65.57 24.41"/></g><path class="cls-102" d="M22.08,66.67a8.58,8.58,0,0,0,4.13-3.55,21.67,21.67,0,0,0,2.36-5.65A57.86,57.86,0,0,0,30,50.6c.36-2.44.78-4.84,1.28-7.21a39.47,39.47,0,0,1,2-6.63,14.19,14.19,0,0,1,3.43-5.17A18.77,18.77,0,0,0,32,33.4a20.51,20.51,0,0,0-4.39,3.1,13,13,0,0,0-2.95,3.9,5.74,5.74,0,0,0-.38,4.23,1.76,1.76,0,0,0,.73,1,1.86,1.86,0,0,0,1.38.14A3.31,3.31,0,0,0,27.71,45a6.22,6.22,0,0,0,1.43-2.72,4.61,4.61,0,0,1,.78,2.95A9.47,9.47,0,0,1,29,48.71,11.6,11.6,0,0,1,26.8,52a9.23,9.23,0,0,1-3.19,2.18,8.67,8.67,0,0,1-3.44,1.12,7.17,7.17,0,0,1-3.07-.36,5.44,5.44,0,0,1-2.33-1.58,5.65,5.65,0,0,1-1.29-2.6,10.34,10.34,0,0,1,.68-6.06A21.11,21.11,0,0,1,18,38.6a32.12,32.12,0,0,1,6.17-5.29,34.09,34.09,0,0,1,7.53-3.79,33,33,0,0,1,7.31-1.73,17.41,17.41,0,0,1,5.52.21,7.45,7.45,0,0,1,3.62,1.84A5.52,5.52,0,0,1,49.84,33a7.43,7.43,0,0,1-.92,4.53,13.11,13.11,0,0,1-4,4.48,16,16,0,0,1,3.31,1.3,15.31,15.31,0,0,1,2.88,2,12.42,12.42,0,0,1,2.24,2.52,9.44,9.44,0,0,1,1.34,3,6.47,6.47,0,0,1,.39,2.65,16.82,16.82,0,0,1-.77,5.33,18.4,18.4,0,0,1-2.4,4.87A20.89,20.89,0,0,1,48,67.82,22.64,22.64,0,0,1,42.89,71a9.94,9.94,0,0,1-4.65,1A10.8,10.8,0,0,1,34,71a14.81,14.81,0,0,1-3.88,4.38,14.32,14.32,0,0,1-6,2.51,6.79,6.79,0,0,1-7.81-3.49A9.62,9.62,0,0,1,15.27,70a11.09,11.09,0,0,1,1.12-4.89,5.13,5.13,0,0,0,2.77,2A5.3,5.3,0,0,0,22.08,66.67ZM37.85,45.84q-.12,4.29-.25,8.62a54.11,54.11,0,0,1-.86,8.31,8.43,8.43,0,0,0,3.74-2,12.08,12.08,0,0,0,2.61-3.36,11.37,11.37,0,0,0,1.25-3.92A8.06,8.06,0,0,0,44,49.78,5.81,5.81,0,0,0,41.91,47,6.86,6.86,0,0,0,37.85,45.84Zm2-14.46a23.07,23.07,0,0,0-1.2,4.75q-.4,2.61-.58,5.49a8.83,8.83,0,0,0,2.5-1.43,8.38,8.38,0,0,0,1.53-1.68,7.26,7.26,0,0,0,.82-1.62,8.55,8.55,0,0,0,.32-1.29,3.71,3.71,0,0,0-.83-3A4.46,4.46,0,0,0,39.82,31.38Z" transform="translate(10.78 8.61)"/><path class="cls-102" d="M76,32.67a8.73,8.73,0,0,0-1,2,16.46,16.46,0,0,0-.58,2.35,16.66,16.66,0,0,0-.24,2.44,12.47,12.47,0,0,0,.12,2.32,7.06,7.06,0,0,0,.75,2.71q.57,1,1.38.69a2.56,2.56,0,0,0,1.19-1.08,9.51,9.51,0,0,0,.94-1.86,14.73,14.73,0,0,0,.67-2.14c.17-.73.3-1.35.39-1.87a10.35,10.35,0,0,1,1,1.91A6,6,0,0,1,81.08,42a6.46,6.46,0,0,1-.19,2c-.18.71-.44,1.52-.77,2.43-.18.48-.39,1-.64,1.52a10.68,10.68,0,0,1-.89,1.57,8.44,8.44,0,0,1-1.21,1.39,4.93,4.93,0,0,1-1.55,1,4.1,4.1,0,0,1-2.67.16,5,5,0,0,1-2-1.27A12.76,12.76,0,0,1,69,54.07a8.81,8.81,0,0,1-3.13,2.24,7.47,7.47,0,0,1-2.23.5,5.72,5.72,0,0,1-2.34-.34A6,6,0,0,1,59.13,55a7.89,7.89,0,0,1-1.67-3A9.52,9.52,0,0,1,57,46.88,15.33,15.33,0,0,1,58.82,42,16.78,16.78,0,0,1,62,38a13,13,0,0,1,3.53-2.42,4.62,4.62,0,0,1,4.35,0,4.73,4.73,0,0,1,2.46-2.55A6,6,0,0,1,76,32.67ZM66.62,49.56a3,3,0,0,0,.86-.56,3.48,3.48,0,0,0,.85-1.38,2.15,2.15,0,0,1-1.39-.45,2.43,2.43,0,0,1-.87-1.36,4.84,4.84,0,0,0,2-2.1,3.6,3.6,0,0,0,.38-2.57,1.44,1.44,0,0,0-.52-.9,1.06,1.06,0,0,0-1.06,0,3.13,3.13,0,0,0-1.47,1.08,6,6,0,0,0-1,1.92,8.42,8.42,0,0,0-.4,2.33,6,6,0,0,0,.42,2.37q.41,1.28,1.08,1.53A1.82,1.82,0,0,0,66.62,49.56Z" transform="translate(10.78 8.61)"/><path class="cls-102" d="M84.28,48.33A2.55,2.55,0,0,1,81.82,48a5.12,5.12,0,0,1-1.53-2.37,17,17,0,0,1-.77-3.75,38.88,38.88,0,0,1-.2-4.52c0-1.57.1-3.16.23-4.76s.29-3.06.46-4.4.34-2.47.51-3.43a16.14,16.14,0,0,1,.41-1.87,16.73,16.73,0,0,1,1.19-2.92,9.14,9.14,0,0,1,1.78-2.45A6.35,6.35,0,0,1,86.4,16a6.56,6.56,0,0,1,3.29-.1,8.15,8.15,0,0,0-1.14,1.7,13.76,13.76,0,0,0-.77,1.88,18.14,18.14,0,0,0-.51,1.83c-.14.59-.24,1.11-.31,1.58-.18,1.21-.34,2.38-.48,3.5s-.26,2.22-.35,3.29a10.74,10.74,0,0,1,1.94-2,8,8,0,0,1,2.57-1.35,10.75,10.75,0,0,1,2.12-.51,4.64,4.64,0,0,1,2.13.17,4.56,4.56,0,0,1,2,1.29A7.84,7.84,0,0,1,98.4,30a9.56,9.56,0,0,1,.51,3.77A14.91,14.91,0,0,1,98,38a6,6,0,0,0,1.47-1.66,12.63,12.63,0,0,0,1-2.1,17.4,17.4,0,0,0,.66-2.36c.17-.82.36-1.62.56-2.4A8.4,8.4,0,0,1,103.18,33a8.65,8.65,0,0,1-.71,4,8.39,8.39,0,0,1-.67,1.36A11.69,11.69,0,0,1,100.71,40a12.25,12.25,0,0,1-1.42,1.47,5.84,5.84,0,0,1-1.7,1.07,8.26,8.26,0,0,1-2.57.63,11,11,0,0,1-1.86,1.68A9.18,9.18,0,0,1,91,46a6.36,6.36,0,0,1-2.17.39A5,5,0,0,1,86.87,46l.3,1.43Zm1.63-11.84q0,.43,0,.9c0,.31,0,.6.07.88a4.89,4.89,0,0,0,.91,2.15,1.52,1.52,0,0,0,1.76.54,1.55,1.55,0,0,0,.82-.44,10.75,10.75,0,0,1-1.76-2.36,20.84,20.84,0,0,1-1.28-2.66,1.46,1.46,0,0,0-.13-.25A1.46,1.46,0,0,1,86.2,35a2.34,2.34,0,0,0-.19.7C86,36,86,36.22,85.91,36.49Zm2.84-4.93A2.36,2.36,0,0,0,87.83,33a2.81,2.81,0,0,0,.27,1.63,5.76,5.76,0,0,0,1.18,1.65,8.56,8.56,0,0,0,1.8,1.41,9.65,9.65,0,0,0,.39-2.47,6.43,6.43,0,0,0-.33-2.36,2.23,2.23,0,0,0-1-1.34,1.45,1.45,0,0,0-1.37,0Z" transform="translate(10.78 8.61)"/><path class="cls-102" d="M117.17,20.37a6.61,6.61,0,0,1,.43,2.75,10.27,10.27,0,0,1-.56,2.95,8.55,8.55,0,0,1-1.43,2.58,5.25,5.25,0,0,1-2.12,1.62,4.09,4.09,0,0,1-1.8.32,3.28,3.28,0,0,1-1.49-.42,3.74,3.74,0,0,1-1.11-1,3.35,3.35,0,0,1-.61-1.39,4.36,4.36,0,0,0,.41,2.54,4,4,0,0,0,2,2.22,3.61,3.61,0,0,0,3.17-.08,8.33,8.33,0,0,0,4.31-3.94,21,21,0,0,0,1.9-6.24,8.79,8.79,0,0,1,1.38,2.92,5.77,5.77,0,0,1-.14,3,14.9,14.9,0,0,1-3.28,6.32,14.1,14.1,0,0,1-5.86,3.71,9.13,9.13,0,0,1-6.38.25,6.86,6.86,0,0,1-4.11-4.18,9,9,0,0,1-.55-4.09,13.19,13.19,0,0,1,1.22-4.56,16.35,16.35,0,0,1,7.63-7.78,6.74,6.74,0,0,1,2.4-.71,4.2,4.2,0,0,1,2,.31,4.28,4.28,0,0,1,1.56,1.15A6.07,6.07,0,0,1,117.17,20.37Zm-5.39,2a4.05,4.05,0,0,0-1.44,1,7.24,7.24,0,0,0-1.15,1.76,3.35,3.35,0,0,0,1,.92,1.65,1.65,0,0,0,1.67,0,2.2,2.2,0,0,0,1.36-1.43,2.47,2.47,0,0,0,0-1.67,1.11,1.11,0,0,0-.52-.62A1.06,1.06,0,0,0,111.78,22.34Z" transform="translate(10.78 8.61)"/><path class="cls-102" d="M128.71,30.94a15.88,15.88,0,0,1-3.19,1,5.29,5.29,0,0,1-1.21.07,5.46,5.46,0,0,1-1.28-.24,4.41,4.41,0,0,1-1.21-.6,3.93,3.93,0,0,1-1-1,5.28,5.28,0,0,1-1.09,1.75,4.9,4.9,0,0,1-1.91,1.37,4,4,0,0,1-1.2.17,1.9,1.9,0,0,1-1.52-.63,9.49,9.49,0,0,0,1.65-1.73,14.29,14.29,0,0,0,1.48-2.47,20.18,20.18,0,0,0,1.14-3,24,24,0,0,0,.73-3.37l.72-4.15,0,0A6.3,6.3,0,0,1,122,14.44a8.85,8.85,0,0,1,3.68-3,5.77,5.77,0,0,1,2.63-.58,3.64,3.64,0,0,1,2.34.75,10.81,10.81,0,0,0-2.17,3,3.43,3.43,0,0,0-.29,2.13,3.55,3.55,0,0,0,1,1.63c.49.49,1,1,1.57,1.5a12.84,12.84,0,0,1,1.54,1.73,4.85,4.85,0,0,1,.87,2.33c0,.22,0,.43,0,.62s0,.4,0,.58a13.74,13.74,0,0,0,3.08-3.54,9.31,9.31,0,0,0,1.31-3.5,4.21,4.21,0,0,0-.51-2.81,3.38,3.38,0,0,0-2.39-1.5,5.84,5.84,0,0,1,2.6-2.41,4.35,4.35,0,0,1,2.89-.3,3.84,3.84,0,0,1,2.25,1.78,5.71,5.71,0,0,1,.65,3.72,10.5,10.5,0,0,1-1,3.17,16.61,16.61,0,0,1-2.55,3.85,24.64,24.64,0,0,1-4.39,3.95A28.74,28.74,0,0,1,128.71,30.94Zm-5-6.77a6.17,6.17,0,0,0-.43-.8,10.29,10.29,0,0,1-.62-1.16c-.15.94-.31,1.9-.49,2.87s-.38,1.93-.6,2.86a1.25,1.25,0,0,0,1.59.25,2,2,0,0,0,1.24-1.73A3.89,3.89,0,0,0,123.7,24.17Z" transform="translate(10.78 8.61)"/><g class="cls-103"><polygon class="cls-104" points="183.01 89.43 183.41 88.93 183.53 89.22 183.01 89.43"/><polygon class="cls-105" points="182.33 89.7 183.26 88.54 183.41 88.93 183.01 89.43 182.33 89.7"/><polygon class="cls-106" points="181.65 89.97 183.1 88.16 183.26 88.54 182.33 89.7 181.65 89.97"/><polygon class="cls-107" points="180.97 90.24 182.95 87.77 183.1 88.16 181.65 89.97 180.97 90.24"/><polygon class="cls-108" points="180.3 90.51 182.8 87.39 182.95 87.77 180.97 90.24 180.3 90.51"/><polygon class="cls-109" points="179.62 90.78 182.65 87 182.8 87.39 180.3 90.51 179.62 90.78"/><polygon class="cls-110" points="178.94 91.05 182.49 86.62 182.65 87 179.62 90.78 178.94 91.05"/><polygon class="cls-111" points="178.26 91.32 182.34 86.23 182.49 86.62 178.94 91.05 178.26 91.32"/><polygon class="cls-112" points="177.59 91.59 182.19 85.85 182.34 86.23 178.26 91.32 177.59 91.59"/><polygon class="cls-112" points="176.91 91.86 182.03 85.46 182.19 85.85 177.59 91.59 176.91 91.86"/><polygon class="cls-113" points="176.23 92.13 181.88 85.08 182.03 85.46 176.91 91.86 176.23 92.13"/><polygon class="cls-114" points="175.56 92.39 181.73 84.69 181.88 85.08 176.23 92.13 175.56 92.39"/><polygon class="cls-115" points="174.88 92.66 181.57 84.31 181.73 84.69 175.56 92.39 174.88 92.66"/><polygon class="cls-116" points="174.2 92.93 181.42 83.92 181.57 84.31 174.88 92.66 174.2 92.93"/><polygon class="cls-117" points="173.52 93.2 181.27 83.54 181.42 83.92 174.2 92.93 173.52 93.2"/><polygon class="cls-118" points="172.84 93.47 181.11 83.15 181.27 83.54 173.52 93.2 172.84 93.47"/><polygon class="cls-119" points="172.17 93.74 180.96 82.77 181.11 83.15 172.84 93.47 172.17 93.74"/><polygon class="cls-120" points="171.49 94.01 180.81 82.38 180.96 82.77 172.17 93.74 171.49 94.01"/><polygon class="cls-121" points="170.81 94.28 180.66 82 180.81 82.38 171.49 94.01 170.81 94.28"/><polygon class="cls-122" points="170.14 94.55 180.5 81.61 180.66 82 170.81 94.28 170.14 94.55"/><polygon class="cls-123" points="169.46 94.82 180.35 81.22 180.5 81.61 170.14 94.55 169.46 94.82"/><polygon class="cls-124" points="168.78 95.09 180.19 80.84 180.35 81.22 169.46 94.82 168.78 95.09"/><polygon class="cls-125" points="168.1 95.36 180.04 80.45 180.19 80.84 168.78 95.09 168.1 95.36"/><polygon class="cls-126" points="167.43 95.63 179.89 80.07 180.04 80.45 168.1 95.36 167.43 95.63"/><polygon class="cls-127" points="166.75 95.9 179.74 79.69 179.89 80.07 167.43 95.63 166.75 95.9"/><polygon class="cls-128" points="166.07 96.17 179.58 79.3 179.74 79.69 166.75 95.9 166.07 96.17"/><polygon class="cls-129" points="165.39 96.44 179.43 78.91 179.58 79.3 166.07 96.17 165.39 96.44"/><polygon class="cls-129" points="164.72 96.7 179.28 78.53 179.43 78.91 165.39 96.44 164.72 96.7"/><polygon class="cls-130" points="164.04 96.97 179.12 78.14 179.28 78.53 164.72 96.7 164.04 96.97"/><polygon class="cls-131" points="163.36 97.24 178.97 77.76 179.12 78.14 164.04 96.97 163.36 97.24"/><polygon class="cls-131" points="162.68 97.51 178.82 77.37 178.97 77.76 163.36 97.24 162.68 97.51"/><polygon class="cls-132" points="162.01 97.78 178.66 76.99 178.82 77.37 162.68 97.51 162.01 97.78"/><polygon class="cls-133" points="161.33 98.05 178.51 76.6 178.66 76.99 162.01 97.78 161.33 98.05"/><polygon class="cls-134" points="160.65 98.32 178.36 76.22 178.51 76.6 161.33 98.05 160.65 98.32"/><polygon class="cls-135" points="159.97 98.59 178.21 75.83 178.36 76.22 160.65 98.32 159.97 98.59"/><polygon class="cls-136" points="159.3 98.86 178.05 75.45 178.21 75.83 159.97 98.59 159.3 98.86"/><polygon class="cls-137" points="158.62 99.13 177.9 75.06 178.05 75.45 159.3 98.86 158.62 99.13"/><polygon class="cls-137" points="157.94 99.4 177.75 74.68 177.9 75.06 158.62 99.13 157.94 99.4"/><polygon class="cls-138" points="157.26 99.67 177.59 74.29 177.75 74.68 157.94 99.4 157.26 99.67"/><polygon class="cls-139" points="156.59 99.94 177.44 73.91 177.59 74.29 157.26 99.67 156.59 99.94"/><polygon class="cls-140" points="155.91 100.21 177.29 73.52 177.44 73.91 156.59 99.94 155.91 100.21"/><polygon class="cls-141" points="155.23 100.48 177.13 73.14 177.29 73.52 155.91 100.21 155.23 100.48"/><polygon class="cls-142" points="154.55 100.75 176.98 72.75 177.13 73.14 155.23 100.48 154.55 100.75"/><polygon class="cls-143" points="153.88 101.02 176.83 72.37 176.98 72.75 154.55 100.75 153.88 101.02"/><polygon class="cls-144" points="153.2 101.28 176.67 71.98 176.83 72.37 153.88 101.02 153.2 101.28"/><polygon class="cls-145" points="152.52 101.55 176.52 71.6 176.67 71.98 153.2 101.28 152.52 101.55"/><polygon class="cls-146" points="151.84 101.82 176.37 71.21 176.52 71.6 152.52 101.55 151.84 101.82"/><polygon class="cls-147" points="151.17 102.09 176.21 70.83 176.37 71.21 151.84 101.82 151.17 102.09"/><polygon class="cls-148" points="150.49 102.36 176.06 70.44 176.21 70.83 151.17 102.09 150.49 102.36"/><polygon class="cls-149" points="149.81 102.63 175.91 70.06 176.06 70.44 150.49 102.36 149.81 102.63"/><polygon class="cls-149" points="149.13 102.9 175.75 69.67 175.91 70.06 149.81 102.63 149.13 102.9"/><polygon class="cls-150" points="148.46 103.17 175.6 69.29 175.75 69.67 149.13 102.9 148.46 103.17"/><polygon class="cls-151" points="147.78 103.44 175.45 68.9 175.6 69.29 148.46 103.17 147.78 103.44"/><polygon class="cls-152" points="147.1 103.71 175.29 68.52 175.45 68.9 147.78 103.44 147.1 103.71"/><polygon class="cls-152" points="145.93 104.17 175.03 67.85 175.29 68.52 147.1 103.71 145.93 104.17"/><polygon class="cls-153" points="144.76 104.64 174.76 67.18 175.03 67.85 145.93 104.17 144.76 104.64"/><polygon class="cls-154" points="143.58 105.11 174.5 66.52 174.76 67.18 144.76 104.64 143.58 105.11"/><polygon class="cls-155" points="142.41 105.57 174.19 65.91 174.29 65.99 174.5 66.52 143.58 105.11 142.41 105.57"/><polygon class="cls-155" points="141.24 106.04 173.7 65.52 174.19 65.91 142.41 105.57 141.24 106.04"/><polygon class="cls-156" points="140.06 106.51 173.21 65.13 173.7 65.52 141.24 106.04 140.06 106.51"/><polygon class="cls-157" points="138.89 106.97 172.73 64.74 173.21 65.13 140.06 106.51 138.89 106.97"/><polygon class="cls-158" points="137.72 107.44 172.24 64.35 172.73 64.74 138.89 106.97 137.72 107.44"/><polygon class="cls-159" points="136.55 107.91 171.75 63.96 172.24 64.35 137.72 107.44 136.55 107.91"/><polygon class="cls-160" points="135.37 108.37 171.27 63.57 171.75 63.96 136.55 107.91 135.37 108.37"/><polygon class="cls-161" points="134.2 108.84 170.78 63.18 171.27 63.57 135.37 108.37 134.2 108.84"/><polygon class="cls-162" points="133.03 109.3 170.29 62.79 170.78 63.18 134.2 108.84 133.03 109.3"/><polygon class="cls-163" points="131.85 109.77 169.81 62.4 170.29 62.79 133.03 109.3 131.85 109.77"/><polygon class="cls-164" points="130.68 110.24 169.32 62.01 169.81 62.4 131.85 109.77 130.68 110.24"/><polygon class="cls-165" points="129.51 110.7 168.83 61.62 169.32 62.01 130.68 110.24 129.51 110.7"/><polygon class="cls-166" points="128.34 111.17 168.35 61.23 168.83 61.62 129.51 110.7 128.34 111.17"/><polygon class="cls-167" points="127.16 111.64 167.86 60.84 168.35 61.23 128.34 111.17 127.16 111.64"/><polygon class="cls-168" points="125.99 112.1 167.37 60.45 167.86 60.84 127.16 111.64 125.99 112.1"/><polygon class="cls-169" points="124.82 112.57 166.89 60.06 167.37 60.45 125.99 112.1 124.82 112.57"/><polygon class="cls-170" points="123.65 113.03 166.4 59.67 166.89 60.06 124.82 112.57 123.65 113.03"/><polygon class="cls-171" points="122.47 113.5 165.91 59.28 166.4 59.67 123.65 113.03 122.47 113.5"/><polygon class="cls-172" points="121.3 113.97 165.43 58.89 165.91 59.28 122.47 113.5 121.3 113.97"/><polygon class="cls-173" points="120.13 114.43 164.94 58.5 165.43 58.89 121.3 113.97 120.13 114.43"/><polygon class="cls-174" points="118.95 114.9 164.45 58.11 164.94 58.5 120.13 114.43 118.95 114.9"/><polygon class="cls-175" points="117.78 115.37 163.97 57.72 164.45 58.11 118.95 114.9 117.78 115.37"/><polygon class="cls-176" points="116.61 115.83 163.48 57.33 163.97 57.72 117.78 115.37 116.61 115.83"/><polygon class="cls-177" points="115.44 116.3 162.99 56.94 163.48 57.33 116.61 115.83 115.44 116.3"/><polygon class="cls-178" points="114.26 116.77 162.5 56.55 162.99 56.94 115.44 116.3 114.26 116.77"/><polygon class="cls-179" points="113.09 117.23 162.02 56.16 162.5 56.55 114.26 116.77 113.09 117.23"/><polygon class="cls-180" points="111.92 117.7 161.53 55.77 162.02 56.16 113.09 117.23 111.92 117.7"/><polygon class="cls-180" points="110.75 118.17 161.04 55.38 161.53 55.77 111.92 117.7 110.75 118.17"/><polygon class="cls-181" points="109.57 118.63 160.56 54.99 161.04 55.38 110.75 118.17 109.57 118.63"/><polygon class="cls-182" points="108.4 119.1 160.07 54.6 160.56 54.99 109.57 118.63 108.4 119.1"/><polygon class="cls-183" points="107.23 119.56 159.58 54.21 160.07 54.6 108.4 119.1 107.23 119.56"/><polygon class="cls-184" points="106.05 120.03 159.1 53.82 159.58 54.21 107.23 119.56 106.05 120.03"/><polygon class="cls-185" points="104.88 120.5 158.61 53.43 159.1 53.82 106.05 120.03 104.88 120.5"/><polygon class="cls-186" points="103.71 120.96 158.12 53.04 158.61 53.43 104.88 120.5 103.71 120.96"/><polygon class="cls-187" points="102.53 121.43 157.64 52.65 158.12 53.04 103.71 120.96 102.53 121.43"/><polygon class="cls-187" points="101.36 121.89 157.15 52.26 157.64 52.65 102.53 121.43 101.36 121.89"/><polygon class="cls-188" points="100.19 122.36 156.66 51.87 157.15 52.26 101.36 121.89 100.19 122.36"/><polygon class="cls-189" points="99.02 122.83 156.18 51.48 156.66 51.87 100.19 122.36 99.02 122.83"/><polygon class="cls-190" points="97.84 123.29 155.69 51.09 156.18 51.48 99.02 122.83 97.84 123.29"/><polygon class="cls-190" points="96.67 123.76 155.2 50.7 155.69 51.09 97.84 123.29 96.67 123.76"/><polygon class="cls-191" points="95.5 124.23 154.72 50.31 155.2 50.7 96.67 123.76 95.5 124.23"/><polygon class="cls-192" points="94.33 124.69 154.23 49.92 154.72 50.31 95.5 124.23 94.33 124.69"/><polygon class="cls-193" points="93.15 125.16 153.74 49.53 154.23 49.92 94.33 124.69 93.15 125.16"/><polygon class="cls-194" points="91.98 125.63 153.25 49.14 153.74 49.53 93.15 125.16 91.98 125.63"/><polygon class="cls-195" points="90.81 126.09 152.77 48.75 153.25 49.14 91.98 125.63 90.81 126.09"/><polygon class="cls-196" points="89.63 126.56 152.28 48.36 152.77 48.75 90.81 126.09 89.63 126.56"/><polygon class="cls-197" points="88.46 127.03 151.79 47.97 152.28 48.36 89.63 126.56 88.46 127.03"/><polygon class="cls-198" points="87.29 127.49 151.31 47.58 151.79 47.97 88.46 127.03 87.29 127.49"/><polygon class="cls-199" points="86.11 127.96 150.82 47.19 151.31 47.58 87.29 127.49 86.11 127.96"/><polygon class="cls-200" points="84.94 128.42 150.33 46.8 150.82 47.19 86.11 127.96 84.94 128.42"/><polygon class="cls-201" points="83.77 128.89 149.85 46.41 150.33 46.8 84.94 128.42 83.77 128.89"/><polygon class="cls-22" points="82.6 129.36 149.36 46.02 149.85 46.41 83.77 128.89 82.6 129.36"/><polygon class="cls-23" points="81.42 129.82 148.87 45.63 149.36 46.02 82.6 129.36 81.42 129.82"/><polygon class="cls-4" points="80.25 130.29 148.39 45.24 148.87 45.63 81.42 129.82 80.25 130.29"/><polygon class="cls-5" points="79.08 130.76 147.9 44.85 148.39 45.24 80.25 130.29 79.08 130.76"/><polygon class="cls-6" points="77.91 131.22 147.41 44.46 147.9 44.85 79.08 130.76 77.91 131.22"/><polygon class="cls-7" points="76.73 131.69 146.27 44.88 147.39 44.44 147.41 44.46 77.91 131.22 76.73 131.69"/><polygon class="cls-8" points="75.56 132.16 145.1 45.35 146.27 44.88 76.73 131.69 75.56 132.16"/><polygon class="cls-9" points="74.39 132.62 143.93 45.82 145.1 45.35 75.56 132.16 74.39 132.62"/><polygon class="cls-10" points="73.21 133.09 142.75 46.28 143.93 45.82 74.39 132.62 73.21 133.09"/><polygon class="cls-11" points="72.04 133.55 141.58 46.75 142.75 46.28 73.21 133.09 72.04 133.55"/><polygon class="cls-12" points="70.87 134.02 140.41 47.22 141.58 46.75 72.04 133.55 70.87 134.02"/><polygon class="cls-13" points="69.7 134.49 139.23 47.68 140.41 47.22 70.87 134.02 69.7 134.49"/><polygon class="cls-14" points="68.52 134.95 138.06 48.15 139.23 47.68 69.7 134.49 68.52 134.95"/><polygon class="cls-14" points="67.35 135.42 136.89 48.62 138.06 48.15 68.52 134.95 67.35 135.42"/><polygon class="cls-15" points="66.18 135.88 135.72 49.08 136.89 48.62 67.35 135.42 66.18 135.88"/><polygon class="cls-16" points="65 136.35 134.54 49.55 135.72 49.08 66.18 135.88 65 136.35"/><polygon class="cls-16" points="63.83 136.82 133.37 50.01 134.54 49.55 65 136.35 63.83 136.82"/><polygon class="cls-17" points="62.66 137.28 132.2 50.48 133.37 50.01 63.83 136.82 62.66 137.28"/><polygon class="cls-18" points="61.49 137.75 131.02 50.95 132.2 50.48 62.66 137.28 61.49 137.75"/><polygon class="cls-18" points="60.31 138.22 129.85 51.41 131.02 50.95 61.49 137.75 60.31 138.22"/><polygon class="cls-19" points="59.14 138.68 128.68 51.88 129.85 51.41 60.31 138.22 59.14 138.68"/><polygon class="cls-20" points="57.97 139.15 127.51 52.35 128.68 51.88 59.14 138.68 57.97 139.15"/><polygon class="cls-20" points="56.91 139.57 126.45 52.77 127.51 52.35 57.97 139.15 56.91 139.57"/><polygon class="cls-20" points="56.53 139.72 56.25 139.5 125.39 53.19 126.45 52.77 56.91 139.57 56.53 139.72"/><polygon class="cls-24" points="56.25 139.5 55.81 139.15 124.33 53.61 125.39 53.19 56.25 139.5"/><polygon class="cls-25" points="55.81 139.15 55.37 138.79 123.28 54.03 124.33 53.61 55.81 139.15"/><polygon class="cls-26" points="55.37 138.79 54.93 138.44 122.22 54.45 123.28 54.03 55.37 138.79"/><polygon class="cls-27" points="54.93 138.44 54.49 138.09 121.16 54.87 122.22 54.45 54.93 138.44"/><polygon class="cls-28" points="54.49 138.09 54.05 137.74 120.11 55.29 121.16 54.87 54.49 138.09"/><polygon class="cls-29" points="54.05 137.74 53.62 137.39 119.05 55.71 120.11 55.29 54.05 137.74"/><polygon class="cls-29" points="53.62 137.39 53.18 137.04 117.99 56.13 119.05 55.71 53.62 137.39"/><polygon class="cls-30" points="53.18 137.04 52.74 136.69 116.94 56.55 117.99 56.13 53.18 137.04"/><polygon class="cls-31" points="52.74 136.69 52.3 136.34 115.88 56.97 116.94 56.55 52.74 136.69"/><polygon class="cls-31" points="52.3 136.34 51.86 135.98 114.82 57.39 115.88 56.97 52.3 136.34"/><polygon class="cls-32" points="51.86 135.98 51.42 135.63 113.76 57.81 114.82 57.39 51.86 135.98"/><polygon class="cls-33" points="51.42 135.63 50.98 135.28 112.71 58.23 113.76 57.81 51.42 135.63"/><polygon class="cls-34" points="50.98 135.28 50.54 134.93 111.65 58.65 112.71 58.23 50.98 135.28"/><polygon class="cls-35" points="50.54 134.93 50.1 134.58 110.59 59.07 111.65 58.65 50.54 134.93"/><polygon class="cls-35" points="50.1 134.58 49.67 134.23 109.54 59.49 110.59 59.07 50.1 134.58"/><polygon class="cls-36" points="49.67 134.23 49.23 133.87 108.48 59.91 109.54 59.49 49.67 134.23"/><polygon class="cls-36" points="49.23 133.87 48.79 133.52 107.42 60.33 108.48 59.91 49.23 133.87"/><polygon class="cls-37" points="48.79 133.52 48.35 133.17 106.36 60.75 107.42 60.33 48.79 133.52"/><polygon class="cls-38" points="48.35 133.17 47.91 132.82 105.31 61.17 106.36 60.75 48.35 133.17"/><polygon class="cls-39" points="47.91 132.82 47.47 132.47 104.25 61.59 105.31 61.17 47.91 132.82"/><polygon class="cls-40" points="47.47 132.47 47.03 132.12 103.19 62.01 104.25 61.59 47.47 132.47"/><polygon class="cls-41" points="47.03 132.12 46.59 131.76 102.14 62.43 103.19 62.01 47.03 132.12"/><polygon class="cls-41" points="46.59 131.76 46.16 131.41 101.08 62.85 102.14 62.43 46.59 131.76"/><polygon class="cls-42" points="46.16 131.41 45.72 131.06 100.02 63.27 101.08 62.85 46.16 131.41"/><polygon class="cls-42" points="45.72 131.06 45.28 130.71 98.97 63.69 100.02 63.27 45.72 131.06"/><polygon class="cls-43" points="45.28 130.71 44.84 130.36 97.91 64.11 98.97 63.69 45.28 130.71"/><polygon class="cls-44" points="44.84 130.36 44.4 130.01 96.85 64.53 97.91 64.11 44.84 130.36"/><polygon class="cls-44" points="44.4 130.01 43.96 129.66 95.79 64.95 96.85 64.53 44.4 130.01"/><polygon class="cls-45" points="43.96 129.66 43.52 129.31 94.74 65.38 95.79 64.95 43.96 129.66"/><polygon class="cls-46" points="43.52 129.31 43.13 128.99 43.11 128.93 93.68 65.8 94.74 65.38 43.52 129.31"/><polygon class="cls-47" points="42.87 128.32 92.62 66.22 93.68 65.8 43.11 128.93 42.87 128.32"/><polygon class="cls-47" points="42.63 127.72 91.57 66.64 92.62 66.22 42.87 128.32 42.63 127.72"/><polygon class="cls-48" points="42.39 127.12 90.51 67.06 91.57 66.64 42.63 127.72 42.39 127.12"/><polygon class="cls-49" points="42.15 126.52 89.45 67.48 90.51 67.06 42.39 127.12 42.15 126.52"/><polygon class="cls-50" points="41.91 125.92 88.39 67.9 89.45 67.48 42.15 126.52 41.91 125.92"/><polygon class="cls-50" points="41.67 125.32 87.34 68.32 88.39 67.9 41.91 125.92 41.67 125.32"/><polygon class="cls-51" points="41.43 124.72 86.28 68.74 87.34 68.32 41.67 125.32 41.43 124.72"/><polygon class="cls-52" points="41.19 124.12 85.22 69.16 86.28 68.74 41.43 124.72 41.19 124.12"/><polygon class="cls-53" points="40.95 123.52 84.17 69.58 85.22 69.16 41.19 124.12 40.95 123.52"/><polygon class="cls-54" points="40.72 122.92 83.11 70 84.17 69.58 40.95 123.52 40.72 122.92"/><polygon class="cls-55" points="40.48 122.32 82.05 70.42 83.11 70 40.72 122.92 40.48 122.32"/><polygon class="cls-56" points="40.24 121.72 81 70.84 82.05 70.42 40.48 122.32 40.24 121.72"/><polygon class="cls-57" points="40 121.11 79.94 71.26 81 70.84 40.24 121.72 40 121.11"/><polygon class="cls-57" points="39.76 120.51 78.88 71.68 79.94 71.26 40 121.11 39.76 120.51"/><polygon class="cls-58" points="39.52 119.91 77.82 72.1 78.88 71.68 39.76 120.51 39.52 119.91"/><polygon class="cls-59" points="39.28 119.31 76.77 72.52 77.82 72.1 39.52 119.91 39.28 119.31"/><polygon class="cls-60" points="39.04 118.71 75.71 72.94 76.77 72.52 39.28 119.31 39.04 118.71"/><polygon class="cls-61" points="38.8 118.11 74.65 73.36 75.71 72.94 39.04 118.71 38.8 118.11"/><polygon class="cls-61" points="38.57 117.51 73.6 73.78 74.65 73.36 38.8 118.11 38.57 117.51"/><polygon class="cls-62" points="38.33 116.91 72.54 74.2 73.6 73.78 38.57 117.51 38.33 116.91"/><polygon class="cls-62" points="38.09 116.31 71.48 74.62 72.54 74.2 38.33 116.91 38.09 116.31"/><polygon class="cls-63" points="37.85 115.71 70.42 75.04 71.48 74.62 38.09 116.31 37.85 115.71"/><polygon class="cls-64" points="37.61 115.11 69.37 75.46 70.42 75.04 37.85 115.71 37.61 115.11"/><polygon class="cls-64" points="37.26 114.22 67.81 76.08 69.37 75.46 37.61 115.11 37.26 114.22"/><polygon class="cls-64" points="36.9 113.33 66.24 76.7 67.81 76.08 37.26 114.22 36.9 113.33"/><polygon class="cls-65" points="36.55 112.44 64.68 77.33 66.24 76.7 36.9 113.33 36.55 112.44"/><polygon class="cls-65" points="36.2 111.55 63.12 77.95 64.68 77.33 36.55 112.44 36.2 111.55"/><polygon class="cls-66" points="35.84 110.67 61.56 78.57 63.12 77.95 36.2 111.55 35.84 110.67"/><polygon class="cls-67" points="35.49 109.78 60 79.19 61.56 78.57 35.84 110.67 35.49 109.78"/><polygon class="cls-68" points="35.14 108.89 58.44 79.81 60 79.19 35.49 109.78 35.14 108.89"/><polygon class="cls-69" points="34.79 108 56.87 80.43 58.44 79.81 35.14 108.89 34.79 108"/><polygon class="cls-69" points="34.43 107.11 55.31 81.05 56.87 80.43 34.79 108 34.43 107.11"/><polygon class="cls-70" points="34.08 106.23 53.75 81.67 55.31 81.05 34.43 107.11 34.08 106.23"/><polygon class="cls-71" points="33.73 105.34 52.19 82.29 53.75 81.67 34.08 106.23 33.73 105.34"/><polygon class="cls-72" points="33.37 104.45 50.63 82.91 52.19 82.29 33.73 105.34 33.37 104.45"/><polygon class="cls-73" points="33.02 103.56 49.06 83.53 50.63 82.91 33.37 104.45 33.02 103.56"/><polygon class="cls-74" points="32.67 102.67 47.5 84.16 49.06 83.53 33.02 103.56 32.67 102.67"/><polygon class="cls-75" points="32.31 101.79 45.94 84.78 47.5 84.16 32.67 102.67 32.31 101.79"/><polygon class="cls-76" points="31.96 100.9 44.38 85.4 45.94 84.78 32.31 101.79 31.96 100.9"/><polygon class="cls-76" points="31.61 100.01 42.82 86.02 44.38 85.4 31.96 100.9 31.61 100.01"/><polygon class="cls-77" points="31.26 99.12 41.26 86.64 42.82 86.02 31.61 100.01 31.26 99.12"/><polygon class="cls-78" points="30.9 98.23 39.69 87.26 41.26 86.64 31.26 99.12 30.9 98.23"/><polygon class="cls-79" points="30.55 97.35 38.13 87.88 39.69 87.26 30.9 98.23 30.55 97.35"/><polygon class="cls-80" points="30.2 96.46 36.57 88.5 38.13 87.88 30.55 97.35 30.2 96.46"/><polygon class="cls-81" points="29.84 95.57 35.01 89.12 36.57 88.5 30.2 96.46 29.84 95.57"/><polygon class="cls-82" points="29.49 94.68 33.45 89.75 35.01 89.12 29.84 95.57 29.49 94.68"/><polygon class="cls-83" points="29.14 93.8 31.89 90.37 33.45 89.75 29.49 94.68 29.14 93.8"/><polygon class="cls-84" points="28.78 92.91 30.32 90.99 31.89 90.37 29.14 93.8 28.78 92.91"/><polygon class="cls-85" points="28.43 92.02 28.76 91.61 30.32 90.99 28.78 92.91 28.43 92.02"/><polygon class="cls-86" points="28.76 91.61 28.43 92.02 28.34 91.78 28.76 91.61"/></g><path class="cls-102" d="M56,101q-.16,1.62.39,2.1a1,1,0,0,0,1.18.17,6.47,6.47,0,0,0,2.51-3.49c.32-.89.6-1.78.85-2.69a9.62,9.62,0,0,0,.38-2.16,11.91,11.91,0,0,1,1.26,2.32,6.84,6.84,0,0,1,.49,2.25,8.6,8.6,0,0,1-.26,2.46,28.73,28.73,0,0,1-.94,3,14.69,14.69,0,0,1-2.65,4.58,10.31,10.31,0,0,1-4.63,3.15,4.61,4.61,0,0,1-3.33,0,4.12,4.12,0,0,1-2.37-2.49,14.85,14.85,0,0,1-.77-5.24,48.51,48.51,0,0,1,.41-6,2.08,2.08,0,0,0-.28-1.3c-.24-.44-.66-.57-1.26-.38a3.15,3.15,0,0,0-1.57,2,20.59,20.59,0,0,0-.9,3.58c-.2,1.29-.34,2.55-.42,3.76S44,108.7,44,109.2c.13,1.12.29,2.25.48,3.41s.4,2.34.61,3.55l-3.51,1.13a3.13,3.13,0,0,1-3-.45A6.27,6.27,0,0,1,36.7,114a20.5,20.5,0,0,1-.94-4.57,46.85,46.85,0,0,1-.25-5.51c0-1.91.12-3.84.29-5.79s.35-3.74.55-5.36.42-3,.63-4.18a21.29,21.29,0,0,1,.5-2.29,21.75,21.75,0,0,1,1.44-3.56,11.44,11.44,0,0,1,2.17-3,7.61,7.61,0,0,1,3-1.81,7.88,7.88,0,0,1,4-.12,9.32,9.32,0,0,0-1.39,2.06,17.81,17.81,0,0,0-.94,2.29c-.25.77-.46,1.52-.62,2.23s-.29,1.36-.38,1.93c-.5,3-.86,5.85-1.06,8.49a12.15,12.15,0,0,1,2.48-2.64,13,13,0,0,1,3.51-1.9,5.73,5.73,0,0,1,2.77-.46A4.73,4.73,0,0,1,56,92a5.36,5.36,0,0,1,.73,1.65,6.84,6.84,0,0,1,.13,1.87,20.82,20.82,0,0,1-.2,2.09c-.11.7-.23,1.35-.37,2S56.08,100.65,56,101Z" transform="translate(10.78 8.61)"/><path class="cls-102" d="M80.18,83.79a8.09,8.09,0,0,1,.53,3.35,12.34,12.34,0,0,1-.69,3.6,10.51,10.51,0,0,1-1.74,3.15,6.31,6.31,0,0,1-2.58,2,5.06,5.06,0,0,1-2.19.4,4,4,0,0,1-1.82-.52,4.55,4.55,0,0,1-1.35-1.2,3.9,3.9,0,0,1-.74-1.69,5.21,5.21,0,0,0,.49,3.09,4.92,4.92,0,0,0,2.42,2.7,4.37,4.37,0,0,0,3.86-.09,10.12,10.12,0,0,0,5.24-4.8,25.2,25.2,0,0,0,2.32-7.61,10.85,10.85,0,0,1,1.69,3.56,7.2,7.2,0,0,1-.17,3.63,18.12,18.12,0,0,1-4,7.7,17.19,17.19,0,0,1-7.15,4.52,11.11,11.11,0,0,1-7.77.31,8.42,8.42,0,0,1-5-5.1,11.26,11.26,0,0,1-.67-5,16.34,16.34,0,0,1,1.49-5.57,19.83,19.83,0,0,1,9.3-9.48,8.19,8.19,0,0,1,2.92-.85,5.11,5.11,0,0,1,2.43.37,5.31,5.31,0,0,1,1.9,1.4A7.19,7.19,0,0,1,80.18,83.79ZM73.61,86.2a4.85,4.85,0,0,0-1.75,1.27,8.64,8.64,0,0,0-1.4,2.13,3.85,3.85,0,0,0,1.15,1.12,2,2,0,0,0,2,0A2.68,2.68,0,0,0,75.31,89a3,3,0,0,0,.06-2,1.4,1.4,0,0,0-.63-.75A1.32,1.32,0,0,0,73.61,86.2Z" transform="translate(10.78 8.61)"/><path class="cls-102" d="M83.89,95.15a18.61,18.61,0,0,1-1.12-5.87,60.84,60.84,0,0,1,.09-7.36c.19-2.58.46-5.17.82-7.75s.71-4.91,1.06-7a13,13,0,0,1,1.11-3.63,8.78,8.78,0,0,1,2.09-2.85A7.94,7.94,0,0,1,91,59,8.66,8.66,0,0,1,95.11,59a8.34,8.34,0,0,0-1.32,1.94A10.07,10.07,0,0,0,93.07,63c-.16.72-.3,1.46-.4,2.21s-.22,1.53-.36,2.3a53.59,53.59,0,0,0-.76,5.44c-.17,1.88-.3,3.7-.38,5.46s-.12,3.39-.11,4.88,0,2.77.11,3.82A2.39,2.39,0,0,0,92,88.89a1.3,1.3,0,0,0,1.29.19,2.71,2.71,0,0,0,1.46-1.32,11.77,11.77,0,0,0,1-2.14c.32-.89.6-1.78.85-2.69a9.69,9.69,0,0,0,.38-2.17,12.27,12.27,0,0,1,1.26,2.33,6.78,6.78,0,0,1,.49,2.25,8.6,8.6,0,0,1-.26,2.46,28.73,28.73,0,0,1-.94,3,14.47,14.47,0,0,1-2.66,4.55,11,11,0,0,1-4.62,3.18,4.14,4.14,0,0,1-2.1.3,4.83,4.83,0,0,1-1.79-.63,5.1,5.1,0,0,1-1.42-1.29A7.19,7.19,0,0,1,83.89,95.15Z" transform="translate(10.78 8.61)"/><path class="cls-102" d="M103.13,71.71a16.12,16.12,0,0,1,2.6-3,9.83,9.83,0,0,1,3.58-2.06,14.82,14.82,0,0,1,2.57-.62,5.76,5.76,0,0,1,2.61.21,6,6,0,0,1,2.4,1.56,9.35,9.35,0,0,1,1.93,3.33,12.82,12.82,0,0,1,.55,4.59,17.56,17.56,0,0,1-1.05,5.15,7,7,0,0,0,1.79-2,16.07,16.07,0,0,0,1.23-2.57,18,18,0,0,0,.83-2.88c.21-1,.44-2,.69-2.93A17.41,17.41,0,0,1,124,72.67a7.21,7.21,0,0,1,.56,2.09,7.59,7.59,0,0,1-.1,2.26,19.21,19.21,0,0,1-.78,2.7,10.08,10.08,0,0,1-.82,1.67,15,15,0,0,1-3.06,3.7,7.13,7.13,0,0,1-2.07,1.29,9.84,9.84,0,0,1-3.12.77,15.36,15.36,0,0,1-2.31,2.06,10.12,10.12,0,0,1-2.64,1.39,7.29,7.29,0,0,1-2.91.45,5.77,5.77,0,0,1-2.5-.72c.15,2.09.36,4.15.6,6.18s.51,3.87.79,5.53a31.17,31.17,0,0,0,1,4.19,4,4,0,0,0,1.18,2.12c-.8.36-1.66.74-2.58,1.12a8.44,8.44,0,0,1-2.76.67,4.76,4.76,0,0,1-4.82-3,10,10,0,0,1-.75-3.33c-.16-1.6-.26-3.44-.31-5.52s-.08-4.31-.09-6.65,0-4.58,0-6.7,0-4,0-5.73a36.21,36.21,0,0,0-.13-3.71A3.4,3.4,0,0,0,96,74.17a2.54,2.54,0,0,0-1.7-1,14.18,14.18,0,0,1,3.19-3,4.3,4.3,0,0,1,2.43-.8,2.67,2.67,0,0,1,1.75.75,4.76,4.76,0,0,1,1.1,1.68.37.37,0,0,1,0-.22Zm1.08,6.09a1.79,1.79,0,0,0-.16-.31,1.28,1.28,0,0,1-.15-.31,5.08,5.08,0,0,0-.23,1q-.06.5-.12,1a.24.24,0,0,0,0,.2c0,.58,0,1.08.06,1.52a6.09,6.09,0,0,0,1.11,2.78,1.86,1.86,0,0,0,2.18.75,1.92,1.92,0,0,0,1-.53A13.19,13.19,0,0,1,105.77,81,26.6,26.6,0,0,1,104.21,77.8Zm3.51-5A1.83,1.83,0,0,0,106.48,74a3,3,0,0,0,.19,1.84,7.16,7.16,0,0,0,1.31,2,14.2,14.2,0,0,0,2.08,1.93,11.37,11.37,0,0,0,.33-2.72,8.17,8.17,0,0,0-.41-2.56C109.47,73.29,108.72,72.69,107.72,72.77Z" transform="translate(10.78 8.61)"/><path class="cls-102" d="M130.2,61.55a7.89,7.89,0,0,1,.51,2.72,21.37,21.37,0,0,1-.11,3.1c-.1,1-.24,2-.4,2.88s-.26,1.62-.31,2.17c0,.79.11,1.27.48,1.46a1.15,1.15,0,0,0,1.11,0,6.27,6.27,0,0,0,2.45-3.46,22.91,22.91,0,0,0,.88-2.7,15.78,15.78,0,0,0,.41-2.18,16.3,16.3,0,0,1,1.2,2.34,7.82,7.82,0,0,1,.52,2.25,7.52,7.52,0,0,1-.24,2.44,26.47,26.47,0,0,1-.94,3,15.53,15.53,0,0,1-2.68,4.57,10.84,10.84,0,0,1-4.59,3.16,4.16,4.16,0,0,1-2.13.31,5.17,5.17,0,0,1-1.88-.59A4.69,4.69,0,0,1,123,81.72a4.88,4.88,0,0,1-.87-1.77,12.16,12.16,0,0,1-.43-3.53A31.8,31.8,0,0,1,122,72.7c.17-1.25.34-2.52.5-3.79a18,18,0,0,0,.1-3.81,3,3,0,0,0-.46-1.32,2.67,2.67,0,0,0-1.72-1A13.35,13.35,0,0,1,124,59.69a5.88,5.88,0,0,1,2.88-.85,3.18,3.18,0,0,1,2.12.84A4.48,4.48,0,0,1,130.2,61.55Z" transform="translate(10.78 8.61)"/><path class="cls-102" d="M154,62c-.15,1.09,0,1.79.37,2.1a1,1,0,0,0,1.2.16,6.27,6.27,0,0,0,2.46-3.46,21.12,21.12,0,0,0,.87-2.7,13.06,13.06,0,0,0,.41-2.18,16.43,16.43,0,0,1,1.21,2.34,7.35,7.35,0,0,1,.28,4.69,27.24,27.24,0,0,1-.94,3,16,16,0,0,1-2.67,4.59,10.3,10.3,0,0,1-4.6,3.14,4.82,4.82,0,0,1-3.37,0,3.88,3.88,0,0,1-2.33-2.5,15,15,0,0,1-.78-5.24,48.49,48.49,0,0,1,.42-6,2,2,0,0,0-.31-1.29,1,1,0,0,0-1.23-.39,3.41,3.41,0,0,0-1.73,1.9,15,15,0,0,0-1.06,3.35,24.81,24.81,0,0,0-.46,3.74,14.41,14.41,0,0,0,.12,3.08,16.18,16.18,0,0,0,.85,3.59,4.47,4.47,0,0,0,1.59,2.22c-.79.36-1.66.78-2.6,1.24a10.27,10.27,0,0,1-2.75.93,3.93,3.93,0,0,1-2.48-.33,3.83,3.83,0,0,1-1.72-2.54,11.91,11.91,0,0,1-.42-3.16c0-1.23,0-2.52.07-3.89s.11-2.76.16-4.16a34.28,34.28,0,0,0-.09-3.87,3.65,3.65,0,0,0-.44-1.34,2.58,2.58,0,0,0-1.69-1,12.8,12.8,0,0,1,3.8-3.29,3.54,3.54,0,0,1,2.65-.35A3.06,3.06,0,0,1,140.48,56a8.19,8.19,0,0,1,.79,2.34,14.6,14.6,0,0,1,2.35-4.16,9.26,9.26,0,0,1,4.14-2.85,5.6,5.6,0,0,1,2.77-.47,4.88,4.88,0,0,1,2.08.75A5.19,5.19,0,0,1,154,53a5.27,5.27,0,0,1,.72,1.66,6.7,6.7,0,0,1,.14,1.86,18.21,18.21,0,0,1-.21,2.1c-.1.69-.23,1.34-.36,2S154.09,61.68,154,62ZM141.91,70.2l0,.26,0-.12s0-.06,0-.07S141.92,70.24,141.91,70.2Z" transform="translate(10.78 8.61)"/><g class="cls-202"><polygon class="cls-203" points="147.56 147.5 181.03 105.72 184.97 108.88 193.13 129.39 147.56 147.5"/><polygon class="cls-203" points="146.89 147.78 180.75 105.5 181.03 105.72 147.56 147.5 146.89 147.78"/><polygon class="cls-204" points="146.21 148.04 180.47 105.27 180.75 105.5 146.89 147.78 146.21 148.04"/><polygon class="cls-204" points="145.53 148.31 180.19 105.05 180.47 105.27 146.21 148.04 145.53 148.31"/><polygon class="cls-205" points="144.85 148.58 179.91 104.82 180.19 105.05 145.53 148.31 144.85 148.58"/><polygon class="cls-206" points="144.18 148.85 179.63 104.6 179.91 104.82 144.85 148.58 144.18 148.85"/><polygon class="cls-207" points="143.5 149.12 179.35 104.37 179.63 104.6 144.18 148.85 143.5 149.12"/><polygon class="cls-207" points="142.82 149.39 179.07 104.15 179.35 104.37 143.5 149.12 142.82 149.39"/><polygon class="cls-208" points="142.15 149.66 178.78 103.92 179.07 104.15 142.82 149.39 142.15 149.66"/><polygon class="cls-209" points="141.47 149.93 178.5 103.7 178.78 103.92 142.15 149.66 141.47 149.93"/><polygon class="cls-209" points="140.79 150.2 178.22 103.47 178.5 103.7 141.47 149.93 140.79 150.2"/><polygon class="cls-210" points="140.11 150.47 177.94 103.25 178.22 103.47 140.79 150.2 140.11 150.47"/><polygon class="cls-211" points="139.44 150.74 177.66 103.02 177.94 103.25 140.11 150.47 139.44 150.74"/><polygon class="cls-212" points="138.76 151.01 177.38 102.8 177.66 103.02 139.44 150.74 138.76 151.01"/><polygon class="cls-212" points="138.08 151.28 177.1 102.57 177.38 102.8 138.76 151.01 138.08 151.28"/><polygon class="cls-213" points="137.4 151.55 176.82 102.35 177.1 102.57 138.08 151.28 137.4 151.55"/><polygon class="cls-214" points="136.72 151.81 176.54 102.12 176.82 102.35 137.4 151.55 136.72 151.81"/><polygon class="cls-215" points="136.05 152.09 176.25 101.89 176.54 102.12 136.72 151.81 136.05 152.09"/><polygon class="cls-216" points="135.37 152.35 175.97 101.67 176.25 101.89 136.05 152.09 135.37 152.35"/><polygon class="cls-217" points="134.69 152.62 175.69 101.44 175.97 101.67 135.37 152.35 134.69 152.62"/><polygon class="cls-218" points="134.02 152.89 175.41 101.22 175.69 101.44 134.69 152.62 134.02 152.89"/><polygon class="cls-219" points="133.34 153.16 175.13 100.99 175.41 101.22 134.02 152.89 133.34 153.16"/><polygon class="cls-219" points="132.66 153.43 174.85 100.77 175.13 100.99 133.34 153.16 132.66 153.43"/><polygon class="cls-104" points="131.98 153.7 174.57 100.54 174.85 100.77 132.66 153.43 131.98 153.7"/><polygon class="cls-104" points="131.31 153.97 174.29 100.32 174.57 100.54 131.98 153.7 131.31 153.97"/><polygon class="cls-105" points="130.63 154.24 174 100.09 174.29 100.32 131.31 153.97 130.63 154.24"/><polygon class="cls-106" points="129.95 154.51 173.72 99.87 174 100.09 130.63 154.24 129.95 154.51"/><polygon class="cls-107" points="129.27 154.78 173.44 99.64 173.72 99.87 129.95 154.51 129.27 154.78"/><polygon class="cls-108" points="128.6 155.05 173.16 99.42 173.44 99.64 129.27 154.78 128.6 155.05"/><polygon class="cls-109" points="127.92 155.32 172.88 99.19 173.16 99.42 128.6 155.05 127.92 155.32"/><polygon class="cls-110" points="127.24 155.59 172.6 98.97 172.88 99.19 127.92 155.32 127.24 155.59"/><polygon class="cls-111" points="126.56 155.86 172.32 98.74 172.6 98.97 127.24 155.59 126.56 155.86"/><polygon class="cls-112" points="125.89 156.13 172.04 98.52 172.32 98.74 126.56 155.86 125.89 156.13"/><polygon class="cls-112" points="125.21 156.39 171.75 98.29 172.04 98.52 125.89 156.13 125.21 156.39"/><polygon class="cls-113" points="124.53 156.66 171.47 98.07 171.75 98.29 125.21 156.39 124.53 156.66"/><polygon class="cls-114" points="123.85 156.93 171.19 97.84 171.47 98.07 124.53 156.66 123.85 156.93"/><polygon class="cls-115" points="123.18 157.2 170.91 97.61 171.19 97.84 123.85 156.93 123.18 157.2"/><polygon class="cls-116" points="122.5 157.47 170.63 97.39 170.91 97.61 123.18 157.2 122.5 157.47"/><polygon class="cls-117" points="121.82 157.74 170.35 97.17 170.63 97.39 122.5 157.47 121.82 157.74"/><polygon class="cls-118" points="121.14 158.01 170.07 96.94 170.35 97.17 121.82 157.74 121.14 158.01"/><polygon class="cls-119" points="120.47 158.28 169.79 96.71 170.07 96.94 121.14 158.01 120.47 158.28"/><polygon class="cls-120" points="119.79 158.55 169.51 96.49 169.79 96.71 120.47 158.28 119.79 158.55"/><polygon class="cls-121" points="119.11 158.82 169.22 96.26 169.51 96.49 119.79 158.55 119.11 158.82"/><polygon class="cls-122" points="118.43 159.09 168.94 96.04 169.22 96.26 119.11 158.82 118.43 159.09"/><polygon class="cls-123" points="117.76 159.36 168.66 95.81 168.94 96.04 118.43 159.09 117.76 159.36"/><polygon class="cls-124" points="117.08 159.63 168.38 95.59 168.66 95.81 117.76 159.36 117.08 159.63"/><polygon class="cls-125" points="116.4 159.9 168.1 95.36 168.38 95.59 117.08 159.63 116.4 159.9"/><polygon class="cls-126" points="115.72 160.17 167.82 95.14 168.1 95.36 116.4 159.9 115.72 160.17"/><polygon class="cls-127" points="115.05 160.44 167.54 94.91 167.82 95.14 115.72 160.17 115.05 160.44"/><polygon class="cls-128" points="114.37 160.7 167.26 94.69 167.54 94.91 115.05 160.44 114.37 160.7"/><polygon class="cls-129" points="113.69 160.97 166.97 94.46 167.26 94.69 114.37 160.7 113.69 160.97"/><polygon class="cls-129" points="113.02 161.24 166.69 94.24 166.97 94.46 113.69 160.97 113.02 161.24"/><polygon class="cls-130" points="112.34 161.51 166.41 94.01 166.69 94.24 113.02 161.24 112.34 161.51"/><polygon class="cls-131" points="111.66 161.78 166.13 93.79 166.41 94.01 112.34 161.51 111.66 161.78"/><polygon class="cls-131" points="110.98 162.05 165.85 93.56 166.13 93.79 111.66 161.78 110.98 162.05"/><polygon class="cls-132" points="110.31 162.32 165.57 93.33 165.85 93.56 110.98 162.05 110.31 162.32"/><polygon class="cls-133" points="109.63 162.59 165.29 93.11 165.57 93.33 110.31 162.32 109.63 162.59"/><polygon class="cls-134" points="108.95 162.86 165.01 92.88 165.29 93.11 109.63 162.59 108.95 162.86"/><polygon class="cls-135" points="108.27 163.13 164.72 92.66 165.01 92.88 108.95 162.86 108.27 163.13"/><polygon class="cls-136" points="107.59 163.4 164.44 92.43 164.72 92.66 108.27 163.13 107.59 163.4"/><polygon class="cls-137" points="106.92 163.67 164.16 92.21 164.44 92.43 107.59 163.4 106.92 163.67"/><polygon class="cls-137" points="106.24 163.94 163.88 91.98 164.16 92.21 106.92 163.67 106.24 163.94"/><polygon class="cls-138" points="105.56 164.21 163.6 91.76 163.88 91.98 106.24 163.94 105.56 164.21"/><polygon class="cls-139" points="104.89 164.47 163.32 91.53 163.6 91.76 105.56 164.21 104.89 164.47"/><polygon class="cls-140" points="104.21 164.75 163.04 91.31 163.32 91.53 104.89 164.47 104.21 164.75"/><polygon class="cls-141" points="103.53 165.01 162.76 91.08 163.04 91.31 104.21 164.75 103.53 165.01"/><polygon class="cls-142" points="102.85 165.28 162.25 91.14 162.64 90.99 162.76 91.08 103.53 165.01 102.85 165.28"/><polygon class="cls-143" points="102.17 165.55 161.57 91.41 162.25 91.14 102.85 165.28 102.17 165.55"/><polygon class="cls-144" points="101.5 165.82 160.89 91.68 161.57 91.41 102.17 165.55 101.5 165.82"/><polygon class="cls-145" points="100.82 166.09 160.21 91.95 160.89 91.68 101.5 165.82 100.82 166.09"/><polygon class="cls-146" points="100.14 166.36 159.54 92.22 160.21 91.95 100.82 166.09 100.14 166.36"/><polygon class="cls-147" points="99.47 166.63 158.86 92.49 159.54 92.22 100.14 166.36 99.47 166.63"/><polygon class="cls-148" points="98.79 166.9 158.18 92.76 158.86 92.49 99.47 166.63 98.79 166.9"/><polygon class="cls-149" points="98.11 167.17 157.5 93.03 158.18 92.76 98.79 166.9 98.11 167.17"/><polygon class="cls-149" points="97.43 167.44 156.83 93.3 157.5 93.03 98.11 167.17 97.43 167.44"/><polygon class="cls-150" points="96.76 167.71 156.15 93.57 156.83 93.3 97.43 167.44 96.76 167.71"/><polygon class="cls-151" points="96.08 167.98 155.47 93.84 156.15 93.57 96.76 167.71 96.08 167.98"/><polygon class="cls-152" points="95.4 168.25 154.79 94.11 155.47 93.84 96.08 167.98 95.4 168.25"/><polygon class="cls-152" points="94.23 168.71 153.62 94.57 154.79 94.11 95.4 168.25 94.23 168.71"/><polygon class="cls-153" points="93.06 169.18 152.45 95.04 153.62 94.57 94.23 168.71 93.06 169.18"/><polygon class="cls-154" points="91.88 169.65 151.28 95.51 152.45 95.04 93.06 169.18 91.88 169.65"/><polygon class="cls-155" points="90.71 170.11 150.1 95.97 151.28 95.51 91.88 169.65 90.71 170.11"/><polygon class="cls-155" points="89.54 170.58 148.93 96.44 150.1 95.97 90.71 170.11 89.54 170.58"/><polygon class="cls-156" points="88.36 171.04 147.76 96.91 148.93 96.44 89.54 170.58 88.36 171.04"/><polygon class="cls-157" points="87.19 171.51 146.58 97.37 147.76 96.91 88.36 171.04 87.19 171.51"/><polygon class="cls-158" points="86.02 171.98 145.41 97.84 146.58 97.37 87.19 171.51 86.02 171.98"/><polygon class="cls-159" points="84.84 172.44 144.24 98.3 145.41 97.84 86.02 171.98 84.84 172.44"/><polygon class="cls-160" points="83.67 172.91 143.07 98.77 144.24 98.3 84.84 172.44 83.67 172.91"/><polygon class="cls-161" points="82.5 173.38 141.89 99.24 143.07 98.77 83.67 172.91 82.5 173.38"/><polygon class="cls-162" points="81.33 173.84 140.72 99.7 141.89 99.24 82.5 173.38 81.33 173.84"/><polygon class="cls-163" points="80.15 174.31 139.55 100.17 140.72 99.7 81.33 173.84 80.15 174.31"/><polygon class="cls-164" points="78.98 174.78 138.38 100.64 139.55 100.17 80.15 174.31 78.98 174.78"/><polygon class="cls-165" points="77.81 175.24 137.2 101.1 138.38 100.64 78.98 174.78 77.81 175.24"/><polygon class="cls-166" points="76.64 175.71 136.03 101.57 137.2 101.1 77.81 175.24 76.64 175.71"/><polygon class="cls-167" points="75.46 176.17 134.86 102.03 136.03 101.57 76.64 175.71 75.46 176.17"/><polygon class="cls-168" points="74.29 176.64 133.68 102.5 134.86 102.03 75.46 176.17 74.29 176.64"/><polygon class="cls-169" points="73.12 177.11 132.51 102.97 133.68 102.5 74.29 176.64 73.12 177.11"/><polygon class="cls-170" points="71.94 177.57 131.34 103.43 132.51 102.97 73.12 177.11 71.94 177.57"/><polygon class="cls-171" points="70.77 178.04 130.16 103.9 131.34 103.43 71.94 177.57 70.77 178.04"/><polygon class="cls-172" points="69.6 178.51 128.99 104.37 130.16 103.9 70.77 178.04 69.6 178.51"/><polygon class="cls-173" points="68.43 178.97 127.82 104.83 128.99 104.37 69.6 178.51 68.43 178.97"/><polygon class="cls-174" points="67.25 179.44 126.65 105.3 127.82 104.83 68.43 178.97 67.25 179.44"/><polygon class="cls-175" points="66.08 179.91 125.47 105.77 126.65 105.3 67.25 179.44 66.08 179.91"/><polygon class="cls-176" points="64.91 180.37 124.3 106.23 125.47 105.77 66.08 179.91 64.91 180.37"/><polygon class="cls-177" points="63.73 180.84 123.13 106.7 124.3 106.23 64.91 180.37 63.73 180.84"/><polygon class="cls-178" points="62.56 181.3 121.95 107.16 123.13 106.7 63.73 180.84 62.56 181.3"/><polygon class="cls-179" points="61.39 181.77 120.78 107.63 121.95 107.16 62.56 181.3 61.39 181.77"/><polygon class="cls-180" points="60.22 182.24 119.61 108.1 120.78 107.63 61.39 181.77 60.22 182.24"/><polygon class="cls-180" points="59.04 182.7 118.44 108.56 119.61 108.1 60.22 182.24 59.04 182.7"/><polygon class="cls-181" points="57.87 183.17 117.26 109.03 118.44 108.56 59.04 182.7 57.87 183.17"/><polygon class="cls-182" points="56.7 183.63 116.09 109.5 117.26 109.03 57.87 183.17 56.7 183.63"/><polygon class="cls-183" points="55.52 184.1 114.92 109.96 116.09 109.5 56.7 183.63 55.52 184.1"/><polygon class="cls-184" points="54.35 184.57 113.75 110.43 114.92 109.96 55.52 184.1 54.35 184.57"/><polygon class="cls-185" points="53.18 185.03 112.57 110.89 113.75 110.43 54.35 184.57 53.18 185.03"/><polygon class="cls-186" points="52.01 185.5 111.4 111.36 112.57 110.89 53.18 185.03 52.01 185.5"/><polygon class="cls-187" points="50.87 185.95 50.85 185.94 110.23 111.83 111.4 111.36 52.01 185.5 50.87 185.95"/><polygon class="cls-187" points="50.85 185.94 50.37 185.55 109.05 112.29 110.23 111.83 50.85 185.94"/><polygon class="cls-188" points="50.37 185.55 49.88 185.16 107.88 112.76 109.05 112.29 50.37 185.55"/><polygon class="cls-189" points="49.88 185.16 49.39 184.77 106.71 113.23 107.88 112.76 49.88 185.16"/><polygon class="cls-190" points="49.39 184.77 49.11 184.54 49 184.27 105.53 113.69 106.71 113.23 49.39 184.77"/><polygon class="cls-190" points="48.73 183.6 104.36 114.16 105.53 113.69 49 184.27 48.73 183.6"/><polygon class="cls-191" points="48.47 182.93 103.19 114.63 104.36 114.16 48.73 183.6 48.47 182.93"/><polygon class="cls-192" points="48.2 182.27 102.02 115.09 103.19 114.63 48.47 182.93 48.2 182.27"/><polygon class="cls-193" points="47.94 181.6 100.84 115.56 102.02 115.09 48.2 182.27 47.94 181.6"/><polygon class="cls-194" points="47.67 180.93 99.67 116.02 100.84 115.56 47.94 181.6 47.67 180.93"/><polygon class="cls-195" points="47.41 180.27 98.5 116.49 99.67 116.02 47.67 180.93 47.41 180.27"/><polygon class="cls-196" points="47.14 179.6 97.33 116.96 98.5 116.49 47.41 180.27 47.14 179.6"/><polygon class="cls-197" points="46.88 178.93 96.15 117.42 97.33 116.96 47.14 179.6 46.88 178.93"/><polygon class="cls-198" points="46.61 178.27 94.98 117.89 96.15 117.42 46.88 178.93 46.61 178.27"/><polygon class="cls-199" points="46.35 177.6 93.81 118.36 94.98 117.89 46.61 178.27 46.35 177.6"/><polygon class="cls-200" points="46.08 176.93 92.63 118.82 93.81 118.36 46.35 177.6 46.08 176.93"/><polygon class="cls-201" points="45.82 176.27 91.46 119.29 92.63 118.82 46.08 176.93 45.82 176.27"/><polygon class="cls-22" points="45.55 175.6 90.29 119.75 91.46 119.29 45.82 176.27 45.55 175.6"/><polygon class="cls-23" points="45.29 174.93 89.12 120.22 90.29 119.75 45.55 175.6 45.29 174.93"/><polygon class="cls-4" points="45.02 174.27 87.94 120.69 89.12 120.22 45.29 174.93 45.02 174.27"/><polygon class="cls-5" points="44.76 173.6 86.77 121.15 87.94 120.69 45.02 174.27 44.76 173.6"/><polygon class="cls-6" points="44.49 172.93 85.6 121.62 86.77 121.15 44.76 173.6 44.49 172.93"/><polygon class="cls-7" points="44.23 172.27 84.42 122.09 85.6 121.62 44.49 172.93 44.23 172.27"/><polygon class="cls-8" points="43.96 171.6 83.25 122.55 84.42 122.09 44.23 172.27 43.96 171.6"/><polygon class="cls-9" points="43.7 170.93 82.08 123.02 83.25 122.55 43.96 171.6 43.7 170.93"/><polygon class="cls-10" points="43.43 170.26 80.91 123.49 82.08 123.02 43.7 170.93 43.43 170.26"/><polygon class="cls-11" points="43.17 169.6 79.73 123.95 80.91 123.49 43.43 170.26 43.17 169.6"/><polygon class="cls-12" points="42.9 168.93 78.56 124.42 79.73 123.95 43.17 169.6 42.9 168.93"/><polygon class="cls-13" points="42.64 168.26 77.39 124.89 78.56 124.42 42.9 168.93 42.64 168.26"/><polygon class="cls-14" points="42.37 167.6 76.22 125.35 77.39 124.89 42.64 168.26 42.37 167.6"/><polygon class="cls-14" points="42.1 166.93 75.04 125.82 76.22 125.35 42.37 167.6 42.1 166.93"/><polygon class="cls-15" points="41.84 166.26 73.87 126.28 75.04 125.82 42.1 166.93 41.84 166.26"/><polygon class="cls-16" points="41.58 165.6 72.7 126.75 73.87 126.28 41.84 166.26 41.58 165.6"/><polygon class="cls-16" points="41.31 164.93 71.52 127.22 72.7 126.75 41.58 165.6 41.31 164.93"/><polygon class="cls-17" points="41.05 164.26 70.35 127.68 71.52 127.22 41.31 164.93 41.05 164.26"/><polygon class="cls-18" points="40.78 163.6 69.18 128.15 70.35 127.68 41.05 164.26 40.78 163.6"/><polygon class="cls-18" points="40.52 162.93 68 128.62 69.18 128.15 40.78 163.6 40.52 162.93"/><polygon class="cls-19" points="40.25 162.26 66.83 129.08 68 128.62 40.52 162.93 40.25 162.26"/><polygon class="cls-20" points="39.98 161.6 65.66 129.55 66.83 129.08 40.25 162.26 39.98 161.6"/><polygon class="cls-20" points="39.75 161 64.6 129.97 65.66 129.55 39.98 161.6 39.75 161"/><polygon class="cls-20" points="39.51 160.4 63.55 130.39 64.6 129.97 39.75 161 39.51 160.4"/><polygon class="cls-24" points="39.27 159.79 62.49 130.81 63.55 130.39 39.51 160.4 39.27 159.79"/><polygon class="cls-25" points="39.03 159.19 61.43 131.23 62.49 130.81 39.27 159.79 39.03 159.19"/><polygon class="cls-26" points="38.79 158.59 60.37 131.65 61.43 131.23 39.03 159.19 38.79 158.59"/><polygon class="cls-27" points="38.55 157.99 59.32 132.07 60.37 131.65 38.79 158.59 38.55 157.99"/><polygon class="cls-28" points="38.31 157.39 58.26 132.49 59.32 132.07 38.55 157.99 38.31 157.39"/><polygon class="cls-29" points="38.07 156.79 57.2 132.91 58.26 132.49 38.31 157.39 38.07 156.79"/><polygon class="cls-29" points="37.83 156.19 56.15 133.33 57.2 132.91 38.07 156.79 37.83 156.19"/><polygon class="cls-30" points="37.59 155.59 55.09 133.75 56.15 133.33 37.83 156.19 37.59 155.59"/><polygon class="cls-31" points="37.36 154.99 54.03 134.17 55.09 133.75 37.59 155.59 37.36 154.99"/><polygon class="cls-31" points="37.12 154.39 52.98 134.59 54.03 134.17 37.36 154.99 37.12 154.39"/><polygon class="cls-32" points="36.88 153.78 51.92 135.01 52.98 134.59 37.12 154.39 36.88 153.78"/><polygon class="cls-33" points="36.64 153.18 50.86 135.43 51.92 135.01 36.88 153.78 36.64 153.18"/><polygon class="cls-34" points="36.4 152.58 49.8 135.85 50.86 135.43 36.64 153.18 36.4 152.58"/><polygon class="cls-35" points="36.16 151.98 48.75 136.27 49.8 135.85 36.4 152.58 36.16 151.98"/><polygon class="cls-35" points="35.92 151.38 47.69 136.69 48.75 136.27 36.16 151.98 35.92 151.38"/><polygon class="cls-36" points="35.68 150.78 46.63 137.11 47.69 136.69 35.92 151.38 35.68 150.78"/><polygon class="cls-36" points="35.45 150.18 45.58 137.53 46.63 137.11 35.68 150.78 35.45 150.18"/><polygon class="cls-37" points="35.21 149.58 44.52 137.95 45.58 137.53 35.45 150.18 35.21 149.58"/><polygon class="cls-38" points="34.97 148.98 43.46 138.37 44.52 137.95 35.21 149.58 34.97 148.98"/><polygon class="cls-39" points="34.73 148.38 42.4 138.79 43.46 138.37 34.97 148.98 34.73 148.38"/><polygon class="cls-40" points="34.49 147.78 41.35 139.22 42.4 138.79 34.73 148.38 34.49 147.78"/><polygon class="cls-41" points="34.25 147.18 40.29 139.63 41.35 139.22 34.49 147.78 34.25 147.18"/><polygon class="cls-41" points="34.01 146.57 39.23 140.06 40.29 139.63 34.25 147.18 34.01 146.57"/><polygon class="cls-42" points="33.77 145.97 38.18 140.48 39.23 140.06 34.01 146.57 33.77 145.97"/><polygon class="cls-42" points="33.53 145.37 37.12 140.9 38.18 140.48 33.77 145.97 33.53 145.37"/><polygon class="cls-43" points="33.29 144.77 36.06 141.32 37.12 140.9 33.53 145.37 33.29 144.77"/><polygon class="cls-44" points="33.05 144.17 35.01 141.74 36.06 141.32 33.29 144.77 33.05 144.17"/><polygon class="cls-44" points="32.82 143.57 33.95 142.16 35.01 141.74 33.05 144.17 32.82 143.57"/><polygon class="cls-45" points="32.58 142.97 32.89 142.58 33.95 142.16 32.82 143.57 32.58 142.97"/><polygon class="cls-46" points="32.89 142.58 32.58 142.97 32.49 142.74 32.89 142.58"/></g><path class="cls-102" d="M55.4,159.56a8.82,8.82,0,0,0,4.24-3.64,22.25,22.25,0,0,0,2.42-5.79,58.49,58.49,0,0,0,1.44-7c.36-2.5.8-5,1.3-7.39a41.22,41.22,0,0,1,2-6.8,14.7,14.7,0,0,1,3.52-5.3,19.39,19.39,0,0,0-4.8,1.85A21.73,21.73,0,0,0,61,128.62a13.41,13.41,0,0,0-3,4,5.88,5.88,0,0,0-.39,4.34,1.77,1.77,0,0,0,.75,1,1.89,1.89,0,0,0,1.41.15,3.35,3.35,0,0,0,1.39-.84,6.22,6.22,0,0,0,1.47-2.79,4.64,4.64,0,0,1,.8,3,9.71,9.71,0,0,1-.91,3.61,11.68,11.68,0,0,1-2.29,3.35A9.22,9.22,0,0,1,57,146.72a8.81,8.81,0,0,1-3.53,1.15,7.32,7.32,0,0,1-3.14-.36,5.69,5.69,0,0,1-3.71-4.3,10.53,10.53,0,0,1,.69-6.21,21.52,21.52,0,0,1,4-6.22,33.43,33.43,0,0,1,6.32-5.43,35.47,35.47,0,0,1,7.73-3.89,33.59,33.59,0,0,1,7.5-1.76,17.63,17.63,0,0,1,5.65.21,7.72,7.72,0,0,1,3.72,1.88,5.7,5.7,0,0,1,1.69,3.26,7.54,7.54,0,0,1-1,4.65,13.42,13.42,0,0,1-4.08,4.59,16.5,16.5,0,0,1,3.39,1.34,16,16,0,0,1,3,2,13.39,13.39,0,0,1,2.3,2.59,9.76,9.76,0,0,1,1.37,3,6.65,6.65,0,0,1,.41,2.73,17.08,17.08,0,0,1-.8,5.46,18.55,18.55,0,0,1-2.46,5,21.35,21.35,0,0,1-4,4.3A23.43,23.43,0,0,1,76.75,164,10.12,10.12,0,0,1,72,165a10.85,10.85,0,0,1-4.39-1,15.19,15.19,0,0,1-4,4.5,14.62,14.62,0,0,1-6.1,2.57,7,7,0,0,1-8-3.57A9.89,9.89,0,0,1,48.42,163a11.19,11.19,0,0,1,1.15-5,5.2,5.2,0,0,0,2.84,2.09A5.28,5.28,0,0,0,55.4,159.56ZM71.57,138.2c-.08,2.94-.16,5.88-.25,8.84a56.75,56.75,0,0,1-.88,8.52,8.68,8.68,0,0,0,3.83-2A12.49,12.49,0,0,0,77,150.09a12,12,0,0,0,1.28-4,8.21,8.21,0,0,0-.33-3.83,5.9,5.9,0,0,0-2.16-2.87A7.21,7.21,0,0,0,71.57,138.2Zm2-14.83a24.07,24.07,0,0,0-1.23,4.87q-.4,2.69-.59,5.64a9,9,0,0,0,2.56-1.47,8,8,0,0,0,1.57-1.73,7,7,0,0,0,.84-1.66,7.88,7.88,0,0,0,.33-1.32,3.78,3.78,0,0,0-.85-3A4.55,4.55,0,0,0,73.59,123.37Z" transform="translate(10.78 8.61)"/><path class="cls-102" d="M110.65,124.7a8.88,8.88,0,0,0-1,2.08,17.44,17.44,0,0,0-.59,2.42,16.17,16.17,0,0,0-.25,2.5,14.1,14.1,0,0,0,.12,2.38,7.38,7.38,0,0,0,.77,2.78c.39.69.86.93,1.41.71a2.67,2.67,0,0,0,1.23-1.11,11.35,11.35,0,0,0,1-1.91,16.81,16.81,0,0,0,.68-2.19c.17-.75.3-1.39.4-1.92a10.93,10.93,0,0,1,1.06,2,6.66,6.66,0,0,1,.44,1.89,6.85,6.85,0,0,1-.2,2.06,24.62,24.62,0,0,1-.79,2.49c-.19.49-.4,1-.65,1.56a11.29,11.29,0,0,1-.92,1.61,8.37,8.37,0,0,1-1.24,1.42,5.09,5.09,0,0,1-1.59,1,4.14,4.14,0,0,1-2.73.16,5,5,0,0,1-2.07-1.3,13.24,13.24,0,0,1-2.18,3.35,9.14,9.14,0,0,1-3.21,2.3,7.87,7.87,0,0,1-2.29.51,5.68,5.68,0,0,1-2.4-.35,5.92,5.92,0,0,1-2.24-1.51,8,8,0,0,1-1.71-3,9.71,9.71,0,0,1-.47-5.3,15.58,15.58,0,0,1,1.86-5,17.31,17.31,0,0,1,3.22-4,13.22,13.22,0,0,1,3.62-2.49,4.75,4.75,0,0,1,4.46,0,4.81,4.81,0,0,1,2.52-2.61A6.11,6.11,0,0,1,110.65,124.7ZM101.08,142a3.48,3.48,0,0,0,.88-.57,3.66,3.66,0,0,0,.87-1.43,2.17,2.17,0,0,1-1.42-.45,2.49,2.49,0,0,1-.9-1.4,5,5,0,0,0,2-2.15,3.69,3.69,0,0,0,.4-2.64,1.48,1.48,0,0,0-.54-.92,1.07,1.07,0,0,0-1.08,0,3.12,3.12,0,0,0-1.51,1.11,6,6,0,0,0-1,2,8.62,8.62,0,0,0-.41,2.4,6.15,6.15,0,0,0,.43,2.43q.41,1.31,1.11,1.56A1.85,1.85,0,0,0,101.08,142Z" transform="translate(10.78 8.61)"/><path class="cls-102" d="M119.19,140.76a2.65,2.65,0,0,1-2.53-.38,5.27,5.27,0,0,1-1.56-2.44,17,17,0,0,1-.79-3.84,38.75,38.75,0,0,1-.21-4.64c0-1.61.1-3.23.24-4.87s.3-3.14.47-4.51.35-2.55.52-3.52a15,15,0,0,1,.43-1.92,16.81,16.81,0,0,1,1.21-3,9.61,9.61,0,0,1,1.83-2.51,6.47,6.47,0,0,1,2.56-1.53,6.79,6.79,0,0,1,3.38-.1,7.81,7.81,0,0,0-1.17,1.74,13.75,13.75,0,0,0-.79,1.93,19.23,19.23,0,0,0-.53,1.88c-.14.6-.24,1.14-.32,1.62-.18,1.24-.35,2.44-.49,3.59s-.27,2.27-.36,3.37a11,11,0,0,1,2-2,8.32,8.32,0,0,1,2.64-1.39,12,12,0,0,1,2.17-.52,4.9,4.9,0,0,1,2.19.17,4.78,4.78,0,0,1,2,1.33,8.31,8.31,0,0,1,1.6,2.81,9.83,9.83,0,0,1,.52,3.87,15.27,15.27,0,0,1-.89,4.31,5.82,5.82,0,0,0,1.5-1.7,12.47,12.47,0,0,0,1-2.15,16.89,16.89,0,0,0,.68-2.42c.17-.84.37-1.67.58-2.47a7.3,7.3,0,0,1,.77,7.78,8.14,8.14,0,0,1-.69,1.41,12.13,12.13,0,0,1-1.11,1.6,13,13,0,0,1-1.46,1.52,5.89,5.89,0,0,1-1.75,1.08,8.34,8.34,0,0,1-2.62.65,12.11,12.11,0,0,1-1.92,1.73,8.93,8.93,0,0,1-2.25,1.17,6.36,6.36,0,0,1-2.21.4,5,5,0,0,1-2-.43l.3,1.47Zm1.67-12.15,0,.92a8.56,8.56,0,0,0,.08.91,5,5,0,0,0,.93,2.2,1.54,1.54,0,0,0,1.8.56,1.66,1.66,0,0,0,.84-.45,11.58,11.58,0,0,1-1.81-2.42,22.62,22.62,0,0,1-1.31-2.73,1.58,1.58,0,0,0-.13-.26,1.26,1.26,0,0,1-.13-.26,2.53,2.53,0,0,0-.19.73C120.94,128.07,120.9,128.33,120.86,128.61Zm2.91-5.06a2.46,2.46,0,0,0-.94,1.48,2.78,2.78,0,0,0,.27,1.67,6.3,6.3,0,0,0,1.21,1.7,8.43,8.43,0,0,0,1.85,1.44,9.62,9.62,0,0,0,.4-2.53,6.67,6.67,0,0,0-.33-2.41,2.34,2.34,0,0,0-1-1.39,1.54,1.54,0,0,0-1.4,0Z" transform="translate(10.78 8.61)"/><path class="cls-102" d="M152.91,112.08a6.8,6.8,0,0,1,.45,2.82,10.56,10.56,0,0,1-.58,3,8.77,8.77,0,0,1-1.46,2.65,5.36,5.36,0,0,1-2.17,1.65,4.39,4.39,0,0,1-1.85.34,3.42,3.42,0,0,1-1.53-.44,4,4,0,0,1-1.14-1,3.19,3.19,0,0,1-.62-1.42,4.42,4.42,0,0,0,.41,2.61,4.15,4.15,0,0,0,2,2.27,3.72,3.72,0,0,0,3.25-.07,8.59,8.59,0,0,0,4.41-4,21.39,21.39,0,0,0,1.95-6.4,9.18,9.18,0,0,1,1.42,3,6,6,0,0,1-.14,3,15.35,15.35,0,0,1-3.36,6.48,14.65,14.65,0,0,1-6,3.81,9.38,9.38,0,0,1-6.55.25,7.06,7.06,0,0,1-4.22-4.29,9.27,9.27,0,0,1-.56-4.18,13.71,13.71,0,0,1,1.25-4.69,16.82,16.82,0,0,1,3-4.45,16.48,16.48,0,0,1,4.8-3.52,6.66,6.66,0,0,1,2.45-.72,4.31,4.31,0,0,1,2,.31,4.42,4.42,0,0,1,1.6,1.18A6.12,6.12,0,0,1,152.91,112.08Zm-5.52,2a3.82,3.82,0,0,0-1.47,1.06,7.19,7.19,0,0,0-1.18,1.8,3.19,3.19,0,0,0,1,.94,1.7,1.7,0,0,0,1.72,0,2.26,2.26,0,0,0,1.4-1.46,2.59,2.59,0,0,0,.05-1.71,1.2,1.2,0,0,0-.54-.64A1.08,1.08,0,0,0,147.39,114.11Z" transform="translate(10.78 8.61)"/><path class="cls-102" d="M164.75,122.93a16.67,16.67,0,0,1-3.27,1,4.63,4.63,0,0,1-1.25.07,5.4,5.4,0,0,1-1.31-.24,4.16,4.16,0,0,1-1.23-.61,3.85,3.85,0,0,1-1-1,5.41,5.41,0,0,1-1.12,1.8,5,5,0,0,1-2,1.4,4.44,4.44,0,0,1-1.23.18,2,2,0,0,1-1.56-.65,10.43,10.43,0,0,0,1.7-1.78,14.49,14.49,0,0,0,1.51-2.52,21.7,21.7,0,0,0,1.17-3.1,23.85,23.85,0,0,0,.75-3.46l.74-4.26h0a6.49,6.49,0,0,1,1.16-3.72,9,9,0,0,1,3.77-3.11,5.94,5.94,0,0,1,2.7-.59,3.71,3.71,0,0,1,2.4.77,11.2,11.2,0,0,0-2.23,3.07,3.19,3.19,0,0,0,.68,3.85c.5.5,1,1,1.61,1.54a13.64,13.64,0,0,1,1.58,1.78,4.82,4.82,0,0,1,.89,2.38c0,.23,0,.44,0,.64s0,.41,0,.59a14.25,14.25,0,0,0,3.16-3.63,9.64,9.64,0,0,0,1.35-3.59,4.32,4.32,0,0,0-.52-2.87,3.49,3.49,0,0,0-2.46-1.55,6,6,0,0,1,2.67-2.47,4.43,4.43,0,0,1,3-.3,3.93,3.93,0,0,1,2.31,1.83,5.86,5.86,0,0,1,.67,3.8,11.08,11.08,0,0,1-1,3.25,16.83,16.83,0,0,1-2.61,4,26.3,26.3,0,0,1-4.5,4.05A30.47,30.47,0,0,1,164.75,122.93Zm-5.14-7a5.37,5.37,0,0,0-.44-.82,12.83,12.83,0,0,1-.64-1.19c-.14,1-.31,2-.5,3s-.39,2-.61,2.93a1.29,1.29,0,0,0,1.63.25,2,2,0,0,0,1.27-1.77A4,4,0,0,0,159.61,116Z" transform="translate(10.78 8.61)"/><path class="cls-102" d="M153.87,96.92a8.78,8.78,0,1,1,4.91-11.4A8.79,8.79,0,0,1,153.87,96.92Zm-5.6-14.09a6.39,6.39,0,1,0,8.29,3.58A6.4,6.4,0,0,0,148.27,82.83Z" transform="translate(10.78 8.61)"/><rect class="cls-102" x="149.43" y="81.19" width="2.39" height="15.16" transform="translate(-11.36 70.54) rotate(-21.68)"/><polygon class="cls-102" points="158.63 104.6 156.63 103.29 161.06 96.51 168.94 98.39 168.38 100.72 162.14 99.23 158.63 104.6"/><g id="jA2Ehq.tif"><path class="cls-102" d="M136.12,93.46l.44.6a3.82,3.82,0,0,1,.26.74,6.87,6.87,0,0,1,0,2.35,19.43,19.43,0,0,1-.92,3.83l-.05,0a19.64,19.64,0,0,1-3.25-.13,9.27,9.27,0,0,1-2.48-.6A3.12,3.12,0,0,1,128.23,98a2.13,2.13,0,0,1,1.56-2.7,2.86,2.86,0,0,1,2,.2s.08.06.12,0,0-.08,0-.13a3,3,0,0,1,0-1.11,2.27,2.27,0,0,1,1.53-1.77,2.23,2.23,0,0,1,2.09.41A4.88,4.88,0,0,1,136.12,93.46Z" transform="translate(10.78 8.61)"/></g><path class="cls-102" d="M119.8,49.31a2.32,2.32,0,0,1,1.43.37,3.32,3.32,0,0,1,.91,1,3.58,3.58,0,0,1,.49,1.21A3.26,3.26,0,0,1,122.7,53a2.89,2.89,0,0,1-.74,1.84,17.68,17.68,0,0,1-1.35,1.25,7.1,7.1,0,0,0-1.23,1.34,2.9,2.9,0,0,0-.39,2,2.35,2.35,0,0,1-1.41-.38,4.48,4.48,0,0,1-1.19-1.12,5.34,5.34,0,0,1-.83-1.61,4.36,4.36,0,0,1-.2-1.9,6.07,6.07,0,0,1,1.45-3.62A4.09,4.09,0,0,1,119.8,49.31Z" transform="translate(10.78 8.61)"/><path class="cls-220" d="M148.07,38.82a5.13,5.13,0,0,0-2.65-1.13,10.41,10.41,0,0,0-3.19.33,5,5,0,0,0-1.35.51c-.07,0-.89.76-.88.77a2.91,2.91,0,0,1,1.42,1.48,7.37,7.37,0,0,1,.39,1.76,6.39,6.39,0,0,0,.51,2.53,3.41,3.41,0,0,0,1.78,1.5,5.18,5.18,0,0,0,2.61.31,5.63,5.63,0,0,0,2.78-.8c1-.87,1-2.65.74-3.89,0,0,0-.07,0-.11A5.74,5.74,0,0,0,148.07,38.82Z" transform="translate(10.78 8.61)"/><path class="cls-102" d="M150.12,45.41a2.33,2.33,0,0,1-1.13,1,3.31,3.31,0,0,1-1.31.19,3.62,3.62,0,0,1-1.27-.3,3.45,3.45,0,0,1-1-.59A2.91,2.91,0,0,1,144.37,44c-.11-.61-.2-1.22-.25-1.83a6.67,6.67,0,0,0-.39-1.77,2.89,2.89,0,0,0-1.41-1.48,2.4,2.4,0,0,1,1.12-.93,4.62,4.62,0,0,1,1.61-.33,5.38,5.38,0,0,1,1.79.25,4.45,4.45,0,0,1,1.67.93,6,6,0,0,1,2.12,3.27A4.08,4.08,0,0,1,150.12,45.41Z" transform="translate(10.78 8.61)"/><path d="M92.6,193.9c-.58-1.46-1-2.83-.71-3.75A3.94,3.94,0,0,0,90,195c1.23,3.08,4.56,2.14,4.8,2.08-1-.39-1.66-1.76-2.22-3.16Z" transform="translate(10.78 8.61)"/><path d="M76.46,197.31c-3.07,0-5-.45-5.86-2.56a3.48,3.48,0,0,1,0-2.89,5.44,5.44,0,0,0-1.09,6.06c1.12,2.81,3.41,3.08,6.3,3.15,2.67,0,5.15.31,6.2,2.94a4,4,0,0,1,0,3.17,6,6,0,0,0,.85-6.46c-1.2-3-3.51-3.31-6.42-3.41Z" transform="translate(10.78 8.61)"/><path d="M85.83,192.3l-3.24,1.44a2.59,2.59,0,0,1,1,1.35l3.57,9a1.48,1.48,0,0,1,.09,1l3.37-1.34a1.54,1.54,0,0,1-.58-.79L85.83,192.3Z" transform="translate(10.78 8.61)"/><path d="M103.52,185.31l-3.21,1.43a1.83,1.83,0,0,1,.92,1.12l3.65,9.18a1.53,1.53,0,0,1,.11,1l3.36-1.34a1.56,1.56,0,0,1-.6-.79l-4.23-10.58Z" transform="translate(10.78 8.61)"/><path d="M118.75,188.87a3,3,0,0,1,.11-3.07,8,8,0,0,0-2.61,2,3,3,0,0,0-.32,2.77,2.87,2.87,0,0,0,4,1.68,3.51,3.51,0,0,0,1.9-1.78,1.74,1.74,0,0,1-.33.18c-.41.16-1.82.51-2.74-1.82Z" transform="translate(10.78 8.61)"/><path d="M125.7,169.6,122.49,171a1.8,1.8,0,0,1,.88,1.1l6,15.16a1.48,1.48,0,0,1,.12,1l3.36-1.34a1.51,1.51,0,0,1-.6-.79L125.7,169.6Z" transform="translate(10.78 8.61)"/><path d="M155.07,168.37c-.79-2-2-2.63-3.6-2a4,4,0,0,0-2.05,2,2.16,2.16,0,0,1,.34-.17c.49-.2,1.72-.46,2.44,1.37l3,7.49a1.56,1.56,0,0,1,.11,1l3.36-1.34a1.5,1.5,0,0,1-.59-.79l-3-7.52Z" transform="translate(10.78 8.61)"/><path d="M144.79,162l-3.2,1.42a1.87,1.87,0,0,1,.87,1.11l6,15.16a1.47,1.47,0,0,1,.11,1l3.36-1.34a1.5,1.5,0,0,1-.59-.79L144.79,162Z" transform="translate(10.78 8.61)"/><path d="M161.72,162.35l.09,0c1.35.65,2.31,3.27,2.76,4.78l0,.08,2.89-1.15a6.15,6.15,0,0,0-3-3.5,4.13,4.13,0,0,0-2.78-.25Z" transform="translate(10.78 8.61)"/><path d="M172.32,164.73c-1.19-3-1.77-4.95-1.28-6.07-2.29,1.5-3,4.25-1.77,7.32s3.66,4.64,6.45,4.05c-1.23-.45-2.24-2.37-3.4-5.3Z" transform="translate(10.78 8.61)"/><path d="M173.09,157.8c1.23.45,2.23,2.36,3.39,5.28s1.77,5,1.26,6.12c2.31-1.5,3-4.26,1.79-7.37s-3.66-4.62-6.44-4Z" transform="translate(10.78 8.61)"/><path d="M182.3,154l-3.2,1.42a1.79,1.79,0,0,1,.9,1.1l3.66,9.2a1.47,1.47,0,0,1,.11,1l3.43-1.36a1.37,1.37,0,0,1-.68-.82L182.3,154Z" transform="translate(10.78 8.61)"/><path d="M192.11,150.41a.75.75,0,0,1,0-.16l-4,1.59a4.1,4.1,0,0,1,1.54,1.19h0l8.62,9-.13-4.17-5.46-6a1.83,1.83,0,0,1-.61-1.4Z" transform="translate(10.78 8.61)"/><path d="M96.14,184.87a1.64,1.64,0,1,0,2.12.91,1.63,1.63,0,0,0-2.12-.91Z" transform="translate(10.78 8.61)"/><polygon points="206.05 157.61 209.28 161.6 209.33 156.33 206.05 157.61 206.05 157.61"/><path d="M83.27,190.36a1.64,1.64,0,1,0-1.21-3,1.64,1.64,0,0,0,1.21,3Z" transform="translate(10.78 8.61)"/><path d="M185.22,153.1a1.64,1.64,0,1,0,2.12.91,1.63,1.63,0,0,0-2.12-.91Z" transform="translate(10.78 8.61)"/><path d="M195.66,164.2a1.64,1.64,0,1,0,2.12.91,1.63,1.63,0,0,0-2.12-.91Z" transform="translate(10.78 8.61)"/><path d="M137.85,165.14l-3.2,1.27,6.42,16.13a1.73,1.73,0,0,1,.13,1.08l3.72-1.48a1.67,1.67,0,0,1-.66-.87l-6.41-16.13Z" transform="translate(10.78 8.61)"/><path d="M96.17,192.5c.58,1.45,1,2.83.71,3.74a3.94,3.94,0,0,0,1.87-4.83c-1.23-3.07-4.56-2.14-4.8-2.08,1,.39,1.67,1.77,2.22,3.17Z" transform="translate(10.78 8.61)"/><path d="M97.92,198.19l-2.33.93c-2.92,1.16-2.83-.87-2.83-.87a2.28,2.28,0,0,0-.63,2.46c.78,1.95,2.79,1.24,3.1,1.11l2.9-1.15c.7-.28,2.85-1.13,3.63.84a2.77,2.77,0,0,1,.14,1.78,3.8,3.8,0,0,0,.72-3.73c-.75-1.88-2.28-2.33-4.7-1.37Z" transform="translate(10.78 8.61)"/><path d="M116,184.32a1.64,1.64,0,1,0-2.12-.91,1.63,1.63,0,0,0,2.12.91Z" transform="translate(10.78 8.61)"/><path d="M126.6,188.89c-.58-.14-.9-.75-1.1-1.27l-2.3-5.77c-1-2.48-2.51-3.12-5.23-2.16.79.14,1.44.84,1.94,2.12l2.77,7a2.16,2.16,0,0,0,3.09,1.12s1.12-.43,1.37-1a1,1,0,0,1-.54,0Z" transform="translate(10.78 8.61)"/><path d="M161.11,169.19s-1.87-4.63-1.23-6.11c-2.26,1.48-3,4.35-1.71,7.49,2.63,6.6,8.36,3.43,9.11,2.51-.13.07-3.73,2.27-6.17-3.89Z" transform="translate(10.78 8.61)"/><path d="M111.41,185.73c-1-2.64-2.55-2.4-3.58-2a4,4,0,0,0-2,2c.11-.07,1.79-1.24,2.76,1.2l3,7.5a1.53,1.53,0,0,1,.11,1L115,194a1.5,1.5,0,0,1-.59-.79l-3-7.52Z" transform="translate(10.78 8.61)"/><polygon points="84.36 199.3 88 197.85 89.46 201.53 84.36 199.3 84.36 199.3"/><polygon points="143.89 175.63 140.25 177.07 141.7 180.71 143.89 175.63 143.89 175.63"/><polygon points="89.72 216.98 85.41 218.7 83.69 214.38 89.72 216.98 89.72 216.98"/><polygon points="108.15 213.65 105.26 214.8 104.11 211.9 108.15 213.65 108.15 213.65"/><path class="cls-221" d="M61.25,206a2.1,2.1,0,0,1,1.18,1.31l1,2.63-1.25.5-.23-.58a1.6,1.6,0,0,1-1.15,1.2,2.34,2.34,0,0,1-1,.19,1.49,1.49,0,0,1-.8-.26,1.43,1.43,0,0,1-.49-.64,1.3,1.3,0,0,1,.08-1.2,2.62,2.62,0,0,1,1.35-1l1.06-.43a.87.87,0,0,0-.53-.56,1.24,1.24,0,0,0-.89.08,2.34,2.34,0,0,0-.68.4,2.2,2.2,0,0,0-.48.55l-.85-.74a3.15,3.15,0,0,1,.74-.77,4.34,4.34,0,0,1,1-.58A2.59,2.59,0,0,1,61.25,206Zm.12,3.63a1,1,0,0,0,.19-.62l-.19-.47-.91.37c-.55.21-.75.5-.61.86a.52.52,0,0,0,.36.33,1,1,0,0,0,.61-.07A1.25,1.25,0,0,0,61.37,209.59Z" transform="translate(10.78 8.61)"/><path class="cls-221" d="M67.57,208a1.29,1.29,0,0,1-.4.41,2.62,2.62,0,0,1-.57.32,1.92,1.92,0,0,1-1.44.08,1.71,1.71,0,0,1-.94-1l-.76-1.9-.71.29-.41-1,.72-.28-.45-1.13,1.34-.53.44,1.12,1.15-.45.41,1-1.15.45.75,1.88a.65.65,0,0,0,.33.39.58.58,0,0,0,.48,0,.89.89,0,0,0,.48-.39Z" transform="translate(10.78 8.61)"/><g class="cls-222"><path class="cls-223" d="M202.78,116.36a43.9,43.9,0,1,0-38.47-48.72A43.89,43.89,0,0,0,202.78,116.36Z" transform="translate(10.78 8.61)"/><path class="cls-224" d="M202.49,118.83A46.38,46.38,0,1,1,254,78.18,46.44,46.44,0,0,1,202.49,118.83Zm10.25-87.2A41.42,41.42,0,1,0,249,77.6,41.48,41.48,0,0,0,212.74,31.63Z" transform="translate(10.78 8.61)"/><path class="cls-224" d="M204.53,101.43a28.91,28.91,0,0,1-25.29-32l4.93.58a23.9,23.9,0,0,0,47.47,5.58l4.92.57A28.9,28.9,0,0,1,204.53,101.43Z" transform="translate(10.78 8.61)"/><path class="cls-224" d="M198.45,63.91c2.68.31,5.31-3.26,5.86-8s-1.17-8.81-3.85-9.12-5.3,3.25-5.86,8S195.77,63.59,198.45,63.91Z" transform="translate(10.78 8.61)"/><path class="cls-223" d="M198.31,65.14c-3.43-.4-5.59-5-4.94-10.5s3.81-9.47,7.24-9.07,5.58,5,4.93,10.5S201.73,65.54,198.31,65.14Zm2-17.1c-1.73-.2-4,2.58-4.49,6.89s1.06,7.55,2.77,7.75,4-2.58,4.48-6.9S202,48.24,200.32,48Z" transform="translate(10.78 8.61)"/><path class="cls-224" d="M219.15,66.34c2.68.32,5.31-3.26,5.86-8s-1.17-8.81-3.85-9.12-5.3,3.26-5.86,8S216.47,66,219.15,66.34Z" transform="translate(10.78 8.61)"/><path class="cls-223" d="M219,67.57c-3.43-.4-5.59-5-4.94-10.49s3.81-9.48,7.24-9.07,5.58,5,4.93,10.5S222.43,68,219,67.57Zm2-17.1c-1.73-.2-4,2.58-4.49,6.89s1.07,7.55,2.77,7.75,4-2.58,4.48-6.89S222.72,50.67,221,50.47Z" transform="translate(10.78 8.61)"/></g></g></g></svg>