<svg xmlns="http://www.w3.org/2000/svg" viewBox="0 0 225.17 66.26"><defs><style>.cls-1{fill:#282561;}</style></defs><g id="Layer_2" data-name="Layer 2"><g id="Layer_1-2" data-name="Layer 1"><path class="cls-1" d="M78.87,54.29c0-1.36.06-2.62.63-3.26a3.41,3.41,0,0,0-3.06,3.31c0,2.88,3,3.2,3.21,3.23-.67-.64-.78-2-.78-3.28Z"/><path class="cls-1" d="M64.72,51.87c-2.48-1-3.92-2-3.92-4a3,3,0,0,1,1-2.33,4.73,4.73,0,0,0-2.83,4.55c0,2.63,1.77,3.59,4.08,4.57,2.14.9,4.07,1.91,4.07,4.38a3.48,3.48,0,0,1-1,2.56,5.26,5.26,0,0,0,2.76-5c0-2.82-1.77-3.82-4.09-4.82Z"/><path class="cls-1" d="M73.91,50.82l-3.09.12a2.22,2.22,0,0,1,.39,1.42v8.42a1.23,1.23,0,0,1-.25.83h3.17a1.3,1.3,0,0,1-.22-.83v-10Z"/><path class="cls-1" d="M90.46,50.86l-3,.12a1.63,1.63,0,0,1,.38,1.2v8.6a1.3,1.3,0,0,1-.23.83h3.15a1.37,1.37,0,0,1-.23-.83l0-9.92Z"/><path class="cls-1" d="M101.63,58.63a2.61,2.61,0,0,1,1.08-2.45,7.11,7.11,0,0,0-2.77.82,2.59,2.59,0,0,0-1.15,2.14,2.5,2.5,0,0,0,2.69,2.64,3,3,0,0,0,2.11-.83,1.86,1.86,0,0,1-.33,0c-.38,0-1.63-.17-1.63-2.36Z"/><path class="cls-1" d="M113.45,45.29l-3,.12a1.58,1.58,0,0,1,.35,1.17v14.2a1.3,1.3,0,0,1-.23.83h3.15a1.3,1.3,0,0,1-.22-.83V45.29Z"/><path class="cls-1" d="M137.6,53.74c0-1.86-.75-2.76-2.28-2.76a3.45,3.45,0,0,0-2.29.92,1.86,1.86,0,0,1,.34,0c.46,0,1.53.19,1.53,1.9v7a1.37,1.37,0,0,1-.23.83h3.15a1.3,1.3,0,0,1-.22-.83v-7Z"/><path class="cls-1" d="M131.32,45.29l-3,.12a1.58,1.58,0,0,1,.35,1.17v14.2a1.3,1.3,0,0,1-.22.83h3.14a1.37,1.37,0,0,1-.23-.83V45.29Z"/><path class="cls-1" d="M144.91,51l.06.07c.88,1,.81,3.39.69,4.75v.07h2.71a5.37,5.37,0,0,0-1.29-3.79,3.69,3.69,0,0,0-2.17-1.1Z"/><path class="cls-1" d="M152.71,56.34c0-2.79.17-4.57.92-5.32-2.33.48-3.78,2.47-3.78,5.34s1.47,4.94,3.91,5.36c-.85-.76-1-2.64-1-5.38Z"/><path class="cls-1" d="M155.56,51c.86.76,1.05,2.63,1.05,5.36s-.17,4.6-1,5.36c2.35-.47,3.82-2.48,3.82-5.38S158,51.4,155.56,51Z"/><path class="cls-1" d="M164.24,50.86l-3,.12a1.56,1.56,0,0,1,.37,1.18v8.62a1.3,1.3,0,0,1-.22.83h3.2a1.24,1.24,0,0,1-.28-.88l0-9.87Z"/><path class="cls-1" d="M173.32,51.12l.09-.12h-3.75a3.71,3.71,0,0,1,.87,1.46h0l4.07,10,1.25-3.42-2.48-6.63a1.59,1.59,0,0,1-.05-1.33Z"/><path class="cls-1" d="M84.63,48.13a1.43,1.43,0,1,0,1.43,1.42,1.43,1.43,0,0,0-1.43-1.42Z"/><polygon class="cls-1" points="176.34 51 177.67 55.26 179.4 51.02 176.34 51 176.34 51"/><path class="cls-1" d="M72.46,48.43A1.43,1.43,0,1,0,71,47a1.42,1.42,0,0,0,1.42,1.42Z"/><path class="cls-1" d="M166.89,51.08a1.43,1.43,0,1,0,1.42,1.42,1.43,1.43,0,0,0-1.42-1.42Z"/><path class="cls-1" d="M171.76,63.41a1.43,1.43,0,1,0,1.42,1.43,1.43,1.43,0,0,0-1.42-1.43Z"/><path class="cls-1" d="M124.7,45.58h-3V60.69a1.49,1.49,0,0,1-.24.92H125a1.55,1.55,0,0,1-.25-.92V45.58Z"/><path class="cls-1" d="M82.21,54.31c0,1.36-.07,2.62-.63,3.26a3.42,3.42,0,0,0,3.06-3.31c0-2.88-3-3.2-3.21-3.23.66.64.78,2,.78,3.28Z"/><path class="cls-1" d="M81.79,59.48H79.61c-2.74,0-2-1.61-2-1.61a2,2,0,0,0-1.3,1.78c0,1.83,1.86,1.9,2.15,1.9h2.71c.66,0,2.67,0,2.67,1.84a2.43,2.43,0,0,1-.46,1.49,3.3,3.3,0,0,0,1.78-2.79c0-1.76-1.1-2.61-3.36-2.61Z"/><path class="cls-1" d="M100.9,54.08a1.42,1.42,0,1,0-1.43-1.42,1.42,1.42,0,0,0,1.43,1.42Z"/><path class="cls-1" d="M108,61.18a1.63,1.63,0,0,1-.48-1.39v-5.4c0-2.32-1-3.33-3.53-3.43.59.37.88,1.14.88,2.34v6.53a1.88,1.88,0,0,0,2.13,1.9,2.56,2.56,0,0,0,1.45-.39,1.06,1.06,0,0,1-.45-.16Z"/><path class="cls-1" d="M142.21,56.34s0-4.34,1-5.33c-2.31.47-3.79,2.56-3.79,5.5,0,6.18,5.65,5.46,6.55,5-.12,0-3.74.64-3.74-5.13Z"/><path class="cls-1" d="M96.7,53.74c0-2.48-1.28-2.76-2.25-2.76a3.5,3.5,0,0,0-2.29.92c.12,0,1.85-.42,1.85,1.86v7a1.37,1.37,0,0,1-.23.83h3.15a1.3,1.3,0,0,1-.23-.83v-7Z"/><polygon class="cls-1" points="64.52 45.58 67.93 45.58 67.93 49.03 64.52 45.58 64.52 45.58"/><polygon class="cls-1" points="120.27 45.58 116.87 45.58 116.87 48.99 120.27 45.58 120.27 45.58"/><polygon class="cls-1" points="63.17 61.61 59.13 61.61 59.13 57.57 63.17 61.61 63.17 61.61"/><polygon class="cls-1" points="79.15 64.84 76.44 64.84 76.44 62.12 79.15 64.84 79.15 64.84"/><path class="cls-1" d="M49.63,54a1.83,1.83,0,0,1,.54,1.44v2.47H49v-.54a1.39,1.39,0,0,1-1.32.6,1.94,1.94,0,0,1-.86-.17,1.19,1.19,0,0,1-.75-1.14,1.12,1.12,0,0,1,.45-.94,2.34,2.34,0,0,1,1.41-.35h1a.79.79,0,0,0-.25-.63,1.06,1.06,0,0,0-.74-.22,2.2,2.2,0,0,0-.68.11,1.91,1.91,0,0,0-.57.29L46.23,54a2.66,2.66,0,0,1,.85-.39,3.83,3.83,0,0,1,1-.13A2.27,2.27,0,0,1,49.63,54Zm-1.06,3a.82.82,0,0,0,.35-.44v-.44h-.86c-.51,0-.77.17-.77.51a.44.44,0,0,0,.19.38.89.89,0,0,0,.52.14A1.1,1.1,0,0,0,48.57,56.94Z"/><path class="cls-1" d="M54.09,57.66a1.16,1.16,0,0,1-.45.2,2.12,2.12,0,0,1-.57.07,1.69,1.69,0,0,1-1.19-.39,1.51,1.51,0,0,1-.42-1.16V54.61h-.67v-1h.67v-1h1.25v1h1.07v1H52.71v1.76a.61.61,0,0,0,.14.42.51.51,0,0,0,.4.15.85.85,0,0,0,.5-.16Z"/><path class="cls-1" d="M129.51,22s0,0,0,0,0,0,0,0v.07Z"/><path class="cls-1" d="M173.44,7.67A4.14,4.14,0,0,0,172,6a9.78,9.78,0,0,0-2.8-1.24A18.61,18.61,0,0,0,165,4.13a19.34,19.34,0,0,0-4.66.41A18.35,18.35,0,0,0,156.09,6a11.5,11.5,0,0,0-3.24,2.33,5.74,5.74,0,0,0-1.59,3,3,3,0,0,0,1,2.9,3.94,3.94,0,0,0,1.5.81,4.9,4.9,0,0,0,2,.13,5.08,5.08,0,0,0,2.09-.47,6.38,6.38,0,0,0,1.82-1.22,5.32,5.32,0,0,0,1.18-1.64,2.51,2.51,0,0,0,.2-1.68,3.33,3.33,0,0,1-1.29,1.11,1.69,1.69,0,0,1-.87.14,1,1,0,0,1-.68-.35.93.93,0,0,1-.17-.67,3.17,3.17,0,0,1,1.06-2.1,7.17,7.17,0,0,1,2.32-1.41,11.5,11.5,0,0,1,2.9-.7,10.74,10.74,0,0,1,2.79,0,8,8,0,0,0-2.83,2,22.34,22.34,0,0,0-2.38,3q-1.11,1.68-2.13,3.45a31.68,31.68,0,0,1-2.13,3.26,11.71,11.71,0,0,1-2.38,2.43,4.69,4.69,0,0,1-2.86,1,2.84,2.84,0,0,1-1.6-.34,2.74,2.74,0,0,1-1-1.62,6,6,0,0,0-1.58,2.29,5.3,5.3,0,0,0-.37,2.5,3.76,3.76,0,0,0,3.31,3.4,7.83,7.83,0,0,0,3.59-.07,8.27,8.27,0,0,0,2.9-1.46,5.94,5.94,0,0,0,2,1.38,5.71,5.71,0,0,0,2.61.44,12.91,12.91,0,0,0,3.31-.6,12,12,0,0,0,2.86-1.36,10.25,10.25,0,0,0,2.23-2,9.15,9.15,0,0,0,1.49-2.59,3.61,3.61,0,0,0,.35-1.45,5.48,5.48,0,0,0-.09-1.8,7.31,7.31,0,0,0-.64-1.76,8.4,8.4,0,0,0-1.08-1.61,9.21,9.21,0,0,0-1.44-1.35,7.27,7.27,0,0,0,3-1.49,4.12,4.12,0,0,0,1.4-2.15A3,3,0,0,0,173.44,7.67ZM166.6,19.1a6.4,6.4,0,0,1-1.45,1.76,6.54,6.54,0,0,1-2,1.19,4.65,4.65,0,0,1-2.33.26,30.59,30.59,0,0,0,2.14-4.11q1-2.2,1.9-4.4a3.83,3.83,0,0,1,1.86,1.43,3.15,3.15,0,0,1,.51,1.87A4.52,4.52,0,0,1,166.6,19.1Zm3.09-9.48a4.71,4.71,0,0,1-.43.6,3.86,3.86,0,0,1-.75.67,4.32,4.32,0,0,1-1.14.55,4.66,4.66,0,0,1-1.58.23c.46-1,.93-1.87,1.42-2.72a13.71,13.71,0,0,1,1.6-2.2,2.38,2.38,0,0,1,1.06,1.17A2,2,0,0,1,169.69,9.62Z"/><path class="cls-1" d="M214.08,9.5a4.75,4.75,0,1,0-4.75-4.75A4.75,4.75,0,0,0,214.08,9.5Zm.65-8.14a3.46,3.46,0,0,1,2.81,3.39,3.36,3.36,0,0,1-.43,1.63L214.73,4.7Zm0,4.92,1.57,1.1a3.39,3.39,0,0,1-1.57.76Zm-1.29,1.86a3.39,3.39,0,0,1-1.57-.76l1.57-1.1Zm0-6.78V4.7l-2.38,1.68a3.36,3.36,0,0,1-.43-1.63A3.46,3.46,0,0,1,213.44,1.36Z"/><path class="cls-1" d="M202.61,7.25a12.11,12.11,0,0,0,1.61.71h0a10.12,10.12,0,0,0,1.23-1.74A3.57,3.57,0,0,0,205.93,5a1.48,1.48,0,0,0,0-.42c0-.13-.07-.26-.1-.39a2.69,2.69,0,0,0-.19-.38,1.24,1.24,0,0,0-1-.63,1.28,1.28,0,0,0-1.13.59,1.59,1.59,0,0,0-.24.55s0,.06,0,.06,0,0,0,0a1.52,1.52,0,0,0-.94-.49,1.16,1.16,0,0,0-1.33,1,1.73,1.73,0,0,0,.51,1.53A5.63,5.63,0,0,0,202.61,7.25Z"/><path class="cls-1" d="M25.61,7.67A4.14,4.14,0,0,0,24.12,6a9.9,9.9,0,0,0-2.8-1.24,18.61,18.61,0,0,0-4.13-.61,19.34,19.34,0,0,0-4.66.41A18.35,18.35,0,0,0,8.26,6,11.5,11.5,0,0,0,5,8.34a5.67,5.67,0,0,0-1.59,3,3,3,0,0,0,1,2.9,3.94,3.94,0,0,0,1.5.81,4.9,4.9,0,0,0,2,.13A5.08,5.08,0,0,0,10,14.7a6.38,6.38,0,0,0,1.82-1.22A5.49,5.49,0,0,0,13,11.84a2.51,2.51,0,0,0,.2-1.68A3.4,3.4,0,0,1,12,11.27a1.69,1.69,0,0,1-.87.14,1,1,0,0,1-.69-.35,1,1,0,0,1-.17-.67,3.23,3.23,0,0,1,1.07-2.1,7.17,7.17,0,0,1,2.32-1.41,11.5,11.5,0,0,1,2.9-.7,10.75,10.75,0,0,1,2.79,0,8,8,0,0,0-2.83,2,21.58,21.58,0,0,0-2.38,3Q13,12.87,12,14.64A31.68,31.68,0,0,1,9.83,17.9a12,12,0,0,1-2.38,2.43,4.69,4.69,0,0,1-2.86,1A2.9,2.9,0,0,1,3,21a2.84,2.84,0,0,1-1-1.62A6.07,6.07,0,0,0,.4,21.64,5.18,5.18,0,0,0,0,24.14,3.89,3.89,0,0,0,1,26.31a4,4,0,0,0,2.38,1.23,7.78,7.78,0,0,0,3.58-.07A8.23,8.23,0,0,0,9.83,26a5.94,5.94,0,0,0,2,1.38,5.67,5.67,0,0,0,2.6.44,12.91,12.91,0,0,0,3.32-.6,12,12,0,0,0,2.86-1.36,10.49,10.49,0,0,0,2.23-2,9.15,9.15,0,0,0,1.49-2.59,3.58,3.58,0,0,0,.34-1.45,5.22,5.22,0,0,0-.08-1.8A7.31,7.31,0,0,0,24,16.25a8.4,8.4,0,0,0-1.08-1.61,9.21,9.21,0,0,0-1.44-1.35,7.16,7.16,0,0,0,3-1.49,4.08,4.08,0,0,0,1.41-2.15A3.07,3.07,0,0,0,25.61,7.67ZM18.77,19.1a6.4,6.4,0,0,1-1.45,1.76,6.66,6.66,0,0,1-2,1.19,4.67,4.67,0,0,1-2.34.26A29.51,29.51,0,0,0,15.1,18.2q1-2.2,1.89-4.4a3.82,3.82,0,0,1,1.87,1.43,3.15,3.15,0,0,1,.51,1.87A4.52,4.52,0,0,1,18.77,19.1Zm3.09-9.48a4.71,4.71,0,0,1-.43.6,3.86,3.86,0,0,1-.75.67,4.32,4.32,0,0,1-1.14.55,4.7,4.7,0,0,1-1.58.23c.46-1,.93-1.87,1.42-2.72A13.71,13.71,0,0,1,21,6.75,2.43,2.43,0,0,1,22,7.92,2,2,0,0,1,21.86,9.62Z"/><path class="cls-1" d="M77.31,18.21a2.19,2.19,0,0,0-.8-1.38A2.39,2.39,0,0,0,75,16.39a3.27,3.27,0,0,0-1.84.71,1.91,1.91,0,0,1,.93,1.27,2.4,2.4,0,0,1-.31,1.55,5.34,5.34,0,0,1-1.4,1.54A7.67,7.67,0,0,1,70,22.65q.06-.13.12-.3c0-.1.07-.21.11-.33a2.67,2.67,0,0,0,0-1.37,6.68,6.68,0,0,0-.44-1.21c-.18-.38-.35-.75-.5-1.1a2,2,0,0,1-.16-1,2,2,0,0,1,.59-1,6.09,6.09,0,0,1,1.73-1.09,2,2,0,0,0-1-.87A3.21,3.21,0,0,0,69,14.06a5,5,0,0,0-2.52.81,3.53,3.53,0,0,0-1.32,1.64h0l-1.22,2a12.4,12.4,0,0,1-2.28,2.91l-.22.19a4.7,4.7,0,0,1-2.73.94A2,2,0,0,1,57,21.93a2.27,2.27,0,0,1-.57-1.55,2.37,2.37,0,0,1,.31-1.4,1.7,1.7,0,0,0,0,.84,2,2,0,0,0,.37.74,1.92,1.92,0,0,0,.68.53,2.38,2.38,0,0,0,1,.2,3,3,0,0,0,1.42-.4,4.79,4.79,0,0,0,1.26-1,5.82,5.82,0,0,0,.9-1.41,3.63,3.63,0,0,0,.34-1.51,3.42,3.42,0,0,0-.18-1.12A2.6,2.6,0,0,0,62,14.9a2.29,2.29,0,0,0-1-.57,3.73,3.73,0,0,0-1.38-.13,9,9,0,0,0-5.53,2.45,7.35,7.35,0,0,0-1.57,2.1c-.09.2-.17.39-.24.59l-.18.25a9.07,9.07,0,0,1-.83,1.08,6.06,6.06,0,0,1-.94.89,3.2,3.2,0,0,1-1.09.55,8.55,8.55,0,0,0,1.31-2,5.29,5.29,0,0,0,.51-2.05,4.38,4.38,0,0,0-.24-1.73,2.59,2.59,0,0,0-.74-1.07A2.69,2.69,0,0,0,49,14.74a7.11,7.11,0,0,0-1.19-.17,4.49,4.49,0,0,0-1.61.17,6,6,0,0,0-1.41.63c.27-.53.55-1.07.85-1.62l1-1.71c.13-.23.3-.48.49-.75a7.79,7.79,0,0,1,.64-.84,6,6,0,0,1,.78-.81A3.81,3.81,0,0,1,49.49,9a3.7,3.7,0,0,0-1.72-.63,3.46,3.46,0,0,0-1.6.26,5.26,5.26,0,0,0-1.42.89,9.06,9.06,0,0,0-1.21,1.27c-.11.13-.31.43-.6.88s-.6,1-1,1.66-.74,1.38-1.14,2.18-.77,1.6-1.1,2.4c-.16.4-.31.79-.44,1.17l-.18.27a9.19,9.19,0,0,1-.78,1,6.68,6.68,0,0,1-.87.77,1.48,1.48,0,0,1-.84.31c-.32,0-.51-.21-.57-.64a3.88,3.88,0,0,1,.17-1.55A7.61,7.61,0,0,1,36.64,18a9.26,9.26,0,0,1,.63-1.21,9.86,9.86,0,0,1,.78-1.1,5.14,5.14,0,0,1,.91-.85,3.3,3.3,0,0,0-2-.56,2.63,2.63,0,0,0-1.79.81A2.59,2.59,0,0,0,33,14.2a7.21,7.21,0,0,0-2.32.53,9.54,9.54,0,0,0-2.43,1.39,8.87,8.87,0,0,0-1.94,2.15A5.22,5.22,0,0,0,25.45,21a4.21,4.21,0,0,0,.26,1.86,3.08,3.08,0,0,0,.82,1.21,3.27,3.27,0,0,0,1.14.66,4.17,4.17,0,0,0,1.25.19A4.66,4.66,0,0,0,31,24.44a7.15,7.15,0,0,0,1.76-1.25,2.74,2.74,0,0,0,.78,1.07,2.27,2.27,0,0,0,1.41.47,2.69,2.69,0,0,0,1-.19,4.62,4.62,0,0,0,.91-.47,6.85,6.85,0,0,0,.78-.62c.24-.23.45-.45.64-.66l.27-.31a2.79,2.79,0,0,0,.3,1.44,1.4,1.4,0,0,0,1.19.69l1.68.12.14-.8a2.75,2.75,0,0,0,.91.61,3.32,3.32,0,0,0,1.2.24,4.5,4.5,0,0,0,1.36-.14,6,6,0,0,0,1.31-.48,4.7,4.7,0,0,0,1.45.2,3.33,3.33,0,0,0,1.1-.2,7,7,0,0,0,1-.47,8.38,8.38,0,0,0,.88-.58,5.21,5.21,0,0,0,.62-.57c.15-.16.27-.31.39-.46A3.62,3.62,0,0,0,53.25,24a5,5,0,0,0,3.35,1.18,7.83,7.83,0,0,0,3.78-.71,7.73,7.73,0,0,0,2.25-1.7,2.08,2.08,0,0,0,.3.72,2.41,2.41,0,0,0,.49.56,3,3,0,0,0,.62.38,2.28,2.28,0,0,0,.64.21,9.13,9.13,0,0,0,1.84.15,16.48,16.48,0,0,0,4-.46,13.68,13.68,0,0,0,3.07-1.14,9.16,9.16,0,0,0,2.11-1.46,5.86,5.86,0,0,0,1.15-1.44A3.19,3.19,0,0,0,77.31,18.21ZM58.6,17.09a2.19,2.19,0,0,1,1-.24A.59.59,0,0,1,60,17a.65.65,0,0,1,.14.43,1.37,1.37,0,0,1-.37.85,1.23,1.23,0,0,1-1,.45.93.93,0,0,1-.87-.32,1.85,1.85,0,0,1-.3-.67A3.67,3.67,0,0,1,58.6,17.09ZM33.29,19.33c-.57,1.32-1.77,2.39-2.71,2.39s-1.23-1.07-.67-2.39,1.77-2.4,2.7-2.4S33.85,18,33.29,19.33Zm13.3,0c-.56,1.32-1.77,2.39-2.7,2.39s-1.23-1.07-.67-2.39,1.77-2.4,2.7-2.4S47.15,18,46.59,19.33Zm18.63,2.23a1.11,1.11,0,0,1-1,.64.71.71,0,0,1-.77-.46c.31-.44.6-.89.9-1.35L65.19,19a7.09,7.09,0,0,0,.08.73,2.88,2.88,0,0,1,.06.49A2.26,2.26,0,0,1,65.22,21.56Z"/><path class="cls-1" d="M143.16,18.41a7.87,7.87,0,0,1-.54.86,10.88,10.88,0,0,1-.83,1,2.78,2.78,0,0,1-1.62,1,.46.46,0,0,1-.48-.27c-.12-.2-.05-.51.2-.95a6.23,6.23,0,0,1,.35-.55c.16-.24.32-.5.49-.77s.3-.56.44-.85a3.5,3.5,0,0,0,.25-.81,2.36,2.36,0,0,0,0-.83,2.1,2.1,0,0,0-.35-.85,2.08,2.08,0,0,0-.76-.67,2.52,2.52,0,0,0-1.25-.27,4.25,4.25,0,0,0-2.23.51,6.74,6.74,0,0,0-1.69,1.37,3.54,3.54,0,0,0,.06-1.13,1.41,1.41,0,0,0-.44-.92,1.59,1.59,0,0,0-1.18-.3,5.88,5.88,0,0,0-2.16.75,1.18,1.18,0,0,1,.55.7,1.72,1.72,0,0,1,0,.64,15.59,15.59,0,0,1-.61,1.65l-.77,1.73-.12.28c-.14.17-.28.33-.44.49a2.73,2.73,0,0,1-1.62,1,.53.53,0,0,1-.47-.18c-.12-.14-.1-.37,0-.7s.28-.51.5-.86.43-.74.65-1.16a9.34,9.34,0,0,0,.57-1.29,3.67,3.67,0,0,0,.24-1.24,2,2,0,0,0-.2-1,1.41,1.41,0,0,0-.75-.71,2.66,2.66,0,0,0-1.37-.13,6.39,6.39,0,0,0-2,.72,1.27,1.27,0,0,1,.57.7,1.38,1.38,0,0,1,0,.64,8.55,8.55,0,0,1-.68,1.59c-.29.52-.57,1-.86,1.52-.17.3-.32.61-.47.91a6.26,6.26,0,0,1-.41.49,7.8,7.8,0,0,1-1,.88,3.3,3.3,0,0,1-1.09.55,7.88,7.88,0,0,0,1.3-2,5.45,5.45,0,0,0,.54-2,4.27,4.27,0,0,0-.25-1.74,2.59,2.59,0,0,0-.76-1.06,2.47,2.47,0,0,0-1.06-.53,7.08,7.08,0,0,0-1.2-.17,4.43,4.43,0,0,0-1.86.27,7.38,7.38,0,0,0-1.6.84l-.12-.09s-.06.07-.06.09a2.26,2.26,0,0,0-.18-.9,1.21,1.21,0,0,0-.61-.61,2,2,0,0,0-1.17-.07,6.71,6.71,0,0,0-1.84.72,1.18,1.18,0,0,1,.55.7,1.72,1.72,0,0,1,0,.64q-.15.51-.57,1.59c-.19.48-.39,1-.62,1.53,0,0,0,0,0,0q-.39.51-.81,1a5.49,5.49,0,0,1-.78.74,1.24,1.24,0,0,1-.84.31.6.6,0,0,1-.51-.29,1,1,0,0,1,0-.9c.15-.45.35-1,.59-1.63s.54-1.32.87-2,.69-1.48,1.08-2.25A23.65,23.65,0,0,1,112.85,12c.19-.31.37-.61.54-.91s.35-.59.54-.87a4.67,4.67,0,0,1,.65-.75,3.79,3.79,0,0,1,.88-.6,3.78,3.78,0,0,0-1.73-.65,3.49,3.49,0,0,0-1.59.18,4.23,4.23,0,0,0-1.37.85,6.54,6.54,0,0,0-1.08,1.35c-.49.82-1,1.74-1.62,2.78s-1.13,2.08-1.65,3.14a29.12,29.12,0,0,0-1.28,3.1c-.06.2-.12.39-.17.58a10.22,10.22,0,0,1-1.06,1.11,4.67,4.67,0,0,1-3,1.15,2,2,0,0,1-1.65-.61,2.25,2.25,0,0,1-.57-1.55A2.41,2.41,0,0,1,99,18.93a1.93,1.93,0,0,0,0,.83,2.06,2.06,0,0,0,.37.74,1.81,1.81,0,0,0,.68.53,2.41,2.41,0,0,0,1,.2,2.84,2.84,0,0,0,1.42-.4,4.5,4.5,0,0,0,1.27-1,5.54,5.54,0,0,0,.89-1.4,3.7,3.7,0,0,0,.34-1.51,3.42,3.42,0,0,0-.18-1.12,2.27,2.27,0,0,0-.57-.91,2.29,2.29,0,0,0-1-.57,3.51,3.51,0,0,0-1.38-.13,8.76,8.76,0,0,0-3.11.81,9.42,9.42,0,0,0-2.42,1.63,7.54,7.54,0,0,0-1.56,2.11,5.9,5.9,0,0,0-.29.71c-.22.29-.45.58-.69.85a2.9,2.9,0,0,1-1.65,1,.45.45,0,0,1-.47-.27c-.1-.2,0-.51.19-.95a6.23,6.23,0,0,1,.35-.55c.16-.24.32-.5.49-.77s.3-.56.44-.85a3.5,3.5,0,0,0,.25-.81,2.36,2.36,0,0,0,0-.83,2.1,2.1,0,0,0-.35-.85,2.08,2.08,0,0,0-.76-.67A2.52,2.52,0,0,0,91,14.49a5.71,5.71,0,0,0-1.8.21,5.82,5.82,0,0,0-1.49.7c.53-1.08,1.15-2.22,1.87-3.41.13-.23.3-.48.49-.75a7.79,7.79,0,0,1,.64-.84,6,6,0,0,1,.78-.81A3.81,3.81,0,0,1,92.44,9a3.7,3.7,0,0,0-1.72-.63,3.49,3.49,0,0,0-1.6.26,5.26,5.26,0,0,0-1.42.89,9.68,9.68,0,0,0-1.21,1.27,8.2,8.2,0,0,0-.59.88c-.29.45-.61,1-1,1.66s-.74,1.38-1.14,2.18-.76,1.59-1.09,2.4a23.21,23.21,0,0,0-.83,2.37,10.15,10.15,0,0,0-.37,2.09,2.91,2.91,0,0,0,.3,1.54,1.44,1.44,0,0,0,1.2.7l1.67.11c.12-.55.23-1.09.34-1.61s.24-1,.37-1.52l.5-1.06c.24-.51.51-1,.81-1.53a9.69,9.69,0,0,1,1-1.36,1.43,1.43,0,0,1,1-.6c.29,0,.44.14.47.37a.92.92,0,0,1-.1.6,23.27,23.27,0,0,0-1.18,2.46,6.79,6.79,0,0,0-.55,2.34,1.87,1.87,0,0,0,.58,1.45,2.13,2.13,0,0,0,1.41.57,4.66,4.66,0,0,0,2.49-.55,7.21,7.21,0,0,0,1.89-1.49c.25-.28.46-.54.65-.79a3.7,3.7,0,0,0,1.15,2,5.12,5.12,0,0,0,3.34,1.18,7.83,7.83,0,0,0,3.78-.72,7.21,7.21,0,0,0,2.07-1.53,3.59,3.59,0,0,0,.08.35,2.52,2.52,0,0,0,.38.79,2.31,2.31,0,0,0,.66.57,1.87,1.87,0,0,0,.94.22,4.91,4.91,0,0,0,2.48-.57,6.55,6.55,0,0,0,1.15-.76c-.32.81-.62,1.59-.89,2.33s-.6,1.68-.8,2.39a4.34,4.34,0,0,0-.24,1.53,2.4,2.4,0,0,0,.51,1.41,2.52,2.52,0,0,0,1,.67,3.81,3.81,0,0,0,1.28.18l1.28,0a1.86,1.86,0,0,1-.15-1.1,14.64,14.64,0,0,1,.3-1.93c.16-.75.36-1.57.6-2.47s.5-1.81.78-2.72a2.62,2.62,0,0,0,.94.73,3.32,3.32,0,0,0,1.31.3,4.78,4.78,0,0,0,1.35-.15A7,7,0,0,0,119,24.1a4.7,4.7,0,0,0,1.45.2,3.22,3.22,0,0,0,1.09-.2,6.57,6.57,0,0,0,1-.47,7.78,7.78,0,0,0,.85-.55s0,.08,0,.12a2.06,2.06,0,0,0,.41.79,2.65,2.65,0,0,0,.7.57,1.93,1.93,0,0,0,1,.22,4.84,4.84,0,0,0,2.47-.57,7,7,0,0,0,1.52-1.08,1.25,1.25,0,0,0,.29.77,1.82,1.82,0,0,0,1,.56,5.22,5.22,0,0,0,1.33.07l1.3-.09a2.07,2.07,0,0,1-.29-1.21,7.63,7.63,0,0,1,.24-1.66,6.09,6.09,0,0,1,.47-1.32,11,11,0,0,1,.82-1.51,7.07,7.07,0,0,1,1-1.24,1.57,1.57,0,0,1,1-.51.43.43,0,0,1,.46.37.86.86,0,0,1-.09.6,23.27,23.27,0,0,0-1.18,2.46,6.79,6.79,0,0,0-.55,2.34,1.77,1.77,0,0,0,.57,1.45,2.15,2.15,0,0,0,1.42.57,4.57,4.57,0,0,0,2.47-.55,7.48,7.48,0,0,0,1.91-1.49,13.49,13.49,0,0,0,.89-1.1,3.37,3.37,0,0,0,.67-2A7.75,7.75,0,0,0,143.16,18.41ZM100.84,17a2.08,2.08,0,0,1,1-.25.59.59,0,0,1,.48.17.64.64,0,0,1,.14.43,1.38,1.38,0,0,1-.36.85,1.21,1.21,0,0,1-1,.46.91.91,0,0,1-.87-.33,1.85,1.85,0,0,1-.3-.67A3.92,3.92,0,0,1,100.84,17Zm18.25,2.22c-.58,1.36-1.82,2.46-2.78,2.46s-1.27-1.1-.69-2.46,1.82-2.46,2.77-2.46S119.66,17.9,119.09,19.26Z"/><path class="cls-1" d="M225.14,18.21a2.19,2.19,0,0,0-.8-1.38,2.39,2.39,0,0,0-1.55-.44,3.22,3.22,0,0,0-1.83.71,1.92,1.92,0,0,1,.92,1.27,2.33,2.33,0,0,1-.31,1.55,5.34,5.34,0,0,1-1.4,1.54,7.56,7.56,0,0,1-2.32,1.19q.06-.13.12-.3c0-.1.07-.21.11-.33a2.67,2.67,0,0,0,0-1.37,6.68,6.68,0,0,0-.44-1.21c-.18-.38-.35-.75-.5-1.1a1.75,1.75,0,0,1,.43-2.08,6.09,6.09,0,0,1,1.73-1.09,2,2,0,0,0-1.05-.87,3.19,3.19,0,0,0-1.48-.24,5,5,0,0,0-2.52.81A3.53,3.53,0,0,0,213,16.51h0l-1.22,2a11.93,11.93,0,0,1-1.07,1.59,11,11,0,0,1-1.21,1.32l-.22.19a4.7,4.7,0,0,1-2.73.94,2,2,0,0,1-1.65-.61,2.27,2.27,0,0,1-.57-1.55,2.37,2.37,0,0,1,.31-1.4,1.7,1.7,0,0,0,0,.84,2,2,0,0,0,.37.74,1.92,1.92,0,0,0,.68.53,2.41,2.41,0,0,0,1,.2,2.94,2.94,0,0,0,1.42-.4,4.83,4.83,0,0,0,1.27-1,5.78,5.78,0,0,0,.89-1.41,3.63,3.63,0,0,0,.34-1.51,3.42,3.42,0,0,0-.18-1.12,2.6,2.6,0,0,0-.57-.91,2.29,2.29,0,0,0-1-.57,3.73,3.73,0,0,0-1.38-.13,9.14,9.14,0,0,0-3.11.81,9,9,0,0,0-2.42,1.64,7.54,7.54,0,0,0-1.57,2.1c-.09.2-.17.39-.24.59l-.18.25a9.07,9.07,0,0,1-.83,1.08,6.06,6.06,0,0,1-.94.89,3.2,3.2,0,0,1-1.09.55,8.24,8.24,0,0,0,1.31-2,5.29,5.29,0,0,0,.51-2.05,4.38,4.38,0,0,0-.24-1.73,2.59,2.59,0,0,0-.74-1.07,2.63,2.63,0,0,0-1.07-.53,7,7,0,0,0-1.19-.17,4.49,4.49,0,0,0-1.61.17,6,6,0,0,0-1.41.63c.27-.53.55-1.07.86-1.62s.62-1.12,1-1.71c.14-.23.3-.48.49-.75a9.35,9.35,0,0,1,.64-.84,6,6,0,0,1,.78-.81,4,4,0,0,1,.94-.64,3.67,3.67,0,0,0-1.72-.63,3.49,3.49,0,0,0-1.6.26,5.26,5.26,0,0,0-1.42.89,9.68,9.68,0,0,0-1.21,1.27c-.11.13-.31.43-.6.88s-.6,1-1,1.66-.74,1.38-1.14,2.18-.76,1.6-1.1,2.4c-.16.4-.31.79-.44,1.17-.06.09-.11.18-.18.27a9.19,9.19,0,0,1-.78,1,6.68,6.68,0,0,1-.87.77,1.46,1.46,0,0,1-.84.31c-.32,0-.51-.21-.57-.64a3.88,3.88,0,0,1,.17-1.55,7.61,7.61,0,0,1,.41-1.22,9.26,9.26,0,0,1,.63-1.21,9.86,9.86,0,0,1,.78-1.1,5.14,5.14,0,0,1,.91-.85,3.3,3.3,0,0,0-2-.56,2.63,2.63,0,0,0-1.79.81,2.59,2.59,0,0,0-2.25-.88,7.21,7.21,0,0,0-2.32.53A9.54,9.54,0,0,0,176,16.12a8.63,8.63,0,0,0-1.93,2.15,5.14,5.14,0,0,0-.83,2.76,4.21,4.21,0,0,0,.26,1.86,3.19,3.19,0,0,0,.82,1.21,3.27,3.27,0,0,0,1.14.66,4.17,4.17,0,0,0,1.25.19,4.66,4.66,0,0,0,2.08-.51,7.15,7.15,0,0,0,1.76-1.25,2.74,2.74,0,0,0,.78,1.07,2.27,2.27,0,0,0,1.41.47,2.69,2.69,0,0,0,1-.19,4.62,4.62,0,0,0,.91-.47,6.85,6.85,0,0,0,.78-.62c.24-.23.45-.45.64-.66l.27-.31a2.79,2.79,0,0,0,.3,1.44,1.42,1.42,0,0,0,1.19.69l1.68.12.14-.8a2.75,2.75,0,0,0,.91.61,3.37,3.37,0,0,0,1.2.24,4.5,4.5,0,0,0,1.36-.14,5.86,5.86,0,0,0,1.31-.48,4.7,4.7,0,0,0,1.45.2,3.33,3.33,0,0,0,1.1-.2,7,7,0,0,0,1-.47,8.38,8.38,0,0,0,.88-.58,5.21,5.21,0,0,0,.62-.57c.15-.16.27-.31.39-.46A3.57,3.57,0,0,0,201.09,24a5,5,0,0,0,3.34,1.18,7.83,7.83,0,0,0,3.78-.71,7.6,7.6,0,0,0,2.25-1.7,2.29,2.29,0,0,0,.3.72,2.45,2.45,0,0,0,.5.56,2.72,2.72,0,0,0,.61.38,2.28,2.28,0,0,0,.64.21,9.17,9.17,0,0,0,1.85.15,16.39,16.39,0,0,0,4-.46,13.5,13.5,0,0,0,3.07-1.14,9,9,0,0,0,2.11-1.46,5.86,5.86,0,0,0,1.15-1.44A3.19,3.19,0,0,0,225.14,18.21Zm-18.71-1.12a2.23,2.23,0,0,1,1-.24.57.57,0,0,1,.48.17.65.65,0,0,1,.14.43,1.37,1.37,0,0,1-.37.85,1.21,1.21,0,0,1-1,.45.93.93,0,0,1-.87-.32,1.85,1.85,0,0,1-.3-.67A3.67,3.67,0,0,1,206.43,17.09Zm-25.31,2.24c-.56,1.32-1.77,2.39-2.71,2.39s-1.23-1.07-.67-2.39,1.77-2.4,2.7-2.4S181.68,18,181.12,19.33Zm13.3,0c-.56,1.32-1.77,2.39-2.7,2.39s-1.23-1.07-.67-2.39,1.77-2.4,2.7-2.4S195,18,194.42,19.33Zm18.63,2.23a1.11,1.11,0,0,1-1,.64.71.71,0,0,1-.77-.46q.47-.66.9-1.35L213,19c0,.27,0,.51.08.73a2.88,2.88,0,0,1,.06.49A2.18,2.18,0,0,1,213.05,21.56Z"/><path class="cls-1" d="M138.83,10.85a1.26,1.26,0,0,0,.17.88,1.34,1.34,0,0,0,.31.41,1.49,1.49,0,0,0,.49.34,1.41,1.41,0,0,0,.58.14,1,1,0,0,0,.64-.22,1.82,1.82,0,0,0,.77-1.3,2.71,2.71,0,0,0-.35-1.74,2,2,0,0,0-.54-.67,2.38,2.38,0,0,0-.72-.41,2,2,0,0,0-.74-.13,1.05,1.05,0,0,0-.63.2,1.34,1.34,0,0,1,.35.87A3.26,3.26,0,0,1,139,10,7.54,7.54,0,0,0,138.83,10.85Z"/><circle class="cls-1" cx="128.81" cy="10.88" r="1.71"/></g></g></svg>