<svg width="143" height="143" viewBox="0 0 143 143" fill="none" xmlns="http://www.w3.org/2000/svg">
<g filter="url(#filter0_d_284_576)">
<path d="M71.3369 134.674C108.526 134.674 138.674 104.526 138.674 67.3369C138.674 30.1478 108.526 0 71.3369 0C34.1478 0 4 30.1478 4 67.3369C4 104.526 34.1478 134.674 71.3369 134.674Z" fill="#8886C1"/>
<path d="M32.153 63.4356C31.2338 64.0769 29.7268 64.4082 27.8242 64.4082C25.9217 64.4082 24.2329 63.9379 23.1641 63.1149C22.0311 62.2278 21.4219 60.7848 21.4219 58.9678C21.4219 55.4941 23.6023 53.5916 27.5784 53.5916C29.2351 53.5916 30.5177 53.8695 31.7789 54.5108L30.6567 56.6164C29.9405 56.1781 29.0427 55.9537 27.9952 55.9537C26.1889 55.9537 25.2376 57.0012 25.2376 58.9892C25.2376 59.8656 25.4407 60.5711 25.8148 61.0948C26.3065 61.7682 27.0119 62.0568 28.1342 62.0568C29.2565 62.0568 30.1436 61.8109 31.0735 61.2444L32.153 63.4356Z" fill="white"/>
<path d="M33.1899 53.0571H36.7171V57.1829C37.2729 56.8301 38.0852 56.6484 39.0685 56.6484C40.458 56.6484 41.3879 57.0546 41.8689 57.8883C42.1468 58.38 42.275 59.1709 42.275 60.368V64.1944H38.7479V60.4321C38.7479 59.2671 38.5341 58.893 37.8287 58.893C36.9736 58.893 36.7064 59.2564 36.7064 60.4428V64.1944H33.1792V53.0678L33.1899 53.0571Z" fill="white"/>
<path d="M47.0529 61.223C47.224 62.0246 47.7691 62.3667 48.8272 62.3667C49.7892 62.3667 50.4839 62.2064 51.6596 61.7147L52.6857 63.66C51.6062 64.173 50.3877 64.3975 48.7631 64.3975C45.4176 64.3975 43.6006 63.0294 43.6006 60.4855C43.6006 57.9417 45.2894 56.6377 48.3355 56.6377C49.8854 56.6377 51.0076 56.9477 51.8413 57.5676C52.6537 58.1875 53.1239 59.1815 53.1239 60.2824C53.1239 60.5283 53.1133 60.6886 53.0812 61.2123H47.0529V61.223ZM49.7892 59.4915C49.6609 58.7326 49.2975 58.4654 48.4638 58.4654C47.6301 58.4654 47.2133 58.7861 47.1278 59.4915H49.7892Z" fill="white"/>
<path d="M62.2408 63.66C61.3644 64.1837 60.3917 64.3975 58.9595 64.3975C55.7102 64.3975 53.9146 63.0187 53.9146 60.5176C53.9146 58.0165 55.7209 56.6377 58.7564 56.6377C60.1245 56.6377 61.2468 56.8942 62.1981 57.4607L61.1185 59.4381C60.2955 58.8823 59.8787 58.7433 59.1732 58.7433C58.051 58.7433 57.5486 59.2991 57.5486 60.5176C57.5486 61.7361 58.0723 62.2812 59.1198 62.2812C59.8039 62.2812 60.3383 62.1102 61.2147 61.6292L62.2408 63.66Z" fill="white"/>
<path d="M63.3632 53.0571H66.8904V59.1602L68.9533 56.8515H72.8866L69.6587 59.9511L72.9187 64.1944H69.0495L66.8797 60.8383V64.1944H63.3525V53.0678L63.3632 53.0571Z" fill="white"/>
<path d="M76.3174 53.8159H80.2293L82.1212 60.4L84.013 53.8159H87.925L83.5641 64.2478H80.6889L76.3281 53.8159H76.3174Z" fill="white"/>
<path d="M97.47 60.5283C97.47 63.0187 95.7172 64.4082 92.5748 64.4082C89.4324 64.4082 87.6367 63.0294 87.6367 60.4749C87.6367 57.9204 89.4431 56.6484 92.5641 56.6484C95.6851 56.6484 97.47 58.0272 97.47 60.5283ZM91.2708 60.4963C91.2708 61.7147 91.6876 62.2812 92.5641 62.2812C93.4405 62.2812 93.8574 61.7041 93.8574 60.5176C93.8574 59.3312 93.4405 58.7541 92.5641 58.7541C91.6876 58.7541 91.2708 59.3312 91.2708 60.4856V60.4963Z" fill="white"/>
<path d="M98.0791 59.0854V56.8515H99.4045L99.661 54.7566L102.729 54.468V56.8515H104.802V59.0854H102.729V60.9345C102.729 61.8537 102.889 62.0675 103.552 62.0675C103.84 62.0675 104.086 62.0247 104.524 61.8751L104.888 64.1303C103.915 64.3013 103.242 64.3655 102.397 64.3655C100.858 64.3655 100.024 64.0341 99.5969 63.2646C99.3403 62.7729 99.2655 62.2492 99.2655 60.7314V59.0854H98.0791Z" fill="white"/>
<path d="M109.013 61.223C109.184 62.0246 109.73 62.3667 110.788 62.3667C111.75 62.3667 112.444 62.2064 113.62 61.7147L114.646 63.66C113.567 64.173 112.348 64.3975 110.724 64.3975C107.378 64.3975 105.561 63.0294 105.561 60.4855C105.561 57.9417 107.25 56.6377 110.296 56.6377C111.846 56.6377 112.968 56.9477 113.802 57.5676C114.614 58.1875 115.084 59.1815 115.084 60.2824C115.084 60.5283 115.074 60.6886 115.042 61.2123H109.013V61.223ZM111.75 59.4915C111.621 58.7326 111.258 58.4654 110.424 58.4654C109.591 58.4654 109.174 58.7861 109.088 59.4915H111.75Z" fill="white"/>
<path d="M116.41 56.8515H119.552L119.744 57.3218C120.386 56.8515 121.113 56.6377 122.042 56.6377C122.352 56.6377 122.598 56.6698 123.026 56.7232L122.577 59.1388C122.021 58.9464 121.658 58.8929 121.155 58.8929C120.193 58.8929 119.948 59.2136 119.948 60.4962V64.2051H116.42V56.8622L116.41 56.8515Z" fill="white"/>
<path d="M23.6772 85.5071H20.0752V75.1287H24.0085C25.9431 75.1287 27.044 75.3638 27.8777 75.9089C28.7649 76.5181 29.2458 77.4587 29.2458 78.6558C29.2458 80.0667 28.7542 80.8683 27.4716 81.4989L30.3788 85.4964H26.531L24.3078 81.9265H23.6879V85.4964L23.6772 85.5071ZM24.4468 79.8422C25.3339 79.8422 25.5904 79.5537 25.5904 78.581C25.5904 77.6832 25.3125 77.3839 24.4468 77.3839H23.6665V79.8422H24.4468Z" fill="white"/>
<path d="M33.7883 82.5465C33.9593 83.3481 34.5044 83.6902 35.5626 83.6902C36.5245 83.6902 37.2193 83.5298 38.395 83.0382L39.4211 84.9835C38.3415 85.4965 37.1231 85.721 35.4984 85.721C32.153 85.721 30.3359 84.3528 30.3359 81.809C30.3359 79.2652 32.0247 77.9612 35.0709 77.9612C36.6207 77.9612 37.743 78.2711 38.5767 78.8911C39.389 79.511 39.8593 80.505 39.8593 81.6059C39.8593 81.8518 39.8486 82.0121 39.8165 82.5358H33.7883V82.5465ZM36.5245 80.815C36.3963 80.0561 36.0329 79.7889 35.1992 79.7889C34.3655 79.7889 33.9486 80.1095 33.8631 80.815H36.5245Z" fill="white"/>
<path d="M46.8497 84.8445C46.1763 85.3682 45.503 85.5713 44.4234 85.5713C42.0506 85.5713 40.6611 84.1605 40.6611 81.7663C40.6611 79.372 42.0399 77.9612 44.4234 77.9612C45.5137 77.9612 46.1763 78.1536 46.807 78.6452L47.01 78.1749H50.1524V84.4918C50.1524 86.0737 49.8959 87.0036 49.2653 87.6769C48.3354 88.6923 46.9138 89.1626 44.7655 89.1626C43.3974 89.1626 42.1789 89.045 41.249 88.8099L41.8048 86.715C42.6492 86.9929 43.4081 87.1105 44.4448 87.1105C46.1977 87.1105 46.8711 86.5867 46.8604 85.2186V84.8445H46.8497ZM44.2952 81.7663C44.2952 82.8885 44.6479 83.4336 45.3747 83.4336C46.187 83.4336 46.6253 82.8565 46.6253 81.7769C46.6253 80.6974 46.2084 80.0775 45.3747 80.0775C44.6479 80.0775 44.2952 80.6333 44.2952 81.7663Z" fill="white"/>
<path d="M55.6888 75.973C55.6888 76.9029 54.962 77.5015 53.8397 77.5015C52.7174 77.5015 51.9692 76.9029 51.9692 75.9516C51.9692 75.0004 52.7067 74.4446 53.829 74.4446C54.9513 74.4446 55.6888 75.0431 55.6888 75.9837V75.973ZM52.0654 78.1641H55.5926V85.5071H52.0654V78.1641Z" fill="white"/>
<path d="M57.602 83.3054C58.3395 83.594 59.2266 83.7543 60.1351 83.7543C61.0436 83.7543 61.4605 83.594 61.4605 83.2412C61.4605 82.9847 61.2467 82.8351 60.7016 82.7282C58.0295 82.2472 57.0248 81.5845 57.0248 80.2592C57.0248 78.8056 58.3502 77.9612 60.6161 77.9612C61.9522 77.9612 63.1706 78.1749 64.2609 78.6345L63.3844 80.505C62.5507 80.1095 61.685 79.9065 60.9154 79.9065C60.5092 79.9065 60.2527 80.0668 60.2527 80.3126C60.2527 80.5585 60.413 80.6333 61.3857 80.8257C63.8974 81.3387 64.7525 81.9586 64.7525 83.2947C64.7525 84.9086 63.3417 85.7103 60.4985 85.7103C59.1304 85.7103 57.7089 85.5499 56.811 85.2934L57.6127 83.3054H57.602Z" fill="white"/>
<path d="M65.0415 80.4086V78.1748H66.3669L66.6234 76.0798L69.691 75.7913V78.1748H71.7645V80.4086H69.691V82.2577C69.691 83.1769 69.8513 83.3907 70.514 83.3907C70.8026 83.3907 71.0484 83.348 71.4866 83.1983L71.85 85.4536C70.8774 85.6246 70.204 85.6887 69.3596 85.6887C67.8205 85.6887 66.9868 85.3574 66.5593 84.5878C66.3027 84.0961 66.2279 83.5724 66.2279 82.0547V80.4086H65.0415Z" fill="white"/>
<path d="M73.1538 78.1749H76.2962L76.4886 78.6452C77.1299 78.1749 77.8567 77.9612 78.7866 77.9612C79.0966 77.9612 79.3424 77.9932 79.7699 78.0467L79.321 80.4623C78.7652 80.2699 78.4018 80.2164 77.8995 80.2164C76.9375 80.2164 76.6917 80.5371 76.6917 81.8197V85.5286H73.1645V78.1856L73.1538 78.1749Z" fill="white"/>
<path d="M86.2683 84.9728C85.6484 85.4965 84.9002 85.7316 83.8421 85.7316C81.4158 85.7316 80.0156 84.3208 80.0156 81.8518C80.0156 79.3827 81.3944 77.9612 83.7459 77.9612C84.8361 77.9612 85.4881 78.1536 86.1721 78.6452L86.247 78.1749H89.4962V85.5179H86.5569L86.247 84.9835L86.2683 84.9728ZM83.6497 81.8518C83.6497 83.0275 84.0024 83.6153 84.7292 83.6153C85.5415 83.6153 85.9798 83.0061 85.9798 81.8731C85.9798 80.7402 85.5629 80.0882 84.7292 80.0882C84.0024 80.0882 83.6497 80.6653 83.6497 81.8624V81.8518Z" fill="white"/>
<path d="M90.5972 80.4086V78.1748H91.9225L92.1791 76.0798L95.2466 75.7913V78.1748H97.3202V80.4086H95.2466V82.2577C95.2466 83.1769 95.407 83.3907 96.0696 83.3907C96.3582 83.3907 96.6041 83.348 97.0423 83.1983L97.4057 85.4536C96.433 85.6246 95.7597 85.6887 94.9153 85.6887C93.3762 85.6887 92.5425 85.3574 92.1149 84.5878C91.8584 84.0961 91.7836 83.5724 91.7836 82.0547V80.4086H90.5972Z" fill="white"/>
<path d="M102.323 75.973C102.323 76.9029 101.596 77.5015 100.473 77.5015C99.3512 77.5015 98.603 76.9029 98.603 75.9516C98.603 75.0004 99.3405 74.4446 100.463 74.4446C101.585 74.4446 102.323 75.0431 102.323 75.9837V75.973ZM98.6992 78.1641H102.226V85.5071H98.6992V78.1641Z" fill="white"/>
<path d="M113.449 81.8516C113.449 84.342 111.696 85.7315 108.554 85.7315C105.411 85.7315 103.616 84.3527 103.616 81.7981C103.616 79.2436 105.422 77.9717 108.543 77.9717C111.664 77.9717 113.449 79.3505 113.449 81.8516ZM107.25 81.8195C107.25 83.038 107.667 83.6045 108.543 83.6045C109.42 83.6045 109.836 83.0273 109.836 81.8409C109.836 80.6545 109.42 80.0773 108.543 80.0773C107.667 80.0773 107.25 80.6545 107.25 81.8088V81.8195Z" fill="white"/>
<path d="M114.828 78.1749H117.971L118.163 78.6452C118.858 78.1643 119.617 77.9612 120.739 77.9612C122.128 77.9612 123.058 78.378 123.539 79.201C123.817 79.7141 123.945 80.4836 123.945 81.6807V85.5179H120.418V81.7556C120.418 80.5905 120.183 80.2164 119.499 80.2164C118.623 80.2164 118.366 80.5798 118.366 81.8197V85.5286H114.839V78.1856L114.828 78.1749Z" fill="white"/>
<path d="M70.6634 32.6317L67.6493 34.2136C66.5911 34.7694 65.3513 33.8715 65.5543 32.6958L66.1315 29.3397C66.217 28.8694 66.0567 28.3884 65.7147 28.0571L63.2777 25.6842C62.4226 24.8505 62.8929 23.3969 64.0793 23.2259L67.4462 22.7342C67.9165 22.6701 68.3226 22.3708 68.5364 21.9433L70.0435 18.8971C70.5779 17.8282 72.1063 17.8282 72.6301 18.8971L74.1371 21.9433C74.3509 22.3708 74.7571 22.6701 75.2273 22.7342L78.5942 23.2259C79.7806 23.3969 80.2509 24.8505 79.3958 25.6842L76.9589 28.0571C76.6168 28.3884 76.4672 28.8694 76.542 29.3397L77.1192 32.6958C77.3223 33.8715 76.0824 34.7801 75.0243 34.2136L72.0101 32.6317C71.5933 32.4072 71.0909 32.4072 70.6634 32.6317Z" fill="#272660"/>
</g>
<defs>
<filter id="filter0_d_284_576" x="0" y="0" width="142.674" height="142.674" filterUnits="userSpaceOnUse" color-interpolation-filters="sRGB">
<feFlood flood-opacity="0" result="BackgroundImageFix"/>
<feColorMatrix in="SourceAlpha" type="matrix" values="0 0 0 0 0 0 0 0 0 0 0 0 0 0 0 0 0 0 127 0" result="hardAlpha"/>
<feOffset dy="4"/>
<feGaussianBlur stdDeviation="2"/>
<feComposite in2="hardAlpha" operator="out"/>
<feColorMatrix type="matrix" values="0 0 0 0 0 0 0 0 0 0 0 0 0 0 0 0 0 0 0.25 0"/>
<feBlend mode="normal" in2="BackgroundImageFix" result="effect1_dropShadow_284_576"/>
<feBlend mode="normal" in="SourceGraphic" in2="effect1_dropShadow_284_576" result="shape"/>
</filter>
</defs>
</svg>
