<svg width="144" height="143" viewBox="0 0 144 143" fill="none" xmlns="http://www.w3.org/2000/svg">
<g filter="url(#filter0_d_284_508)">
<path d="M71.6846 134.674C108.874 134.674 139.022 104.526 139.022 67.3369C139.022 30.1478 108.874 0 71.6846 0C34.4954 0 4.34766 30.1478 4.34766 67.3369C4.34766 104.526 34.4954 134.674 71.6846 134.674Z" fill="#8886C1"/>
<path d="M29.8715 57.3648H26.2695V46.9863H30.2029C32.1375 46.9863 33.2384 47.2215 34.0721 47.7666C34.9592 48.3758 35.4402 49.3164 35.4402 50.5135C35.4402 51.9244 34.9485 52.726 33.6659 53.3566L36.5731 57.3541H32.7253L30.5021 53.7842H29.8822V57.3541L29.8715 57.3648ZM30.6411 51.6999C31.5282 51.6999 31.7848 51.4113 31.7848 50.4387C31.7848 49.5409 31.5068 49.2416 30.6411 49.2416H29.8608V51.6999H30.6411Z" fill="white"/>
<path d="M39.9724 54.3934C40.1434 55.1951 40.6885 55.5371 41.7466 55.5371C42.7086 55.5371 43.4034 55.3768 44.5791 54.8851L45.6052 56.8304C44.5256 57.3434 43.3071 57.5679 41.6825 57.5679C38.337 57.5679 36.52 56.1998 36.52 53.6559C36.52 51.1121 38.2088 49.8081 41.255 49.8081C42.8048 49.8081 43.9271 50.1181 44.7608 50.738C45.5731 51.3579 46.0434 52.3519 46.0434 53.4529C46.0434 53.6987 46.0327 53.859 46.0006 54.3827H39.9724V54.3934ZM42.7086 52.6619C42.5803 51.903 42.2169 51.6358 41.3832 51.6358C40.5495 51.6358 40.1327 51.9565 40.0472 52.6619H42.7086Z" fill="white"/>
<path d="M53.0333 56.6914C52.3599 57.2152 51.6866 57.4183 50.607 57.4183C48.2342 57.4183 46.8447 56.0074 46.8447 53.6132C46.8447 51.219 48.2235 49.8081 50.607 49.8081C51.6972 49.8081 52.3599 50.0005 52.9906 50.4922L53.1936 50.0219H56.336V56.3387C56.336 57.9206 56.0795 58.8505 55.4489 59.5239C54.519 60.5393 53.0974 61.0096 50.9491 61.0096C49.581 61.0096 48.3625 60.892 47.4326 60.6568L47.9884 58.5619C48.8327 58.8398 49.5916 58.9574 50.6284 58.9574C52.3813 58.9574 53.0547 58.4336 53.044 57.0655V56.6914H53.0333ZM50.4788 53.6132C50.4788 54.7355 50.8315 55.2806 51.5583 55.2806C52.3706 55.2806 52.8089 54.7034 52.8089 53.6239C52.8089 52.5443 52.392 51.9244 51.5583 51.9244C50.8315 51.9244 50.4788 52.4802 50.4788 53.6132Z" fill="white"/>
<path d="M61.8837 47.8307C61.8837 48.7606 61.1568 49.3591 60.0345 49.3591C58.9123 49.3591 58.1641 48.7606 58.1641 47.8093C58.1641 46.858 58.9016 46.3022 60.0239 46.3022C61.1462 46.3022 61.8837 46.9008 61.8837 47.8414V47.8307ZM58.2603 50.0218H61.7874V57.3647H58.2603V50.0218Z" fill="white"/>
<path d="M63.786 55.1523C64.5235 55.4409 65.4107 55.6012 66.3192 55.6012C67.2277 55.6012 67.6445 55.4409 67.6445 55.0882C67.6445 54.8317 67.4308 54.682 66.8857 54.5751C64.2136 54.0942 63.2089 53.4315 63.2089 52.1061C63.2089 50.6525 64.5342 49.8081 66.8002 49.8081C68.1362 49.8081 69.3548 50.0219 70.445 50.4815L69.5685 52.3519C68.7348 51.9565 67.8691 51.7534 67.0995 51.7534C66.6933 51.7534 66.4368 51.9137 66.4368 52.1596C66.4368 52.4054 66.5971 52.4802 67.5698 52.6726C70.0816 53.1856 70.9366 53.8056 70.9366 55.1416C70.9366 56.7556 69.5257 57.5572 66.6826 57.5572C65.3145 57.5572 63.8929 57.3969 62.9951 57.1404L63.7967 55.1523H63.786Z" fill="white"/>
<path d="M71.2251 52.2663V50.0324H72.5504L72.807 47.9375L75.8745 47.6489V50.0324H77.9481V52.2663H75.8745V54.1154C75.8745 55.0346 76.0349 55.2484 76.6976 55.2484C76.9861 55.2484 77.2319 55.2056 77.6702 55.056L78.0336 57.3112C77.061 57.4823 76.3876 57.5464 75.5432 57.5464C74.0041 57.5464 73.1704 57.215 72.7428 56.4455C72.4863 55.9538 72.4115 55.4301 72.4115 53.9123V52.2663H71.2251Z" fill="white"/>
<path d="M82.1594 54.3934C82.3304 55.1951 82.8755 55.5371 83.9337 55.5371C84.8956 55.5371 85.5903 55.3768 86.7661 54.8851L87.7922 56.8304C86.7126 57.3434 85.4942 57.5679 83.8695 57.5679C80.5241 57.5679 78.707 56.1998 78.707 53.6559C78.707 51.1121 80.3958 49.8081 83.442 49.8081C84.9918 49.8081 86.1141 50.1181 86.9478 50.738C87.7601 51.3579 88.2304 52.3519 88.2304 53.4529C88.2304 53.6987 88.2197 53.859 88.1876 54.3827H82.1594V54.3934ZM84.8956 52.6619C84.7673 51.903 84.4039 51.6358 83.5702 51.6358C82.7365 51.6358 82.3197 51.9565 82.2342 52.6619H84.8956Z" fill="white"/>
<path d="M89.5557 50.0219H92.6981L92.8905 50.4922C93.5318 50.0219 94.2586 49.8081 95.1885 49.8081C95.4984 49.8081 95.7443 49.8402 96.1718 49.8936L95.7229 52.3092C95.1671 52.1168 94.8037 52.0634 94.3013 52.0634C93.3394 52.0634 93.0936 52.384 93.0936 53.6666V57.3755H89.5664V50.0326L89.5557 50.0219Z" fill="white"/>
<path d="M99.7739 52.2663V50.0324H101.099L101.356 47.9375L104.423 47.6489V50.0324H106.497V52.2663H104.423V54.1154C104.423 55.0346 104.584 55.2484 105.246 55.2484C105.535 55.2484 105.781 55.2056 106.219 55.056L106.582 57.3112C105.61 57.4823 104.936 57.5464 104.092 57.5464C102.553 57.5464 101.719 57.215 101.292 56.4455C101.035 55.9538 100.96 55.4301 100.96 53.9123V52.2663H99.7739Z" fill="white"/>
<path d="M117.121 53.6985C117.121 56.1889 115.369 57.5784 112.226 57.5784C109.084 57.5784 107.288 56.1996 107.288 53.6451C107.288 51.0905 109.094 49.8186 112.215 49.8186C115.336 49.8186 117.121 51.1974 117.121 53.6985ZM110.922 53.6664C110.922 54.8849 111.339 55.4514 112.215 55.4514C113.092 55.4514 113.509 54.8742 113.509 53.6878C113.509 52.5014 113.092 51.9242 112.215 51.9242C111.339 51.9242 110.922 52.5014 110.922 53.6557V53.6664Z" fill="white"/>
<path d="M13.123 68.3096H17.035L18.9269 74.8936L20.8187 68.3096H24.7307L20.3698 78.7414H17.4946L13.1337 68.3096H13.123Z" fill="white"/>
<path d="M34.2752 75.022C34.2752 77.5124 32.5224 78.9019 29.38 78.9019C26.2376 78.9019 24.4419 77.5231 24.4419 74.9685C24.4419 72.414 26.2483 71.1421 29.3693 71.1421C32.4903 71.1421 34.2752 72.5209 34.2752 75.022ZM28.076 74.9899C28.076 76.2084 28.4928 76.7749 29.3693 76.7749C30.2457 76.7749 30.6626 76.1977 30.6626 75.0113C30.6626 73.8249 30.2457 73.2477 29.3693 73.2477C28.4928 73.2477 28.076 73.8249 28.076 74.9792V74.9899Z" fill="white"/>
<path d="M34.8955 73.5791V71.3452H36.2209L36.4774 69.2503L39.545 68.9617V71.3452H41.6185V73.5791H39.545V75.4282C39.545 76.3474 39.7053 76.5611 40.368 76.5611C40.6566 76.5611 40.9024 76.5184 41.3406 76.3687L41.7041 78.624C40.7314 78.795 40.058 78.8591 39.2136 78.8591C37.6745 78.8591 36.8408 78.5278 36.4133 77.7582C36.1568 77.2666 36.0819 76.7428 36.0819 75.2251V73.5791H34.8955Z" fill="white"/>
<path d="M45.819 75.7167C45.99 76.5183 46.5352 76.8603 47.5933 76.8603C48.5553 76.8603 49.25 76.7 50.4257 76.2083L51.4518 78.1536C50.3723 78.6667 49.1538 78.8911 47.5292 78.8911C44.1837 78.8911 42.3667 77.523 42.3667 74.9792C42.3667 72.4353 44.0555 71.1313 47.1017 71.1313C48.6515 71.1313 49.7737 71.4413 50.6074 72.0612C51.4198 72.6812 51.89 73.6752 51.89 74.7761C51.89 75.0219 51.8794 75.1823 51.8473 75.706H45.819V75.7167ZM48.5553 73.9852C48.427 73.2263 48.0636 72.9591 47.2299 72.9591C46.3962 72.9591 45.9794 73.2797 45.8939 73.9852H48.5553Z" fill="white"/>
<path d="M56.8598 67.5508H60.387V71.6658C60.9535 71.3024 61.6482 71.1421 62.6636 71.1421C65.1219 71.1421 66.5328 72.553 66.5328 75.022C66.5328 77.491 65.1113 78.9019 62.6102 78.9019C61.5093 78.9019 60.7183 78.6667 60.0984 78.143L59.7884 78.6774H56.8491V67.5508H56.8598ZM60.387 75.0006C60.387 76.1656 60.8573 76.7749 61.7337 76.7749C62.514 76.7749 62.8988 76.1977 62.8988 75.0113C62.8988 73.8249 62.5247 73.2477 61.7337 73.2477C60.8573 73.2477 60.387 73.8569 60.387 74.9899V75.0006Z" fill="white"/>
<path d="M66.4686 71.3452H70.1454L71.3852 75.8023L72.7961 71.3452H76.3981L72.8282 78.934C72.1655 80.3769 71.8876 80.8472 71.4815 81.2747C70.7867 82.0015 69.782 82.3329 68.3284 82.3329C67.5054 82.3329 66.7893 82.2474 66.1479 82.0443L66.7038 80.0242C67.0672 80.1845 67.5481 80.2807 67.997 80.2807C68.5208 80.2807 68.9269 80.0242 69.2903 79.4577C69.4079 79.2546 69.4186 79.2226 69.6537 78.7309L69.6965 78.6561L66.49 71.3452H66.4686Z" fill="white"/>
<path d="M84.479 78.688H80.8877V68.3096H84.65C86.5953 68.3096 87.7711 68.5554 88.6582 69.1326C89.5453 69.7311 90.0691 70.7572 90.0691 71.9223C90.0691 73.2049 89.4705 74.2737 88.4444 74.8723C87.6748 75.3105 86.5953 75.5242 85.2165 75.5242H84.479V78.6773V78.688ZM85.0882 73.2797C86.1036 73.2797 86.4243 72.959 86.4243 71.9436C86.4243 70.9282 86.1036 70.5648 85.0882 70.5648H84.479V73.2797H85.0882Z" fill="white"/>
<path d="M96.7703 78.1429C96.1503 78.6667 95.4022 78.9018 94.344 78.9018C91.9178 78.9018 90.5176 77.4909 90.5176 75.0219C90.5176 72.5529 91.8964 71.1313 94.2478 71.1313C95.338 71.1313 95.9901 71.3237 96.6741 71.8154L96.7489 71.3451H99.9982V78.688H97.0589L96.7489 78.1536L96.7703 78.1429ZM94.1517 75.0219C94.1517 76.1976 94.5044 76.7855 95.2312 76.7855C96.0435 76.7855 96.4817 76.1763 96.4817 75.0433C96.4817 73.9103 96.0649 73.2583 95.2312 73.2583C94.5044 73.2583 94.1517 73.8355 94.1517 75.0326V75.0219Z" fill="white"/>
<path d="M105.471 82.1725H101.944V71.3451H105.086L105.279 71.8154C105.952 71.3237 106.657 71.1313 107.769 71.1313C110.227 71.1313 111.638 72.5529 111.638 75.0219C111.638 77.4909 110.217 78.9018 107.758 78.9018C106.732 78.9018 106.102 78.7094 105.492 78.2178V82.1725H105.471ZM105.471 74.9899C105.471 76.1656 105.941 76.7748 106.818 76.7748C107.598 76.7748 107.983 76.1976 107.983 75.0112C107.983 73.8248 107.609 73.237 106.818 73.237C105.941 73.237 105.471 73.8462 105.471 74.9792V74.9899Z" fill="white"/>
<path d="M115.903 75.7167C116.074 76.5183 116.619 76.8603 117.677 76.8603C118.639 76.8603 119.333 76.7 120.509 76.2083L121.535 78.1536C120.456 78.6667 119.237 78.8911 117.613 78.8911C114.267 78.8911 112.45 77.523 112.45 74.9792C112.45 72.4353 114.139 71.1313 117.185 71.1313C118.735 71.1313 119.857 71.4413 120.691 72.0612C121.503 72.6812 121.974 73.6752 121.974 74.7761C121.974 75.0219 121.963 75.1823 121.931 75.706H115.903V75.7167ZM118.639 73.9852C118.51 73.2263 118.147 72.9591 117.313 72.9591C116.48 72.9591 116.063 73.2797 115.977 73.9852H118.639Z" fill="white"/>
<path d="M123.31 71.3451H126.452L126.644 71.8154C127.286 71.3451 128.012 71.1313 128.942 71.1313C129.252 71.1313 129.498 71.1634 129.926 71.2168L129.477 73.6324C128.921 73.44 128.558 73.3866 128.055 73.3866C127.093 73.3866 126.847 73.7073 126.847 74.9899V78.6987H123.32V71.3558L123.31 71.3451Z" fill="white"/>
<path d="M36.862 103.656C36.007 102.652 35.6115 102.128 35.1625 101.38C34.1792 99.7123 33.6982 97.9914 33.6982 96.0568C33.6982 94.1222 34.1792 92.4228 35.1625 90.7554C35.6115 89.9965 36.007 89.4728 36.862 88.4788L39.0318 89.5583C37.8881 91.4288 37.3323 93.5451 37.3323 96.0675C37.3323 98.59 37.8881 100.717 39.0318 102.577L36.862 103.667V103.656Z" fill="white"/>
<path d="M41.2764 89.6331H49.5278V91.9738H44.8677V93.5129H48.8972V95.8537H44.8677V97.6707H49.7844V100.011H41.2871V89.6331H41.2764Z" fill="white"/>
<path d="M51.5586 92.6686H54.701L54.8934 93.1389C55.5881 92.6579 56.347 92.4548 57.4693 92.4548C58.8588 92.4548 59.7887 92.8717 60.2697 93.6947C60.5476 94.2077 60.6758 94.9773 60.6758 96.1744V100.012H57.1487V96.2492C57.1487 95.0842 56.9135 94.7101 56.2294 94.7101C55.353 94.7101 55.0965 95.0735 55.0965 96.3133V100.022H51.5693V92.6793L51.5586 92.6686Z" fill="white"/>
<path d="M68.1471 99.3382C67.4737 99.8619 66.8003 100.065 65.7208 100.065C63.3479 100.065 61.9585 98.6541 61.9585 96.2599C61.9585 93.8657 63.3373 92.4548 65.7208 92.4548C66.811 92.4548 67.4737 92.6472 68.1043 93.1389L68.3074 92.6686H71.4498V98.9854C71.4498 100.567 71.1933 101.497 70.5626 102.171C69.6328 103.186 68.2112 103.656 66.0628 103.656C64.6947 103.656 63.4762 103.539 62.5463 103.304L63.1021 101.209C63.9465 101.487 64.7054 101.604 65.7422 101.604C67.4951 101.604 68.1684 101.08 68.1578 99.7123V99.3382H68.1471ZM65.5925 96.2599C65.5925 97.3822 65.9452 97.9273 66.672 97.9273C67.4844 97.9273 67.9226 97.3501 67.9226 96.2706C67.9226 95.1911 67.5057 94.5711 66.672 94.5711C65.9452 94.5711 65.5925 95.1269 65.5925 96.2599Z" fill="white"/>
<path d="M73.2773 88.874H76.8045V100.001H73.2773V88.874Z" fill="white"/>
<path d="M82.3411 90.4774C82.3411 91.4073 81.6143 92.0059 80.4921 92.0059C79.3698 92.0059 78.6216 91.4073 78.6216 90.456C78.6216 89.5048 79.3591 88.949 80.4814 88.949C81.6036 88.949 82.3411 89.5475 82.3411 90.4881V90.4774ZM78.7178 92.6685H82.245V100.011H78.7178V92.6685Z" fill="white"/>
<path d="M84.2543 97.799C84.9918 98.0876 85.8789 98.2479 86.7875 98.2479C87.696 98.2479 88.1128 98.0876 88.1128 97.7349C88.1128 97.4784 87.899 97.3287 87.3539 97.2219C84.6818 96.7409 83.6771 96.0782 83.6771 94.7528C83.6771 93.2992 85.0025 92.4548 87.2685 92.4548C88.6045 92.4548 89.823 92.6686 90.9132 93.1282L90.0367 94.9987C89.203 94.6032 88.3373 94.4001 87.5677 94.4001C87.1615 94.4001 86.905 94.5604 86.905 94.8063C86.905 95.0521 87.0653 95.1269 88.038 95.3193C90.5498 95.8324 91.4049 96.4523 91.4049 97.7883C91.4049 99.4023 89.9939 100.204 87.1508 100.204C85.7827 100.204 84.3612 100.044 83.4634 99.7871L84.265 97.799H84.2543Z" fill="white"/>
<path d="M92.5273 88.874H96.0545V92.9997C96.6103 92.647 97.4226 92.4653 98.4059 92.4653C99.7954 92.4653 100.725 92.8715 101.206 93.7052C101.484 94.1968 101.612 94.9878 101.612 96.1849V100.011H98.0853V96.249C98.0853 95.084 97.8715 94.7099 97.1661 94.7099C96.311 94.7099 96.0438 95.0733 96.0438 96.2597V100.011H92.5166V88.8847L92.5273 88.874Z" fill="white"/>
<path d="M103.632 102.566C104.776 100.706 105.332 98.5792 105.332 96.0568C105.332 93.5343 104.776 91.418 103.632 89.5475L105.802 88.468C106.657 89.4727 107.053 89.9965 107.502 90.7447C108.485 92.412 108.966 94.1329 108.966 96.0461C108.966 97.9593 108.485 99.6908 107.502 101.369C107.053 102.106 106.657 102.652 105.802 103.646L103.632 102.555V102.566Z" fill="white"/>
<path d="M70.1029 32.6317L67.0887 34.2136C66.0306 34.7694 64.7907 33.8715 64.9938 32.6958L65.571 29.3397C65.6565 28.8694 65.4962 28.3884 65.1541 28.0571L62.7172 25.6842C61.8621 24.8505 62.3324 23.3969 63.5188 23.2259L66.8857 22.7342C67.356 22.6701 67.7621 22.3708 67.9759 21.9433L69.4829 18.8971C70.0174 17.8282 71.5458 17.8282 72.0695 18.8971L73.5766 21.9433C73.7904 22.3708 74.1965 22.6701 74.6668 22.7342L78.0337 23.2259C79.2201 23.3969 79.6904 24.8505 78.8353 25.6842L76.3983 28.0571C76.0563 28.3884 75.9067 28.8694 75.9815 29.3397L76.5587 32.6958C76.7617 33.8715 75.5219 34.7801 74.4637 34.2136L71.4496 32.6317C71.0328 32.4072 70.5304 32.4072 70.1029 32.6317Z" fill="#272660"/>
</g>
<defs>
<filter id="filter0_d_284_508" x="0.347656" y="0" width="142.674" height="142.674" filterUnits="userSpaceOnUse" color-interpolation-filters="sRGB">
<feFlood flood-opacity="0" result="BackgroundImageFix"/>
<feColorMatrix in="SourceAlpha" type="matrix" values="0 0 0 0 0 0 0 0 0 0 0 0 0 0 0 0 0 0 127 0" result="hardAlpha"/>
<feOffset dy="4"/>
<feGaussianBlur stdDeviation="2"/>
<feComposite in2="hardAlpha" operator="out"/>
<feColorMatrix type="matrix" values="0 0 0 0 0 0 0 0 0 0 0 0 0 0 0 0 0 0 0.25 0"/>
<feBlend mode="normal" in2="BackgroundImageFix" result="effect1_dropShadow_284_508"/>
<feBlend mode="normal" in="SourceGraphic" in2="effect1_dropShadow_284_508" result="shape"/>
</filter>
</defs>
</svg>
