<svg width="150" height="149" viewBox="0 0 150 149" fill="none" xmlns="http://www.w3.org/2000/svg">
<rect x="75" width="105.359" height="105.359" transform="rotate(45 75 0)" fill="#8888E2"/>
<path d="M59.2027 54.3973C69.9036 63.809 79.4961 86.3084 76.7452 98.9252C76.7452 98.9252 69.8479 97.9199 69.8466 97.9281C70.7157 91.6486 71.7845 85.4824 73.0158 79.282C75.6175 66.6096 78.5675 54.3067 83.6362 42.0529C85.877 36.7387 88.7047 31.1194 92.7212 26.3712C93.7567 25.1053 95.2405 23.6724 96.5034 22.5324L115.012 40.8902C114.604 41.1217 114.267 41.1968 113.853 41.4691C112.251 42.4415 111.029 43.5041 109.609 44.838C103.224 51.1459 98.3756 58.6945 93.6981 66.3522C87.33 77.0248 81.6614 88.2864 76.6609 99.556C76.6609 99.556 69.7526 98.5575 69.7635 98.5508C68.2954 92.4987 64.0452 86.9502 59.512 82.0447C55.5477 77.9429 51.2173 73.92 46.0454 71.05L45.6052 70.8338C45.2601 70.6402 44.9664 70.6298 44.6283 70.5208L59.2015 54.4055L59.2027 54.3973Z" fill="white"/>
</svg>
