<svg width="16" height="16" viewBox="0 0 16 16" fill="none" xmlns="http://www.w3.org/2000/svg">
<path d="M0.302527 13.3637C-0.0929813 13.7592 -0.111815 14.4655 0.311943 14.8798C0.726285 15.2942 1.43255 15.2847 1.82806 14.8892L7.59117 9.1167L13.3637 14.8892C13.7686 15.2942 14.4655 15.2942 14.8798 14.8798C15.2847 14.4561 15.2942 13.7686 14.8798 13.3637L9.1167 7.59117L14.8798 1.82806C15.2942 1.42313 15.2942 0.726285 14.8798 0.311943C14.4561 -0.0929813 13.7686 -0.102398 13.3637 0.302527L7.59117 6.07506L1.82806 0.302527C1.43255 -0.0929813 0.716868 -0.111815 0.311943 0.311943C-0.102398 0.726285 -0.0929813 1.43255 0.302527 1.82806L6.07506 7.59117L0.302527 13.3637Z" fill="#F9C01B"/>
</svg>
