<svg width="136" height="126" viewBox="0 0 136 126" fill="none" xmlns="http://www.w3.org/2000/svg">
<g clip-path="url(#clip0_214_1268)">
<path d="M28.5999 68.4686C27.3004 68.1503 26.082 67.2555 25.4396 65.9649L19.0184 53.5373C15.0524 46.0053 14.2956 37.3508 16.8283 29.2038C19.361 21.0568 24.9353 14.4301 32.4862 10.4944C48.0233 2.31197 67.3128 8.40843 75.4171 23.9918L76.8012 26.6569L79.2592 24.9329C93.6426 14.8576 113.509 18.3518 123.567 32.8035C127.821 38.9149 129.826 46.3841 129.193 53.8634C128.862 57.4203 128.008 60.909 126.561 64.1329C125.475 66.6106 122.562 67.746 120.087 66.603C117.598 65.5162 116.509 62.6252 117.608 60.0912C118.638 57.8387 119.231 55.4191 119.47 52.9728C119.891 47.8273 118.52 42.6606 115.603 38.4273C108.646 28.4331 94.9221 26.0258 84.9493 33.0065L77.9401 37.9099C76.7882 38.7013 75.3372 39.002 73.9812 38.6699C72.6251 38.3377 71.4771 37.4004 70.8209 36.1662L66.8687 28.5779C61.247 17.7775 47.9634 13.5696 37.1786 19.2182C31.9619 21.9365 28.1387 26.5467 26.3387 32.1893C24.5386 37.8319 25.1103 43.8168 27.7791 49.0629L34.2003 61.4905C35.4699 63.8889 34.5003 66.8721 32.0959 68.1321C30.9991 68.6984 29.7727 68.8155 28.6991 68.5525L28.5999 68.4686Z" fill="#EF4239"/>
<path d="M55.9936 111.441C50.8519 110.181 46.5298 106.796 44.1463 102.097L34.7861 84.0592C33.2739 81.1839 33.0569 77.9101 33.9837 74.8568C34.9809 71.7611 37.0819 69.2936 39.9645 67.7929C45.7723 64.8616 52.9371 67.1533 55.9478 72.9603L62.369 85.3879L96.136 61.6907C98.7484 59.8256 101.904 59.1671 105.067 59.7032C108.229 60.2393 110.962 62.0419 112.783 64.635C114.604 67.2281 115.314 70.4438 114.726 73.5801C114.139 76.7164 112.448 79.4634 109.779 81.3147L70.8152 108.63C66.4749 111.682 61.0788 112.686 55.9936 111.441ZM45.8268 76.3858C45.3183 76.2613 44.825 76.3194 44.3469 76.5601C43.6579 76.9281 43.3934 77.5194 43.2543 77.8432C43.1717 78.1808 43.0202 78.7998 43.391 79.487L52.7512 97.5251C53.8927 99.7132 55.8484 101.266 58.2779 101.861C60.7075 102.456 63.159 101.983 65.1816 100.57L104.146 73.2549C104.792 72.8168 105 72.2117 105.026 71.8602C105.109 71.5226 105.147 70.876 104.65 70.2173C104.209 69.5725 103.601 69.364 103.248 69.3372C102.909 69.2542 102.246 69.2708 101.657 69.7227L63.3385 96.5995C62.1866 97.3909 60.7356 97.6915 59.3795 97.3594C58.0235 97.0272 56.8754 96.09 56.2192 94.8557L47.1734 77.491C46.888 76.944 46.3353 76.5104 45.7703 76.372L45.8268 76.3858Z" fill="#EF4239"/>
</g>
<defs>
<clipPath id="clip0_214_1268">
<rect width="115.297" height="100.392" fill="white" transform="matrix(0.971289 0.237905 -0.2377 0.971339 23.8633 0.211182)"/>
</clipPath>
</defs>
</svg>
