<svg width="30" height="31" viewBox="0 0 30 31" fill="none" xmlns="http://www.w3.org/2000/svg">
<path d="M14.996 10.6404C12.2417 10.6404 9.99393 12.8882 9.99393 15.6426C9.99393 18.3969 12.2417 20.6447 14.996 20.6447C17.7503 20.6447 19.998 18.3969 19.998 15.6426C19.998 12.8882 17.7503 10.6404 14.996 10.6404ZM29.9983 15.6426C29.9983 13.5712 30.0171 11.5185 29.9008 9.45089C29.7844 7.04927 29.2366 4.91783 27.4804 3.16165C25.7205 1.40171 23.5929 0.857589 21.1913 0.74126C19.1199 0.624932 17.0673 0.643694 14.9997 0.643694C12.9284 0.643694 10.8758 0.624932 8.80815 0.74126C6.40657 0.857589 4.27517 1.40546 2.51902 3.16165C0.759114 4.92158 0.215007 7.04927 0.0986802 9.45089C-0.0176462 11.5223 0.00111615 13.5749 0.00111615 15.6426C0.00111615 17.7102 -0.0176462 19.7666 0.0986802 21.8343C0.215007 24.2359 0.762867 26.3673 2.51902 28.1235C4.27893 29.8834 6.40657 30.4276 8.80815 30.5439C10.8795 30.6602 12.9321 30.6415 14.9997 30.6415C17.0711 30.6415 19.1237 30.6602 21.1913 30.5439C23.5929 30.4276 25.7243 29.8797 27.4804 28.1235C29.2403 26.3636 29.7844 24.2359 29.9008 21.8343C30.0208 19.7666 29.9983 17.714 29.9983 15.6426ZM14.996 23.339C10.7369 23.339 7.29966 19.9017 7.29966 15.6426C7.29966 11.3835 10.7369 7.94613 14.996 7.94613C19.255 7.94613 22.6923 11.3835 22.6923 15.6426C22.6923 19.9017 19.255 23.339 14.996 23.339ZM23.0075 9.42838C22.0131 9.42838 21.2101 8.62534 21.2101 7.63092C21.2101 6.63649 22.0131 5.83345 23.0075 5.83345C24.0019 5.83345 24.8049 6.63649 24.8049 7.63092C24.8052 7.86704 24.7589 8.10091 24.6687 8.31913C24.5785 8.53734 24.4461 8.73561 24.2791 8.90258C24.1122 9.06954 23.9139 9.20193 23.6957 9.29216C23.4775 9.38239 23.2436 9.42868 23.0075 9.42838Z" fill="white"/>
</svg>
