<svg width="129" height="127" viewBox="0 0 129 127" fill="none" xmlns="http://www.w3.org/2000/svg">
<g clip-path="url(#clip0_78_147)">
<path d="M24.987 63.2367L24.9494 43.0161C24.9306 41.831 24.0852 40.8873 23.0707 40.9092C22.0562 40.9312 21.2108 39.9948 21.192 38.8023L21.1794 38.1878C21.1607 37.0027 20.3152 36.0589 19.3007 36.0809L16.6705 36.1467C15.656 36.1687 14.8105 35.2323 14.7918 34.0398L14.6916 28.5092C14.6728 27.324 15.4744 26.3364 16.4951 26.3145L17.5472 26.2852C18.5617 26.2633 19.3696 25.2757 19.3508 24.0905L19.3258 22.8615C19.307 21.6763 18.4615 20.7326 17.447 20.7546L12.7126 20.8716C11.6981 20.8936 10.8527 19.9572 10.8339 18.7647L10.7963 16.5773C10.7838 15.8384 10.4456 15.1508 9.90079 14.7777L3.11857 10.0517C2.57374 9.67133 2.23557 8.99097 2.22304 8.25209L2.19173 6.52559C2.17294 5.34046 2.97453 4.35284 3.98905 4.33089C27.254 3.76027 70.0265 2.71413 76.2388 2.5605C76.7273 2.54587 77.197 2.76534 77.5477 3.16039L82.4887 8.69835C82.8394 9.09339 83.0461 9.63475 83.0524 10.2054L83.2903 23.4833C83.3029 24.0539 83.5032 24.5953 83.8539 24.9903L93.7674 36.0955C94.1181 36.4906 94.3248 37.0319 94.331 37.6026L94.4312 43.1625C94.45 44.3476 95.2954 45.2913 96.3099 45.2694L102.096 45.1304C103.111 45.1084 103.956 46.0448 103.975 47.2373L104.138 56.455C104.157 57.6402 103.355 58.6278 102.334 58.6497C101.32 58.6717 100.512 59.6593 100.531 60.8444L100.562 62.6295C100.575 63.2513 100.813 63.8365 101.226 64.2389L116.544 79.1775C116.951 79.5799 117.195 80.1651 117.208 80.7869L117.371 89.7413C117.383 90.4509 117.696 91.1094 118.203 91.4971L125.919 97.4081C126.426 97.7959 126.739 98.4543 126.752 99.1639L126.796 101.746C126.808 102.317 126.62 102.866 126.282 103.283L113.688 118.624C113.35 119.033 113.168 119.589 113.175 120.16L113.206 122.033C113.225 123.218 112.423 124.205 111.402 124.227L102.46 124.447C101.445 124.469 100.6 123.532 100.581 122.34L100.568 121.521C100.556 120.709 100.932 119.948 101.552 119.575L105.785 116.97C106.405 116.59 106.781 115.836 106.768 115.024L106.655 108.674C106.637 107.489 105.791 106.545 104.777 106.567L46.511 107.314" stroke="#EF4239" stroke-width="7" stroke-miterlimit="10" stroke-linecap="round"/>
<path d="M26.127 80.7577L26.3399 109.26L63.044 63.9756" stroke="#EF4239" stroke-width="10" stroke-linecap="round" stroke-linejoin="round"/>
</g>
<defs>
<clipPath id="clip0_78_147">
<rect width="129" height="127" fill="white"/>
</clipPath>
</defs>
</svg>
