<svg width="18" height="17" viewBox="0 0 18 17" fill="none" xmlns="http://www.w3.org/2000/svg">
<path d="M1.21666 9.26367H7.72684V15.1994C7.72684 15.8027 8.27113 16.3087 8.9435 16.3087C9.61586 16.3087 10.1602 15.8027 10.1602 15.1994V9.26367H16.6703C17.332 9.26367 17.887 8.7674 17.887 8.15437C17.887 7.54133 17.332 7.04506 16.6703 7.04506H10.1602V1.10931C10.1602 0.505999 9.61586 0 8.9435 0C8.27113 0 7.72684 0.505999 7.72684 1.10931V7.04506H1.21666C0.554966 7.04506 0 7.54133 0 8.15437C0 8.7674 0.554966 9.26367 1.21666 9.26367Z" fill="#282560"/>
</svg>
