<svg width="14" height="14" viewBox="0 0 14 14" fill="none" xmlns="http://www.w3.org/2000/svg">
<path d="M11.6949 9.16725C11.1276 9.16772 10.5832 9.3907 10.1785 9.78828L4.47369 7.2464V6.76258L10.1785 4.21348C10.5358 4.56372 11.0033 4.77948 11.5017 4.82411C12 4.86875 12.4985 4.7395 12.9124 4.45833C13.3262 4.17715 13.63 3.76138 13.7721 3.28164C13.9142 2.8019 13.8859 2.28775 13.6919 1.82653C13.4979 1.36532 13.1503 0.985458 12.708 0.751476C12.2658 0.517495 11.7561 0.443816 11.2657 0.542953C10.7753 0.642091 10.3343 0.907932 10.0176 1.29533C9.70096 1.68272 9.52816 2.16778 9.52857 2.66813V2.91365L3.82378 5.45553C3.51931 5.15639 3.13325 4.95387 2.71407 4.87337C2.29489 4.79288 1.86127 4.83801 1.46766 5.0031C1.07404 5.16818 0.737955 5.44587 0.501603 5.80129C0.265251 6.15672 0.13916 6.57404 0.13916 7.00088C0.13916 7.42771 0.265251 7.84504 0.501603 8.20046C0.737955 8.55589 1.07404 8.83357 1.46766 8.99866C1.86127 9.16375 2.29489 9.20887 2.71407 9.12838C3.13325 9.04789 3.51931 8.84536 3.82378 8.54622L9.52857 11.0953V11.3336C9.52857 11.7621 9.65562 12.1809 9.89367 12.5372C10.1317 12.8935 10.4701 13.1711 10.8659 13.3351C11.2618 13.4991 11.6973 13.542 12.1176 13.4584C12.5378 13.3748 12.9238 13.1685 13.2268 12.8655C13.5298 12.5625 13.7361 12.1765 13.8197 11.7563C13.9033 11.336 13.8604 10.9004 13.6964 10.5046C13.5324 10.1087 13.2548 9.7704 12.8985 9.53235C12.5423 9.29431 12.1234 9.16725 11.6949 9.16725Z" fill="white"/>
</svg>
