<svg width="108" height="108" viewBox="0 0 108 108" fill="none" xmlns="http://www.w3.org/2000/svg">
<g clip-path="url(#clip0_214_1230)">
<path d="M61.6522 97.0676C85.5111 92.7682 101.367 69.9413 97.0677 46.0824C92.7683 22.2235 69.9414 6.36737 46.0825 10.6668C22.2236 14.9663 6.36747 37.7931 10.6669 61.6521C14.9664 85.511 37.7932 101.367 61.6522 97.0676Z" fill="#F6A8BE"/>
<path d="M62.0923 99.5098C36.9145 104.047 12.7576 87.2456 8.22491 62.0922C3.69219 36.9388 20.4646 12.7619 45.6425 8.2248C70.8203 3.68767 94.9727 20.4645 99.5099 45.6424C104.047 70.8202 87.2701 94.9726 62.0923 99.5098ZM46.5226 13.109C24.0555 17.1576 9.06043 38.7449 13.1091 61.212C17.1577 83.6792 38.745 98.6742 61.2122 94.6256C83.6793 90.5769 98.6743 68.9896 94.6257 46.5225C90.5771 24.0554 68.9898 9.06031 46.5226 13.109Z" fill="#EF4239"/>
<path d="M58.9855 82.2687C43.3317 85.0896 28.2869 74.6391 25.4661 58.9854L30.3502 58.1052C32.687 71.0727 45.1379 79.7213 58.1053 77.3846C71.0728 75.0478 79.7215 62.5969 77.3847 49.6295L82.2688 48.7493C85.0897 64.4031 74.6392 79.4479 58.9855 82.2687Z" fill="#EF4239"/>
<path d="M42.2466 48.1451C44.9036 47.6663 46.3738 43.4842 45.5304 38.8041C44.6871 34.124 41.8495 30.7182 39.1925 31.197C36.5355 31.6758 35.0653 35.8579 35.9086 40.538C36.752 45.2181 39.5896 48.6239 42.2466 48.1451Z" fill="#EF4239"/>
<path d="M42.4665 49.3661C39.072 49.9778 35.6689 46.2039 34.6875 40.758C33.7062 35.3122 35.5779 30.5877 38.9724 29.976C42.3669 29.3643 45.77 33.1383 46.7514 38.5841C47.7327 44.0299 45.861 48.7544 42.4665 49.3661ZM39.4124 32.4181C37.703 32.7261 36.3595 36.0443 37.1296 40.318C37.8997 44.5916 40.3414 47.2277 42.0265 46.9241C43.7115 46.6204 45.0794 43.2978 44.3093 39.0242C43.5392 34.7505 41.0975 32.1144 39.4124 32.4181Z" fill="#F6A8BE"/>
<path d="M62.76 44.4485C65.417 43.9697 66.8872 39.7876 66.0439 35.1076C65.2005 30.4275 62.3629 27.0217 59.7059 27.5005C57.0489 27.9793 55.5787 32.1614 56.4221 36.8415C57.2654 41.5215 60.103 44.9273 62.76 44.4485Z" fill="#EF4239"/>
<path d="M62.98 45.6696C59.5855 46.2813 56.1823 42.5074 55.2009 37.0615C54.2196 31.6157 56.0913 26.8912 59.4858 26.2795C62.8803 25.6678 66.2835 29.4417 67.2648 34.8876C68.2462 40.3334 66.3744 45.0579 62.98 45.6696ZM59.9259 28.7216C58.2164 29.0296 56.8729 32.3478 57.643 36.6214C58.4131 40.8951 60.8548 43.5312 62.5399 43.2275C64.2249 42.9239 65.5929 39.6013 64.8227 35.3276C64.0526 31.054 61.6109 28.4179 59.9259 28.7216Z" fill="#F6A8BE"/>
</g>
<defs>
<clipPath id="clip0_214_1230">
<rect width="92.7553" height="92.7553" fill="white" transform="translate(0 16.4497) rotate(-10.2152)"/>
</clipPath>
</defs>
</svg>
